P3
16 16
15
1 11 3
1 11 3
1 11 3
1 11 3
1 11 3
1 11 3
1 11 3
1 11 3
1 11 3
1 11 3
1 11 3
1 11 3
1 11 3
1 11 3
1 11 3
1 11 3
1 11 3
1 11 3
1 11 3
1 11 3
1 11 3
1 11 3
1 11 3
1 11 3
1 8 6
1 11 3
1 11 3
1 11 3
1 11 3
1 11 3
1 11 3
1 11 3
1 11 3
1 11 3
1 11 3
1 11 3
1 11 3
1 8 6
1 8 6
1 8 6
1 8 6
3 1 11
2 4 9
1 8 6
1 11 3
1 11 3
1 11 3
1 11 3
1 11 3
1 11 3
1 11 3
1 11 3
1 8 6
1 8 6
1 8 6
2 4 9
2 4 9
4 9 2
4 9 2
2 4 9
1 8 6
1 11 3
1 11 3
1 11 3
1 11 3
1 11 3
1 11 3
1 11 3
1 8 6
1 8 6
1 8 6
2 4 9
3 12 14
0 0 0
0 0 0
3 1 11
1 8 6
1 11 3
1 11 3
1 11 3
1 11 3
1 11 3
1 11 3
1 8 6
1 8 6
1 8 6
3 1 11
3 12 14
0 0 0
0 0 0
0 0 0
0 0 0
3 1 11
1 8 6
1 11 3
1 11 3
1 11 3
1 11 3
1 11 3
1 8 6
2 4 9
9 14 7
5 5 5
5 5 5
0 0 0
0 0 0
0 0 0
0 0 0
3 1 11
1 8 6
1 11 3
1 11 3
1 11 3
1 11 3
1 11 3
2 4 9
3 1 11
9 2 4
0 0 0
11 3 1
0 0 0
0 0 0
0 0 0
0 0 0
3 1 11
1 8 6
1 11 3
1 11 3
1 11 3
1 11 3
0 0 0
0 0 0
0 0 0
0 0 0
0 0 0
0 0 0
0 0 0
0 0 0
0 0 0
0 0 0
3 1 11
1 8 6
1 8 6
1 11 3
1 11 3
1 11 3
1 11 3
2 4 9
3 1 11
9 2 4
0 0 0
11 3 1
0 0 0
0 0 0
0 0 0
0 0 0
3 1 11
1 8 6
1 11 3
1 11 3
1 11 3
1 11 3
1 11 3
1 8 6
2 4 9
9 14 7
5 5 5
5 5 5
0 0 0
0 0 0
0 0 0
0 0 0
3 1 11
1 8 6
1 11 3
1 11 3
1 11 3
1 11 3
1 11 3
1 8 6
1 8 6
1 8 6
3 1 11
3 12 14
0 0 0
0 0 0
0 0 0
0 0 0
3 1 11
1 8 6
1 11 3
1 11 3
1 11 3
1 11 3
1 11 3
1 11 3
1 8 6
1 8 6
1 8 6
2 4 9
3 12 14
0 0 0
0 0 0
3 1 11
1 8 6
1 11 3
1 11 3
1 11 3
1 11 3
1 11 3
1 11 3
1 11 3
1 8 6
1 8 6
1 8 6
2 4 9
2 4 9
4 9 2
4 9 2
2 4 9
1 8 6
1 11 3
1 11 3
1 11 3
1 11 3
1 11 3
1 11 3
1 11 3
1 11 3
1 8 6
1 8 6
1 8 6
1 8 6
3 1 11
2 4 9
1 8 6
1 11 3
1 11 3
1 11 3
1 11 3
1 11 3
1 11 3
1 11 3
1 11 3
1 11 3
1 11 3
1 11 3
1 11 3
1 8 6
1 11 3
1 11 3
1 11 3
1 11 3
1 11 3
1 11 3
1 11 3
