P3
20 15
15
1 1 1
1 1 1
1 1 1
1 1 1
1 1 1
1 1 1
1 1 1
1 1 1
1 1 1
1 1 1
1 1 1
1 1 1
1 1 1
1 1 1
1 1 1
1 1 1
1 1 1
1 1 1
1 1 1
1 1 1
1 1 1
1 1 1
1 1 1
1 1 1
1 1 1
1 1 1
1 1 1
1 1 1
1 1 1
3 3 3
3 3 3
3 3 3
1 1 1
1 1 1
1 1 1
1 1 1
1 1 1
1 1 1
1 1 1
1 1 1
1 1 1
1 1 1
1 1 1
1 1 1
1 1 1
1 1 1
3 3 3
3 3 3
3 3 3
3 3 3
4 4 4
4 4 4
5 5 5
4 4 4
3 3 3
1 1 1
1 1 1
1 1 1
1 1 1
1 1 1
1 1 1
1 1 1
1 1 1
1 1 1
1 1 1
3 3 3
3 3 3
3 3 3
3 3 3
4 4 4
4 4 4
7 7 7
0 0 0
5 5 5
4 4 4
3 3 3
1 1 1
1 1 1
1 1 1
1 1 1
1 1 1
1 1 1
1 1 1
1 1 1
3 3 3
3 3 3
3 3 3
3 3 3
4 4 4
5 5 5
9 9 9
12 12 12
0 0 0
11 11 11
7 7 7
4 4 4
3 3 3
1 1 1
1 1 1
1 1 1
1 1 1
1 1 1
1 1 1
1 1 1
3 3 3
3 3 3
4 4 4
5 5 5
5 5 5
9 9 9
0 0 0
0 0 0
0 0 0
0 0 0
0 0 0
5 5 5
3 3 3
1 1 1
1 1 1
1 1 1
1 1 1
1 1 1
1 1 1
3 3 3
4 4 4
5 5 5
8 8 8
0 0 0
14 14 14
0 0 0
0 0 0
0 0 0
0 0 0
0 0 0
0 0 0
7 7 7
3 3 3
3 3 3
1 1 1
1 1 1
1 1 1
1 1 1
1 1 1
4 4 4
7 7 7
8 8 8
0 0 0
0 0 0
0 0 0
0 0 0
0 0 0
0 0 0
0 0 0
0 0 0
0 0 0
5 5 5
3 3 3
3 3 3
1 1 1
1 1 1
1 1 1
1 1 1
1 1 1
4 4 4
7 7 7
8 8 8
0 0 0
0 0 0
0 0 0
0 0 0
0 0 0
0 0 0
0 0 0
0 0 0
0 0 0
5 5 5
3 3 3
3 3 3
1 1 1
1 1 1
1 1 1
1 1 1
1 1 1
3 3 3
4 4 4
5 5 5
8 8 8
0 0 0
14 14 14
0 0 0
0 0 0
0 0 0
0 0 0
0 0 0
0 0 0
7 7 7
3 3 3
3 3 3
1 1 1
1 1 1
1 1 1
1 1 1
1 1 1
1 1 1
3 3 3
3 3 3
4 4 4
5 5 5
5 5 5
9 9 9
0 0 0
0 0 0
0 0 0
0 0 0
0 0 0
5 5 5
3 3 3
1 1 1
1 1 1
1 1 1
1 1 1
1 1 1
1 1 1
1 1 1
3 3 3
3 3 3
3 3 3
3 3 3
4 4 4
5 5 5
9 9 9
12 12 12
0 0 0
11 11 11
7 7 7
4 4 4
3 3 3
1 1 1
1 1 1
1 1 1
1 1 1
1 1 1
1 1 1
1 1 1
1 1 1
3 3 3
3 3 3
3 3 3
3 3 3
4 4 4
4 4 4
7 7 7
0 0 0
5 5 5
4 4 4
3 3 3
1 1 1
1 1 1
1 1 1
1 1 1
1 1 1
1 1 1
1 1 1
1 1 1
1 1 1
1 1 1
3 3 3
3 3 3
3 3 3
3 3 3
4 4 4
4 4 4
5 5 5
4 4 4
3 3 3
1 1 1
1 1 1
1 1 1
1 1 1
1 1 1
1 1 1
1 1 1
1 1 1
1 1 1
1 1 1
1 1 1
1 1 1
1 1 1
1 1 1
3 3 3
3 3 3
3 3 3
1 1 1
1 1 1
1 1 1
1 1 1
1 1 1
1 1 1
1 1 1
1 1 1
