P3
20 15
15
1 11 3
1 11 3
1 11 3
1 11 3
1 11 3
1 11 3
1 11 3
1 11 3
1 11 3
1 11 3
1 11 3
1 11 3
1 11 3
1 11 3
1 11 3
1 11 3
1 11 3
1 11 3
1 11 3
1 11 3
1 11 3
1 11 3
1 11 3
1 11 3
1 11 3
1 11 3
1 11 3
1 11 3
1 11 3
1 8 6
1 8 6
1 8 6
1 11 3
1 11 3
1 11 3
1 11 3
1 11 3
1 11 3
1 11 3
1 11 3
1 11 3
1 11 3
1 11 3
1 11 3
1 11 3
1 11 3
1 8 6
1 8 6
1 8 6
1 8 6
2 4 9
2 4 9
3 1 11
2 4 9
1 8 6
1 11 3
1 11 3
1 11 3
1 11 3
1 11 3
1 11 3
1 11 3
1 11 3
1 11 3
1 11 3
1 8 6
1 8 6
1 8 6
1 8 6
2 4 9
2 4 9
3 12 14
0 0 0
3 1 11
2 4 9
1 8 6
1 11 3
1 11 3
1 11 3
1 11 3
1 11 3
1 11 3
1 11 3
1 11 3
1 8 6
1 8 6
1 8 6
1 8 6
2 4 9
3 1 11
5 5 5
6 13 11
0 0 0
6 1 8
3 12 14
2 4 9
1 8 6
1 11 3
1 11 3
1 11 3
1 11 3
1 11 3
1 11 3
1 11 3
1 8 6
1 8 6
2 4 9
3 1 11
3 1 11
5 5 5
0 0 0
0 0 0
0 0 0
0 0 0
0 0 0
3 1 11
1 8 6
1 11 3
1 11 3
1 11 3
1 11 3
1 11 3
1 11 3
1 8 6
2 4 9
3 1 11
4 9 2
8 6 1
7 9 14
0 0 0
0 0 0
0 0 0
0 0 0
0 0 0
0 0 0
3 12 14
1 8 6
1 8 6
1 11 3
1 11 3
1 11 3
1 11 3
1 11 3
2 4 9
3 12 14
4 9 2
9 14 7
0 0 0
0 0 0
0 0 0
0 0 0
0 0 0
0 0 0
0 0 0
0 0 0
3 1 11
1 8 6
1 8 6
1 11 3
1 11 3
1 11 3
1 11 3
1 11 3
2 4 9
3 12 14
4 9 2
9 14 7
0 0 0
0 0 0
0 0 0
0 0 0
0 0 0
0 0 0
0 0 0
0 0 0
3 1 11
1 8 6
1 8 6
1 11 3
1 11 3
1 11 3
1 11 3
1 11 3
1 8 6
2 4 9
3 1 11
4 9 2
8 6 1
7 9 14
0 0 0
0 0 0
0 0 0
0 0 0
0 0 0
0 0 0
3 12 14
1 8 6
1 8 6
1 11 3
1 11 3
1 11 3
1 11 3
1 11 3
1 11 3
1 8 6
1 8 6
2 4 9
3 1 11
3 1 11
5 5 5
0 0 0
0 0 0
0 0 0
0 0 0
0 0 0
3 1 11
1 8 6
1 11 3
1 11 3
1 11 3
1 11 3
1 11 3
1 11 3
1 11 3
1 8 6
1 8 6
1 8 6
1 8 6
2 4 9
3 1 11
5 5 5
6 13 11
0 0 0
6 1 8
3 12 14
2 4 9
1 8 6
1 11 3
1 11 3
1 11 3
1 11 3
1 11 3
1 11 3
1 11 3
1 11 3
1 8 6
1 8 6
1 8 6
1 8 6
2 4 9
2 4 9
3 12 14
0 0 0
3 1 11
2 4 9
1 8 6
1 11 3
1 11 3
1 11 3
1 11 3
1 11 3
1 11 3
1 11 3
1 11 3
1 11 3
1 11 3
1 8 6
1 8 6
1 8 6
1 8 6
2 4 9
2 4 9
3 1 11
2 4 9
1 8 6
1 11 3
1 11 3
1 11 3
1 11 3
1 11 3
1 11 3
1 11 3
1 11 3
1 11 3
1 11 3
1 11 3
1 11 3
1 11 3
1 11 3
1 8 6
1 8 6
1 8 6
1 11 3
1 11 3
1 11 3
1 11 3
1 11 3
1 11 3
1 11 3
1 11 3
