P3
40 30
15
1 11 3
1 11 3
1 11 3
1 11 3
1 11 3
1 11 3
1 11 3
1 11 3
1 11 3
1 11 3
1 11 3
1 11 3
1 11 3
1 11 3
1 11 3
1 11 3
1 11 3
1 11 3
1 11 3
1 11 3
1 11 3
1 11 3
1 11 3
1 11 3
1 11 3
1 11 3
1 11 3
1 11 3
1 11 3
1 11 3
1 11 3
1 11 3
1 11 3
1 11 3
1 11 3
1 11 3
1 11 3
1 11 3
1 11 3
1 11 3
1 11 3
1 11 3
1 11 3
1 11 3
1 11 3
1 11 3
1 11 3
1 11 3
1 11 3
1 11 3
1 11 3
1 11 3
1 11 3
1 11 3
1 11 3
1 11 3
1 11 3
1 11 3
1 11 3
1 11 3
1 11 3
1 11 3
1 11 3
1 11 3
1 11 3
1 11 3
1 11 3
1 11 3
1 11 3
1 11 3
1 11 3
1 11 3
1 11 3
1 11 3
1 11 3
1 11 3
1 11 3
1 11 3
1 11 3
1 11 3
1 11 3
1 11 3
1 11 3
1 11 3
1 11 3
1 11 3
1 11 3
1 11 3
1 11 3
1 11 3
1 11 3
1 11 3
1 11 3
1 11 3
1 11 3
1 11 3
1 11 3
1 11 3
1 8 6
1 8 6
1 8 6
1 8 6
1 8 6
1 11 3
1 11 3
1 11 3
1 11 3
1 11 3
1 11 3
1 11 3
1 11 3
1 11 3
1 11 3
1 11 3
1 11 3
1 11 3
1 11 3
1 11 3
1 11 3
1 11 3
1 11 3
1 11 3
1 11 3
1 11 3
1 11 3
1 11 3
1 11 3
1 11 3
1 11 3
1 11 3
1 11 3
1 11 3
1 11 3
1 11 3
1 8 6
1 8 6
1 8 6
1 8 6
1 8 6
1 8 6
1 8 6
1 8 6
1 8 6
1 8 6
1 8 6
1 8 6
1 8 6
1 11 3
1 11 3
1 11 3
1 11 3
1 11 3
1 11 3
1 11 3
1 11 3
1 11 3
1 11 3
1 11 3
1 11 3
1 11 3
1 11 3
1 11 3
1 11 3
1 11 3
1 11 3
1 11 3
1 11 3
1 11 3
1 11 3
1 11 3
1 11 3
1 11 3
1 8 6
1 8 6
1 8 6
1 8 6
1 8 6
1 8 6
1 8 6
1 8 6
2 4 9
2 4 9
2 4 9
13 11 6
3 1 11
2 4 9
2 4 9
1 8 6
1 8 6
1 11 3
1 11 3
1 11 3
1 11 3
1 11 3
1 11 3
1 11 3
1 11 3
1 11 3
1 11 3
1 11 3
1 11 3
1 11 3
1 11 3
1 11 3
1 11 3
1 11 3
1 11 3
1 11 3
1 11 3
1 11 3
1 11 3
1 8 6
1 8 6
1 8 6
1 8 6
1 8 6
1 8 6
1 8 6
1 8 6
2 4 9
2 4 9
2 4 9
3 1 11
4 9 2
6 1 8
0 0 0
2 4 9
2 4 9
1 8 6
1 8 6
1 11 3
1 11 3
1 11 3
1 11 3
1 11 3
1 11 3
1 11 3
1 11 3
1 11 3
1 11 3
1 11 3
1 11 3
1 11 3
1 11 3
1 11 3
1 11 3
1 11 3
1 11 3
1 11 3
1 8 6
1 8 6
1 8 6
1 8 6
1 8 6
1 8 6
1 8 6
1 8 6
2 4 9
2 4 9
2 4 9
2 4 9
3 1 11
3 12 14
6 1 8
0 0 0
5 5 5
3 1 11
2 4 9
2 4 9
1 8 6
1 8 6
1 8 6
1 11 3
1 11 3
1 11 3
1 11 3
1 11 3
1 11 3
1 11 3
1 11 3
1 11 3
1 11 3
1 11 3
1 11 3
1 11 3
1 11 3
1 11 3
1 11 3
1 8 6
1 8 6
1 8 6
1 8 6
1 8 6
1 8 6
1 8 6
1 8 6
2 4 9
2 4 9
2 4 9
2 4 9
3 1 11
3 12 14
5 5 5
0 0 0
0 0 0
12 14 3
3 12 14
3 1 11
3 1 11
2 4 9
1 8 6
1 8 6
1 8 6
1 11 3
1 11 3
1 11 3
1 11 3
1 11 3
1 11 3
1 11 3
1 11 3
1 11 3
1 11 3
1 11 3
1 11 3
1 11 3
1 11 3
1 11 3
1 8 6
1 8 6
1 8 6
1 8 6
1 8 6
1 8 6
1 8 6
2 4 9
2 4 9
2 4 9
3 1 11
4 9 2
5 5 5
5 5 5
6 13 11
0 0 0
0 0 0
9 2 4
6 1 8
3 12 14
3 12 14
3 1 11
2 4 9
1 8 6
1 8 6
1 11 3
1 11 3
1 11 3
1 11 3
1 11 3
1 11 3
1 11 3
1 11 3
1 11 3
1 11 3
1 11 3
1 11 3
1 11 3
1 11 3
1 8 6
1 8 6
1 8 6
1 8 6
1 8 6
1 8 6
1 8 6
2 4 9
2 4 9
3 1 11
3 1 11
3 12 14
8 6 1
0 0 0
0 0 0
0 0 0
0 0 0
0 0 0
0 0 0
0 0 0
8 6 1
10 10 10
10 10 10
2 4 9
1 8 6
1 8 6
1 8 6
1 11 3
1 11 3
1 11 3
1 11 3
1 11 3
1 11 3
1 11 3
1 11 3
1 11 3
1 11 3
1 11 3
1 11 3
1 11 3
1 8 6
1 8 6
1 8 6
1 8 6
1 8 6
2 4 9
3 1 11
3 1 11
3 1 11
3 1 11
3 12 14
5 5 5
8 6 1
0 0 0
0 0 0
0 0 0
0 0 0
0 0 0
0 0 0
0 0 0
0 0 0
0 0 0
4 9 2
3 1 11
1 8 6
1 8 6
1 8 6
1 11 3
1 11 3
1 11 3
1 11 3
1 11 3
1 11 3
1 11 3
1 11 3
1 11 3
1 11 3
1 11 3
1 11 3
1 8 6
1 8 6
1 8 6
1 8 6
2 4 9
3 1 11
4 9 2
4 9 2
4 9 2
4 9 2
4 9 2
4 9 2
7 9 14
0 0 0
0 0 0
0 0 0
0 0 0
0 0 0
0 0 0
0 0 0
0 0 0
0 0 0
0 0 0
6 1 8
3 1 11
2 4 9
1 8 6
1 8 6
1 8 6
1 11 3
1 11 3
1 11 3
1 11 3
1 11 3
1 11 3
1 11 3
1 11 3
1 11 3
1 11 3
1 11 3
1 8 6
2 4 9
2 4 9
2 4 9
3 1 11
3 1 11
4 9 2
11 6 13
8 6 1
0 0 0
7 9 14
6 1 8
0 0 0
0 0 0
0 0 0
0 0 0
0 0 0
0 0 0
0 0 0
0 0 0
0 0 0
0 0 0
0 0 0
10 10 10
3 12 14
2 4 9
1 8 6
1 8 6
1 8 6
1 11 3
1 11 3
1 11 3
1 11 3
1 11 3
1 11 3
1 11 3
1 11 3
1 11 3
1 11 3
1 11 3
2 4 9
2 4 9
2 4 9
3 1 11
3 1 11
3 12 14
5 5 5
12 14 3
0 0 0
0 0 0
0 0 0
10 10 10
0 0 0
0 0 0
0 0 0
0 0 0
0 0 0
0 0 0
0 0 0
0 0 0
0 0 0
0 0 0
0 0 0
0 0 0
3 1 11
2 4 9
1 8 6
1 8 6
1 8 6
1 11 3
1 11 3
1 11 3
1 11 3
1 11 3
1 11 3
1 11 3
1 11 3
1 11 3
1 11 3
1 11 3
2 4 9
2 4 9
3 12 14
3 12 14
4 9 2
8 6 1
9 14 7
0 0 0
0 0 0
0 0 0
0 0 0
0 0 0
0 0 0
0 0 0
0 0 0
0 0 0
0 0 0
0 0 0
0 0 0
0 0 0
0 0 0
0 0 0
0 0 0
5 5 5
3 1 11
2 4 9
1 8 6
1 8 6
1 8 6
1 11 3
1 11 3
1 11 3
1 11 3
1 11 3
1 11 3
1 11 3
1 11 3
1 11 3
1 11 3
0 0 0
0 0 0
0 0 0
0 0 0
0 0 0
0 0 0
0 0 0
0 0 0
0 0 0
0 0 0
0 0 0
0 0 0
0 0 0
0 0 0
0 0 0
0 0 0
0 0 0
0 0 0
0 0 0
0 0 0
0 0 0
0 0 0
0 0 0
8 6 1
4 9 2
3 1 11
2 4 9
1 8 6
1 8 6
1 8 6
1 8 6
1 11 3
1 11 3
1 11 3
1 11 3
1 11 3
1 11 3
1 11 3
1 11 3
1 11 3
1 11 3
2 4 9
2 4 9
3 12 14
3 12 14
4 9 2
8 6 1
9 14 7
0 0 0
0 0 0
0 0 0
0 0 0
0 0 0
0 0 0
0 0 0
0 0 0
0 0 0
0 0 0
0 0 0
0 0 0
0 0 0
0 0 0
0 0 0
0 0 0
5 5 5
3 1 11
2 4 9
1 8 6
1 8 6
1 8 6
1 11 3
1 11 3
1 11 3
1 11 3
1 11 3
1 11 3
1 11 3
1 11 3
1 11 3
1 11 3
1 11 3
2 4 9
2 4 9
2 4 9
3 1 11
3 1 11
3 12 14
5 5 5
12 14 3
0 0 0
0 0 0
0 0 0
10 10 10
0 0 0
0 0 0
0 0 0
0 0 0
0 0 0
0 0 0
0 0 0
0 0 0
0 0 0
0 0 0
0 0 0
0 0 0
3 1 11
2 4 9
1 8 6
1 8 6
1 8 6
1 11 3
1 11 3
1 11 3
1 11 3
1 11 3
1 11 3
1 11 3
1 11 3
1 11 3
1 11 3
1 11 3
1 8 6
2 4 9
2 4 9
2 4 9
3 1 11
3 1 11
4 9 2
11 6 13
8 6 1
0 0 0
7 9 14
6 1 8
0 0 0
0 0 0
0 0 0
0 0 0
0 0 0
0 0 0
0 0 0
0 0 0
0 0 0
0 0 0
0 0 0
10 10 10
3 12 14
2 4 9
1 8 6
1 8 6
1 8 6
1 11 3
1 11 3
1 11 3
1 11 3
1 11 3
1 11 3
1 11 3
1 11 3
1 11 3
1 11 3
1 11 3
1 8 6
1 8 6
1 8 6
1 8 6
2 4 9
3 1 11
4 9 2
4 9 2
4 9 2
4 9 2
4 9 2
4 9 2
7 9 14
0 0 0
0 0 0
0 0 0
0 0 0
0 0 0
0 0 0
0 0 0
0 0 0
0 0 0
0 0 0
6 1 8
3 1 11
2 4 9
1 8 6
1 8 6
1 8 6
1 11 3
1 11 3
1 11 3
1 11 3
1 11 3
1 11 3
1 11 3
1 11 3
1 11 3
1 11 3
1 11 3
1 11 3
1 8 6
1 8 6
1 8 6
1 8 6
1 8 6
2 4 9
3 1 11
3 1 11
3 1 11
3 1 11
3 12 14
5 5 5
8 6 1
0 0 0
0 0 0
0 0 0
0 0 0
0 0 0
0 0 0
0 0 0
0 0 0
0 0 0
4 9 2
3 1 11
1 8 6
1 8 6
1 8 6
1 11 3
1 11 3
1 11 3
1 11 3
1 11 3
1 11 3
1 11 3
1 11 3
1 11 3
1 11 3
1 11 3
1 11 3
1 11 3
1 8 6
1 8 6
1 8 6
1 8 6
1 8 6
1 8 6
1 8 6
2 4 9
2 4 9
3 1 11
3 1 11
3 12 14
8 6 1
0 0 0
0 0 0
0 0 0
0 0 0
0 0 0
0 0 0
0 0 0
8 6 1
10 10 10
10 10 10
2 4 9
1 8 6
1 8 6
1 8 6
1 11 3
1 11 3
1 11 3
1 11 3
1 11 3
1 11 3
1 11 3
1 11 3
1 11 3
1 11 3
1 11 3
1 11 3
1 11 3
1 11 3
1 8 6
1 8 6
1 8 6
1 8 6
1 8 6
1 8 6
1 8 6
2 4 9
2 4 9
2 4 9
3 1 11
4 9 2
5 5 5
5 5 5
6 13 11
0 0 0
0 0 0
9 2 4
6 1 8
3 12 14
3 12 14
3 1 11
2 4 9
1 8 6
1 8 6
1 11 3
1 11 3
1 11 3
1 11 3
1 11 3
1 11 3
1 11 3
1 11 3
1 11 3
1 11 3
1 11 3
1 11 3
1 11 3
1 11 3
1 11 3
1 8 6
1 8 6
1 8 6
1 8 6
1 8 6
1 8 6
1 8 6
1 8 6
2 4 9
2 4 9
2 4 9
2 4 9
3 1 11
3 12 14
5 5 5
0 0 0
0 0 0
12 14 3
3 12 14
3 1 11
3 1 11
2 4 9
1 8 6
1 8 6
1 8 6
1 11 3
1 11 3
1 11 3
1 11 3
1 11 3
1 11 3
1 11 3
1 11 3
1 11 3
1 11 3
1 11 3
1 11 3
1 11 3
1 11 3
1 11 3
1 11 3
1 8 6
1 8 6
1 8 6
1 8 6
1 8 6
1 8 6
1 8 6
1 8 6
2 4 9
2 4 9
2 4 9
2 4 9
3 1 11
3 12 14
6 1 8
0 0 0
5 5 5
3 1 11
2 4 9
2 4 9
1 8 6
1 8 6
1 8 6
1 11 3
1 11 3
1 11 3
1 11 3
1 11 3
1 11 3
1 11 3
1 11 3
1 11 3
1 11 3
1 11 3
1 11 3
1 11 3
1 11 3
1 11 3
1 11 3
1 11 3
1 11 3
1 11 3
1 8 6
1 8 6
1 8 6
1 8 6
1 8 6
1 8 6
1 8 6
1 8 6
2 4 9
2 4 9
2 4 9
3 1 11
4 9 2
6 1 8
0 0 0
2 4 9
2 4 9
1 8 6
1 8 6
1 11 3
1 11 3
1 11 3
1 11 3
1 11 3
1 11 3
1 11 3
1 11 3
1 11 3
1 11 3
1 11 3
1 11 3
1 11 3
1 11 3
1 11 3
1 11 3
1 11 3
1 11 3
1 11 3
1 11 3
1 11 3
1 11 3
1 8 6
1 8 6
1 8 6
1 8 6
1 8 6
1 8 6
1 8 6
1 8 6
2 4 9
2 4 9
2 4 9
13 11 6
3 1 11
2 4 9
2 4 9
1 8 6
1 8 6
1 11 3
1 11 3
1 11 3
1 11 3
1 11 3
1 11 3
1 11 3
1 11 3
1 11 3
1 11 3
1 11 3
1 11 3
1 11 3
1 11 3
1 11 3
1 11 3
1 11 3
1 11 3
1 11 3
1 11 3
1 11 3
1 11 3
1 11 3
1 11 3
1 11 3
1 8 6
1 8 6
1 8 6
1 8 6
1 8 6
1 8 6
1 8 6
1 8 6
1 8 6
1 8 6
1 8 6
1 8 6
1 8 6
1 11 3
1 11 3
1 11 3
1 11 3
1 11 3
1 11 3
1 11 3
1 11 3
1 11 3
1 11 3
1 11 3
1 11 3
1 11 3
1 11 3
1 11 3
1 11 3
1 11 3
1 11 3
1 11 3
1 11 3
1 11 3
1 11 3
1 11 3
1 11 3
1 11 3
1 11 3
1 11 3
1 11 3
1 11 3
1 11 3
1 11 3
1 8 6
1 8 6
1 8 6
1 8 6
1 8 6
1 11 3
1 11 3
1 11 3
1 11 3
1 11 3
1 11 3
1 11 3
1 11 3
1 11 3
1 11 3
1 11 3
1 11 3
1 11 3
1 11 3
1 11 3
1 11 3
1 11 3
1 11 3
1 11 3
1 11 3
1 11 3
1 11 3
1 11 3
1 11 3
1 11 3
1 11 3
1 11 3
1 11 3
1 11 3
1 11 3
1 11 3
1 11 3
1 11 3
1 11 3
1 11 3
1 11 3
1 11 3
1 11 3
1 11 3
1 11 3
1 11 3
1 11 3
1 11 3
1 11 3
1 11 3
1 11 3
1 11 3
1 11 3
1 11 3
1 11 3
1 11 3
1 11 3
1 11 3
1 11 3
1 11 3
1 11 3
1 11 3
