P3
64 48
15
0 3 14
0 3 14
0 3 14
0 3 14
0 3 14
0 3 14
0 3 14
0 3 14
0 3 14
0 3 14
0 3 14
0 3 14
0 3 14
0 3 14
0 3 14
0 3 14
0 3 14
0 3 14
0 3 14
0 3 14
0 3 14
0 3 14
0 3 14
0 3 14
0 3 14
0 3 14
0 3 14
0 3 14
0 3 14
0 3 14
0 3 14
0 3 14
0 3 14
0 3 14
0 6 14
0 6 14
0 6 14
0 6 14
0 6 14
0 6 14
0 6 14
0 6 14
0 6 14
0 6 14
0 6 14
0 6 14
0 6 14
0 6 14
0 6 14
0 6 14
0 3 14
0 3 14
0 3 14
0 3 14
0 3 14
0 3 14
0 3 14
0 3 14
0 3 14
0 3 14
0 3 14
0 3 14
0 3 14
0 3 14
0 3 14
0 3 14
0 3 14
0 3 14
0 3 14
0 3 14
0 3 14
0 3 14
0 3 14
0 3 14
0 3 14
0 3 14
0 3 14
0 3 14
0 3 14
0 3 14
0 3 14
0 3 14
0 3 14
0 3 14
0 3 14
0 3 14
0 3 14
0 3 14
0 3 14
0 3 14
0 3 14
0 3 14
0 3 14
0 3 14
0 3 14
0 6 14
0 6 14
0 6 14
0 6 14
0 6 14
0 6 14
0 6 14
0 6 14
0 6 14
0 6 14
0 6 14
0 6 14
0 6 14
0 6 14
0 6 14
0 6 14
0 6 14
0 6 14
0 6 14
0 6 14
0 6 14
0 6 14
0 3 14
0 3 14
0 3 14
0 3 14
0 3 14
0 3 14
0 3 14
0 3 14
0 3 14
0 3 14
0 3 14
0 3 14
0 3 14
0 3 14
0 3 14
0 3 14
0 3 14
0 3 14
0 3 14
0 3 14
0 3 14
0 3 14
0 3 14
0 3 14
0 3 14
0 3 14
0 3 14
0 3 14
0 3 14
0 3 14
0 3 14
0 3 14
0 3 14
0 3 14
0 3 14
0 3 14
0 3 14
0 3 14
0 3 14
0 3 14
0 6 14
0 6 14
0 6 14
0 6 14
0 6 14
0 6 14
0 6 14
0 6 14
0 6 14
0 6 14
0 6 14
0 6 14
0 6 14
0 6 14
0 6 14
0 6 14
0 6 14
0 9 13
0 9 13
0 9 13
0 9 13
0 6 14
0 6 14
0 6 14
0 6 14
0 6 14
0 3 14
0 3 14
0 3 14
0 3 14
0 3 14
0 3 14
0 3 14
0 3 14
0 3 14
0 3 14
0 3 14
0 3 14
0 3 14
0 3 14
0 3 14
0 3 14
0 3 14
0 3 14
0 3 14
0 3 14
0 3 14
0 3 14
0 3 14
0 3 14
0 3 14
0 3 14
0 3 14
0 3 14
0 3 14
0 3 14
0 3 14
0 3 14
0 3 14
0 3 14
0 3 14
0 3 14
0 6 14
0 6 14
0 6 14
0 6 14
0 6 14
0 6 14
0 6 14
0 6 14
0 6 14
0 6 14
0 6 14
0 6 14
0 6 14
0 6 14
0 6 14
0 9 13
0 9 13
0 9 13
0 9 13
0 12 13
0 9 10
0 15 12
0 12 13
0 9 13
0 9 13
0 9 13
0 6 14
0 6 14
0 6 14
0 6 14
0 3 14
0 3 14
0 3 14
0 3 14
0 3 14
0 3 14
0 3 14
0 3 14
0 3 14
0 3 14
0 3 14
0 3 14
0 3 14
0 3 14
0 3 14
0 3 14
0 3 14
0 3 14
0 3 14
0 3 14
0 3 14
0 3 14
0 3 14
0 3 14
0 3 14
0 3 14
0 3 14
0 3 14
0 3 14
0 3 14
0 3 14
0 3 14
0 6 14
0 6 14
0 6 14
0 6 14
0 6 14
0 6 14
0 6 14
0 6 14
0 6 14
0 6 14
0 6 14
0 6 14
0 6 14
0 6 14
0 6 14
0 9 13
0 9 13
0 9 13
0 9 13
0 9 13
0 12 13
0 12 13
0 6 11
0 9 10
0 15 12
0 15 12
0 9 13
0 9 13
0 9 13
0 9 13
0 6 14
0 6 14
0 6 14
0 6 14
0 3 14
0 3 14
0 3 14
0 3 14
0 3 14
0 3 14
0 3 14
0 3 14
0 3 14
0 3 14
0 3 14
0 3 14
0 3 14
0 3 14
0 3 14
0 3 14
0 3 14
0 3 14
0 3 14
0 3 14
0 3 14
0 3 14
0 3 14
0 3 14
0 3 14
0 3 14
0 3 14
0 3 14
0 6 14
0 6 14
0 6 14
0 6 14
0 6 14
0 6 14
0 6 14
0 6 14
0 6 14
0 6 14
0 6 14
0 6 14
0 6 14
0 6 14
0 6 14
0 6 14
0 9 13
0 9 13
0 9 13
0 9 13
0 9 13
0 12 13
0 12 13
0 15 12
0 3 11
0 3 8
0 9 10
0 9 10
0 15 12
0 9 13
0 9 13
0 9 13
0 9 13
0 6 14
0 6 14
0 6 14
0 6 14
0 3 14
0 3 14
0 3 14
0 3 14
0 3 14
0 3 14
0 3 14
0 3 14
0 3 14
0 3 14
0 3 14
0 3 14
0 3 14
0 3 14
0 3 14
0 3 14
0 3 14
0 3 14
0 3 14
0 3 14
0 3 14
0 3 14
0 3 14
0 3 14
0 3 14
0 3 14
0 6 14
0 6 14
0 6 14
0 6 14
0 6 14
0 6 14
0 6 14
0 6 14
0 6 14
0 6 14
0 6 14
0 6 14
0 6 14
0 6 14
0 6 14
0 9 13
0 9 13
0 9 13
0 9 13
0 9 13
0 9 13
0 9 13
0 12 13
0 12 13
0 15 12
0 6 11
0 12 10
0 12 4
0 9 10
0 3 11
0 12 13
0 9 13
0 9 13
0 9 13
0 9 13
0 6 14
0 6 14
0 6 14
0 6 14
0 6 14
0 3 14
0 3 14
0 3 14
0 3 14
0 3 14
0 3 14
0 3 14
0 3 14
0 3 14
0 3 14
0 3 14
0 3 14
0 3 14
0 3 14
0 3 14
0 3 14
0 3 14
0 3 14
0 3 14
0 3 14
0 3 14
0 3 14
0 3 14
0 6 14
0 6 14
0 6 14
0 6 14
0 6 14
0 6 14
0 6 14
0 6 14
0 6 14
0 6 14
0 6 14
0 6 14
0 6 14
0 6 14
0 6 14
0 9 13
0 9 13
0 9 13
0 9 13
0 9 13
0 9 13
0 9 13
0 12 13
0 12 13
0 15 12
0 3 11
0 9 10
1 12 13
0 12 4
0 12 10
0 3 11
0 15 12
0 12 13
0 9 13
0 9 13
0 9 13
0 9 13
0 6 14
0 6 14
0 6 14
0 6 14
0 6 14
0 3 14
0 3 14
0 3 14
0 3 14
0 3 14
0 3 14
0 3 14
0 3 14
0 3 14
0 3 14
0 3 14
0 3 14
0 3 14
0 3 14
0 3 14
0 3 14
0 3 14
0 3 14
0 3 14
0 3 14
0 3 14
0 6 14
0 6 14
0 6 14
0 6 14
0 6 14
0 6 14
0 6 14
0 6 14
0 6 14
0 6 14
0 6 14
0 6 14
0 6 14
0 6 14
0 6 14
0 9 13
0 9 13
0 9 13
0 9 13
0 9 13
0 9 13
0 9 13
0 12 13
0 12 13
0 15 12
0 6 11
1 3 14
0 9 7
1 6 2
0 0 0
0 9 7
0 3 5
0 15 12
0 12 13
0 12 13
0 12 13
0 9 13
0 9 13
0 9 13
0 6 14
0 6 14
0 6 14
0 6 14
0 6 14
0 3 14
0 3 14
0 3 14
0 3 14
0 3 14
0 3 14
0 3 14
0 3 14
0 3 14
0 3 14
0 3 14
0 3 14
0 3 14
0 3 14
0 3 14
0 3 14
0 3 14
0 3 14
0 3 14
0 6 14
0 6 14
0 6 14
0 6 14
0 6 14
0 6 14
0 6 14
0 6 14
0 6 14
0 6 14
0 6 14
0 6 14
0 6 14
0 6 14
0 6 14
0 9 13
0 9 13
0 9 13
0 9 13
0 9 13
0 9 13
0 12 13
0 12 13
0 15 12
0 15 12
0 3 11
0 6 11
0 3 8
0 0 0
0 0 0
0 0 0
2 9 10
0 9 7
0 3 11
0 15 12
0 12 13
0 12 13
0 12 13
0 9 13
0 9 13
0 9 13
0 6 14
0 6 14
0 6 14
0 6 14
0 3 14
0 3 14
0 3 14
0 3 14
0 3 14
0 3 14
0 3 14
0 3 14
0 3 14
0 3 14
0 3 14
0 3 14
0 3 14
0 3 14
0 3 14
0 3 14
0 3 14
0 3 14
0 6 14
0 6 14
0 6 14
0 6 14
0 6 14
0 6 14
0 6 14
0 6 14
0 6 14
0 6 14
0 6 14
0 6 14
0 6 14
0 6 14
0 6 14
0 9 13
0 9 13
0 9 13
0 9 13
0 9 13
0 9 13
0 12 13
0 15 12
0 15 12
0 15 12
0 3 11
0 3 11
0 9 10
0 9 7
0 0 0
0 0 0
0 0 0
0 0 0
1 12 1
0 6 11
0 3 11
0 15 12
0 15 12
0 12 13
0 12 13
0 9 13
0 9 13
0 6 14
0 6 14
0 6 14
0 6 14
0 3 14
0 3 14
0 3 14
0 3 14
0 3 14
0 3 14
0 3 14
0 3 14
0 3 14
0 3 14
0 3 14
0 3 14
0 3 14
0 3 14
0 3 14
0 3 14
0 3 14
0 3 14
0 6 14
0 6 14
0 6 14
0 6 14
0 6 14
0 6 14
0 6 14
0 6 14
0 6 14
0 6 14
0 6 14
0 6 14
0 6 14
0 9 13
0 9 13
0 9 13
0 9 13
0 9 13
0 9 13
0 12 13
0 12 13
0 9 10
0 6 11
1 15 0
0 6 11
0 6 11
0 12 10
0 12 10
0 6 8
0 0 0
0 0 0
0 0 0
2 12 13
0 3 8
0 9 10
0 9 10
0 3 11
0 15 12
0 15 12
0 3 11
0 3 11
0 9 13
0 9 13
0 6 14
0 6 14
0 6 14
0 3 14
0 3 14
0 3 14
0 3 14
0 3 14
0 3 14
0 3 14
0 3 14
0 3 14
0 3 14
0 3 14
0 3 14
0 3 14
0 3 14
0 3 14
0 3 14
0 3 14
0 6 14
0 6 14
0 6 14
0 6 14
0 6 14
0 6 14
0 6 14
0 6 14
0 6 14
0 6 14
0 6 14
0 6 14
0 6 14
0 9 13
0 9 13
0 9 13
0 9 13
0 12 13
0 12 13
0 12 13
0 12 13
0 15 12
0 9 10
1 9 1
0 15 6
0 3 8
0 3 8
0 0 0
3 14 6
0 0 0
0 0 0
0 0 0
0 0 0
0 0 0
0 0 0
2 15 12
1 6 14
1 12 7
0 9 10
0 9 10
0 12 10
0 9 10
0 12 13
0 9 13
0 6 14
0 6 14
0 6 14
0 3 14
0 3 14
0 3 14
0 3 14
0 3 14
0 3 14
0 3 14
0 3 14
0 3 14
0 3 14
0 3 14
0 3 14
0 3 14
0 3 14
0 3 14
0 3 14
0 3 14
0 6 14
0 6 14
0 6 14
0 6 14
0 6 14
0 6 14
0 6 14
0 6 14
0 6 14
0 6 14
0 6 14
0 6 14
0 9 13
0 9 13
0 9 13
0 12 13
0 12 13
0 12 13
0 12 13
0 12 13
0 15 12
0 3 11
0 9 10
0 15 6
0 0 0
9 13 3
0 0 0
0 0 0
0 0 0
0 0 0
0 0 0
0 0 0
0 0 0
0 0 0
0 0 0
0 0 0
0 0 0
1 12 4
0 6 8
0 0 0
2 6 5
0 15 6
0 15 12
0 12 13
0 9 13
0 6 14
0 6 14
0 3 14
0 3 14
0 3 14
0 3 14
0 3 14
0 3 14
0 3 14
0 3 14
0 3 14
0 3 14
0 3 14
0 3 14
0 3 14
0 3 14
0 3 14
0 3 14
0 6 14
0 6 14
0 6 14
0 6 14
0 6 14
0 6 14
0 6 14
0 6 14
0 6 14
0 6 14
0 6 14
0 9 13
0 9 13
0 12 13
0 12 13
0 12 13
0 12 13
0 12 13
0 12 13
0 12 13
0 15 12
0 15 12
0 6 11
0 9 10
0 6 8
0 0 0
0 0 0
0 0 0
0 0 0
0 0 0
0 0 0
0 0 0
0 0 0
0 0 0
0 0 0
0 0 0
0 0 0
0 0 0
0 0 0
0 0 0
0 0 0
6 8 13
0 9 10
0 15 12
0 12 13
0 9 13
0 6 14
0 6 14
0 3 14
0 3 14
0 3 14
0 3 14
0 3 14
0 3 14
0 3 14
0 3 14
0 3 14
0 3 14
0 3 14
0 3 14
0 3 14
0 3 14
0 3 14
0 3 14
0 6 14
0 6 14
0 6 14
0 6 14
0 6 14
0 6 14
0 6 14
0 6 14
0 6 14
0 9 13
0 9 13
0 12 13
0 12 13
0 12 13
0 12 13
0 12 13
0 12 13
0 12 13
0 15 12
0 15 12
0 15 12
0 3 11
0 3 8
0 12 7
8 13 12
0 0 0
0 0 0
0 0 0
0 0 0
0 0 0
0 0 0
0 0 0
0 0 0
0 0 0
0 0 0
0 0 0
0 0 0
0 0 0
0 0 0
0 0 0
10 13 12
0 6 8
0 6 11
0 15 12
0 12 13
0 9 13
0 9 13
0 6 14
0 3 14
0 3 14
0 3 14
0 3 14
0 3 14
0 3 14
0 3 14
0 3 14
0 3 14
0 3 14
0 3 14
0 3 14
0 3 14
0 3 14
0 3 14
0 6 14
0 6 14
0 6 14
0 6 14
0 6 14
0 6 14
0 6 14
0 6 14
0 9 13
0 9 13
0 9 13
0 15 12
0 6 11
0 15 12
0 15 12
0 15 12
0 15 12
0 15 12
0 15 12
0 15 12
0 3 11
0 3 11
0 6 11
0 12 4
0 0 0
0 0 0
0 0 0
0 0 0
0 0 0
0 0 0
0 0 0
0 0 0
0 0 0
0 0 0
0 0 0
0 0 0
0 0 0
0 0 0
0 0 0
0 0 0
0 0 0
0 0 0
5 8 13
0 9 10
0 3 11
0 12 13
0 9 13
0 9 13
0 6 14
0 3 14
0 3 14
0 3 14
0 3 14
0 3 14
0 3 14
0 3 14
0 3 14
0 3 14
0 3 14
0 3 14
0 3 14
0 3 14
0 3 14
0 3 14
0 6 14
0 6 14
0 6 14
0 6 14
0 6 14
0 9 13
0 9 13
0 9 13
0 9 13
0 12 13
0 12 13
0 15 12
0 3 8
0 6 11
0 3 11
0 3 11
0 9 10
0 6 11
0 3 11
0 3 11
0 3 11
0 6 11
0 12 10
0 9 4
0 0 0
0 0 0
0 0 0
0 0 0
0 0 0
0 0 0
0 0 0
0 0 0
0 0 0
0 0 0
0 0 0
0 0 0
0 0 0
0 0 0
0 0 0
0 0 0
0 0 0
0 0 0
0 0 0
0 15 3
0 15 6
0 15 12
0 9 13
0 9 13
0 6 14
0 3 14
0 3 14
0 3 14
0 3 14
0 3 14
0 3 14
0 3 14
0 3 14
0 3 14
0 3 14
0 3 14
0 3 14
0 3 14
0 3 14
0 6 14
0 6 14
0 6 14
0 6 14
0 9 13
0 9 13
0 9 13
0 9 13
0 9 13
0 12 13
0 12 13
0 15 12
0 15 12
0 3 8
1 12 1
0 12 7
0 12 10
0 3 8
0 15 6
0 15 9
0 12 10
0 9 10
0 9 10
0 3 8
1 9 13
0 0 0
0 0 0
0 0 0
0 0 0
0 0 0
0 0 0
0 0 0
0 0 0
0 0 0
0 0 0
0 0 0
0 0 0
0 0 0
0 0 0
0 0 0
0 0 0
0 0 0
0 0 0
0 0 0
0 0 0
0 12 7
0 15 12
0 9 13
0 9 13
0 6 14
0 3 14
0 3 14
0 3 14
0 3 14
0 3 14
0 3 14
0 3 14
0 3 14
0 3 14
0 3 14
0 3 14
0 3 14
0 3 14
0 3 14
0 6 14
0 6 14
0 9 13
0 9 13
0 9 13
0 9 13
0 9 13
0 9 13
0 12 13
0 12 13
0 12 13
0 15 12
0 3 11
0 9 10
0 3 8
8 7 14
1 6 2
1 9 7
0 0 0
0 12 4
0 15 6
0 15 9
0 15 9
0 12 7
0 0 0
0 0 0
0 0 0
0 0 0
0 0 0
0 0 0
0 0 0
0 0 0
0 0 0
0 0 0
0 0 0
0 0 0
0 0 0
0 0 0
0 0 0
0 0 0
0 0 0
0 0 0
0 0 0
0 0 0
0 0 0
0 9 10
0 15 12
0 9 13
0 9 13
0 9 13
0 3 14
0 3 14
0 3 14
0 3 14
0 3 14
0 3 14
0 3 14
0 3 14
0 3 14
0 3 14
0 3 14
0 3 14
0 3 14
0 3 14
0 6 14
0 9 13
0 9 13
0 9 13
0 9 13
0 9 13
0 9 13
0 12 13
0 12 13
0 12 13
0 12 13
0 3 11
0 3 11
0 12 10
0 6 8
1 6 11
0 0 0
0 0 0
0 0 0
0 0 0
0 0 0
1 3 11
0 6 8
6 14 6
0 0 0
0 0 0
0 0 0
0 0 0
0 0 0
0 0 0
0 0 0
0 0 0
0 0 0
0 0 0
0 0 0
0 0 0
0 0 0
0 0 0
0 0 0
0 0 0
0 0 0
0 0 0
0 0 0
0 0 0
0 0 0
1 9 1
0 12 13
0 9 13
0 9 13
0 9 13
0 3 14
0 3 14
0 3 14
0 3 14
0 3 14
0 3 14
0 3 14
0 3 14
0 3 14
0 3 14
0 3 14
0 3 14
0 3 14
0 3 14
0 9 13
0 9 13
0 9 13
0 9 13
0 9 13
0 9 13
0 12 13
0 12 13
0 12 13
0 15 12
0 12 4
0 6 11
0 9 10
0 6 8
0 0 0
0 0 0
0 0 0
0 0 0
0 0 0
0 0 0
0 0 0
0 0 0
1 6 2
2 9 13
0 0 0
0 0 0
0 0 0
0 0 0
0 0 0
0 0 0
0 0 0
0 0 0
0 0 0
0 0 0
0 0 0
0 0 0
0 0 0
0 0 0
0 0 0
0 0 0
0 0 0
0 0 0
0 0 0
0 0 0
1 3 5
0 3 11
0 12 13
0 9 13
0 9 13
0 9 13
0 3 14
0 3 14
0 3 14
0 3 14
0 3 14
0 3 14
0 3 14
0 3 14
0 3 14
0 3 14
0 3 14
0 3 14
0 3 14
0 3 14
0 9 13
0 9 13
0 9 13
0 9 13
0 9 13
0 15 12
0 15 12
0 15 12
0 15 12
0 3 11
0 9 10
0 6 8
0 6 5
0 15 6
0 0 0
0 0 0
0 0 0
0 0 0
0 0 0
0 0 0
0 0 0
0 0 0
0 0 0
0 0 0
0 0 0
0 0 0
0 0 0
0 0 0
0 0 0
0 0 0
0 0 0
0 0 0
0 0 0
0 0 0
0 0 0
0 0 0
0 0 0
0 0 0
0 0 0
0 0 0
0 0 0
0 0 0
0 0 0
0 0 0
0 15 6
0 15 12
0 12 13
0 9 13
0 9 13
0 9 13
0 3 14
0 3 14
0 3 14
0 3 14
0 3 14
0 3 14
0 3 14
0 3 14
0 3 14
0 3 14
0 3 14
0 3 14
0 3 14
0 3 14
0 12 13
0 12 13
0 15 12
0 3 11
0 3 11
0 3 11
0 15 12
0 3 11
0 3 11
0 12 10
0 12 4
0 12 4
0 0 0
1 9 10
0 0 0
0 0 0
0 0 0
0 0 0
0 0 0
0 0 0
0 0 0
0 0 0
0 0 0
0 0 0
0 0 0
0 0 0
0 0 0
0 0 0
0 0 0
0 0 0
0 0 0
0 0 0
0 0 0
0 0 0
0 0 0
0 0 0
0 0 0
0 0 0
0 0 0
0 0 0
0 0 0
0 0 0
0 0 0
0 0 0
0 6 11
0 15 12
0 12 13
0 9 13
0 9 13
0 9 13
0 3 14
0 3 14
0 3 14
0 3 14
0 3 14
0 3 14
0 3 14
0 3 14
0 3 14
0 3 14
0 3 14
0 3 14
0 3 14
0 3 14
0 0 0
0 0 0
0 0 0
0 0 0
0 0 0
0 0 0
0 0 0
0 0 0
0 0 0
0 0 0
0 0 0
0 0 0
0 0 0
0 0 0
0 0 0
0 0 0
0 0 0
0 0 0
0 0 0
0 0 0
0 0 0
0 0 0
0 0 0
0 0 0
0 0 0
0 0 0
0 0 0
0 0 0
0 0 0
0 0 0
0 0 0
0 0 0
0 0 0
0 0 0
0 0 0
0 0 0
0 0 0
0 0 0
0 0 0
0 0 0
0 0 0
0 0 0
0 6 5
0 12 10
0 3 11
0 15 12
0 12 13
0 9 13
0 9 13
0 9 13
0 3 14
0 3 14
0 3 14
0 3 14
0 3 14
0 3 14
0 3 14
0 3 14
0 3 14
0 3 14
0 3 14
0 3 14
0 3 14
0 3 14
0 12 13
0 12 13
0 15 12
0 3 11
0 3 11
0 3 11
0 15 12
0 3 11
0 3 11
0 12 10
0 12 4
0 12 4
0 0 0
1 9 10
0 0 0
0 0 0
0 0 0
0 0 0
0 0 0
0 0 0
0 0 0
0 0 0
0 0 0
0 0 0
0 0 0
0 0 0
0 0 0
0 0 0
0 0 0
0 0 0
0 0 0
0 0 0
0 0 0
0 0 0
0 0 0
0 0 0
0 0 0
0 0 0
0 0 0
0 0 0
0 0 0
0 0 0
0 0 0
0 0 0
0 6 11
0 15 12
0 12 13
0 9 13
0 9 13
0 9 13
0 3 14
0 3 14
0 3 14
0 3 14
0 3 14
0 3 14
0 3 14
0 3 14
0 3 14
0 3 14
0 3 14
0 3 14
0 3 14
0 3 14
0 9 13
0 9 13
0 9 13
0 9 13
0 9 13
0 15 12
0 15 12
0 15 12
0 15 12
0 3 11
0 9 10
0 6 8
0 6 5
0 15 6
0 0 0
0 0 0
0 0 0
0 0 0
0 0 0
0 0 0
0 0 0
0 0 0
0 0 0
0 0 0
0 0 0
0 0 0
0 0 0
0 0 0
0 0 0
0 0 0
0 0 0
0 0 0
0 0 0
0 0 0
0 0 0
0 0 0
0 0 0
0 0 0
0 0 0
0 0 0
0 0 0
0 0 0
0 0 0
0 0 0
0 15 6
0 15 12
0 12 13
0 9 13
0 9 13
0 9 13
0 3 14
0 3 14
0 3 14
0 3 14
0 3 14
0 3 14
0 3 14
0 3 14
0 3 14
0 3 14
0 3 14
0 3 14
0 3 14
0 3 14
0 9 13
0 9 13
0 9 13
0 9 13
0 9 13
0 9 13
0 12 13
0 12 13
0 12 13
0 15 12
0 12 4
0 6 11
0 9 10
0 6 8
0 0 0
0 0 0
0 0 0
0 0 0
0 0 0
0 0 0
0 0 0
0 0 0
1 6 2
2 9 13
0 0 0
0 0 0
0 0 0
0 0 0
0 0 0
0 0 0
0 0 0
0 0 0
0 0 0
0 0 0
0 0 0
0 0 0
0 0 0
0 0 0
0 0 0
0 0 0
0 0 0
0 0 0
0 0 0
0 0 0
1 3 5
0 3 11
0 12 13
0 9 13
0 9 13
0 9 13
0 3 14
0 3 14
0 3 14
0 3 14
0 3 14
0 3 14
0 3 14
0 3 14
0 3 14
0 3 14
0 3 14
0 3 14
0 3 14
0 3 14
0 6 14
0 9 13
0 9 13
0 9 13
0 9 13
0 9 13
0 9 13
0 12 13
0 12 13
0 12 13
0 12 13
0 3 11
0 3 11
0 12 10
0 6 8
1 6 11
0 0 0
0 0 0
0 0 0
0 0 0
0 0 0
1 3 11
0 6 8
6 14 6
0 0 0
0 0 0
0 0 0
0 0 0
0 0 0
0 0 0
0 0 0
0 0 0
0 0 0
0 0 0
0 0 0
0 0 0
0 0 0
0 0 0
0 0 0
0 0 0
0 0 0
0 0 0
0 0 0
0 0 0
0 0 0
1 9 1
0 12 13
0 9 13
0 9 13
0 9 13
0 3 14
0 3 14
0 3 14
0 3 14
0 3 14
0 3 14
0 3 14
0 3 14
0 3 14
0 3 14
0 3 14
0 3 14
0 3 14
0 3 14
0 6 14
0 6 14
0 9 13
0 9 13
0 9 13
0 9 13
0 9 13
0 9 13
0 12 13
0 12 13
0 12 13
0 15 12
0 3 11
0 9 10
0 3 8
8 7 14
1 6 2
1 9 7
0 0 0
0 12 4
0 15 6
0 15 9
0 15 9
0 12 7
0 0 0
0 0 0
0 0 0
0 0 0
0 0 0
0 0 0
0 0 0
0 0 0
0 0 0
0 0 0
0 0 0
0 0 0
0 0 0
0 0 0
0 0 0
0 0 0
0 0 0
0 0 0
0 0 0
0 0 0
0 0 0
0 9 10
0 15 12
0 9 13
0 9 13
0 9 13
0 3 14
0 3 14
0 3 14
0 3 14
0 3 14
0 3 14
0 3 14
0 3 14
0 3 14
0 3 14
0 3 14
0 3 14
0 3 14
0 3 14
0 6 14
0 6 14
0 6 14
0 6 14
0 9 13
0 9 13
0 9 13
0 9 13
0 9 13
0 12 13
0 12 13
0 15 12
0 15 12
0 3 8
1 12 1
0 12 7
0 12 10
0 3 8
0 15 6
0 15 9
0 12 10
0 9 10
0 9 10
0 3 8
1 9 13
0 0 0
0 0 0
0 0 0
0 0 0
0 0 0
0 0 0
0 0 0
0 0 0
0 0 0
0 0 0
0 0 0
0 0 0
0 0 0
0 0 0
0 0 0
0 0 0
0 0 0
0 0 0
0 0 0
0 0 0
0 12 7
0 15 12
0 9 13
0 9 13
0 6 14
0 3 14
0 3 14
0 3 14
0 3 14
0 3 14
0 3 14
0 3 14
0 3 14
0 3 14
0 3 14
0 3 14
0 3 14
0 3 14
0 3 14
0 3 14
0 6 14
0 6 14
0 6 14
0 6 14
0 6 14
0 9 13
0 9 13
0 9 13
0 9 13
0 12 13
0 12 13
0 15 12
0 3 8
0 6 11
0 3 11
0 3 11
0 9 10
0 6 11
0 3 11
0 3 11
0 3 11
0 6 11
0 12 10
0 9 4
0 0 0
0 0 0
0 0 0
0 0 0
0 0 0
0 0 0
0 0 0
0 0 0
0 0 0
0 0 0
0 0 0
0 0 0
0 0 0
0 0 0
0 0 0
0 0 0
0 0 0
0 0 0
0 0 0
0 15 3
0 15 6
0 15 12
0 9 13
0 9 13
0 6 14
0 3 14
0 3 14
0 3 14
0 3 14
0 3 14
0 3 14
0 3 14
0 3 14
0 3 14
0 3 14
0 3 14
0 3 14
0 3 14
0 3 14
0 3 14
0 6 14
0 6 14
0 6 14
0 6 14
0 6 14
0 6 14
0 6 14
0 6 14
0 9 13
0 9 13
0 9 13
0 15 12
0 6 11
0 15 12
0 15 12
0 15 12
0 15 12
0 15 12
0 15 12
0 15 12
0 3 11
0 3 11
0 6 11
0 12 4
0 0 0
0 0 0
0 0 0
0 0 0
0 0 0
0 0 0
0 0 0
0 0 0
0 0 0
0 0 0
0 0 0
0 0 0
0 0 0
0 0 0
0 0 0
0 0 0
0 0 0
0 0 0
5 8 13
0 9 10
0 3 11
0 12 13
0 9 13
0 9 13
0 6 14
0 3 14
0 3 14
0 3 14
0 3 14
0 3 14
0 3 14
0 3 14
0 3 14
0 3 14
0 3 14
0 3 14
0 3 14
0 3 14
0 3 14
0 3 14
0 3 14
0 6 14
0 6 14
0 6 14
0 6 14
0 6 14
0 6 14
0 6 14
0 6 14
0 6 14
0 9 13
0 9 13
0 12 13
0 12 13
0 12 13
0 12 13
0 12 13
0 12 13
0 12 13
0 15 12
0 15 12
0 15 12
0 3 11
0 3 8
0 12 7
8 13 12
0 0 0
0 0 0
0 0 0
0 0 0
0 0 0
0 0 0
0 0 0
0 0 0
0 0 0
0 0 0
0 0 0
0 0 0
0 0 0
0 0 0
0 0 0
10 13 12
0 6 8
0 6 11
0 15 12
0 12 13
0 9 13
0 9 13
0 6 14
0 3 14
0 3 14
0 3 14
0 3 14
0 3 14
0 3 14
0 3 14
0 3 14
0 3 14
0 3 14
0 3 14
0 3 14
0 3 14
0 3 14
0 3 14
0 3 14
0 6 14
0 6 14
0 6 14
0 6 14
0 6 14
0 6 14
0 6 14
0 6 14
0 6 14
0 6 14
0 6 14
0 9 13
0 9 13
0 12 13
0 12 13
0 12 13
0 12 13
0 12 13
0 12 13
0 12 13
0 15 12
0 15 12
0 6 11
0 9 10
0 6 8
0 0 0
0 0 0
0 0 0
0 0 0
0 0 0
0 0 0
0 0 0
0 0 0
0 0 0
0 0 0
0 0 0
0 0 0
0 0 0
0 0 0
0 0 0
0 0 0
6 8 13
0 9 10
0 15 12
0 12 13
0 9 13
0 6 14
0 6 14
0 3 14
0 3 14
0 3 14
0 3 14
0 3 14
0 3 14
0 3 14
0 3 14
0 3 14
0 3 14
0 3 14
0 3 14
0 3 14
0 3 14
0 3 14
0 3 14
0 3 14
0 6 14
0 6 14
0 6 14
0 6 14
0 6 14
0 6 14
0 6 14
0 6 14
0 6 14
0 6 14
0 6 14
0 6 14
0 9 13
0 9 13
0 9 13
0 12 13
0 12 13
0 12 13
0 12 13
0 12 13
0 15 12
0 3 11
0 9 10
0 15 6
0 0 0
9 13 3
0 0 0
0 0 0
0 0 0
0 0 0
0 0 0
0 0 0
0 0 0
0 0 0
0 0 0
0 0 0
0 0 0
1 12 4
0 6 8
0 0 0
2 6 5
0 15 6
0 15 12
0 12 13
0 9 13
0 6 14
0 6 14
0 3 14
0 3 14
0 3 14
0 3 14
0 3 14
0 3 14
0 3 14
0 3 14
0 3 14
0 3 14
0 3 14
0 3 14
0 3 14
0 3 14
0 3 14
0 3 14
0 3 14
0 6 14
0 6 14
0 6 14
0 6 14
0 6 14
0 6 14
0 6 14
0 6 14
0 6 14
0 6 14
0 6 14
0 6 14
0 6 14
0 9 13
0 9 13
0 9 13
0 9 13
0 12 13
0 12 13
0 12 13
0 12 13
0 15 12
0 9 10
1 9 1
0 15 6
0 3 8
0 3 8
0 0 0
3 14 6
0 0 0
0 0 0
0 0 0
0 0 0
0 0 0
0 0 0
2 15 12
1 6 14
1 12 7
0 9 10
0 9 10
0 12 10
0 9 10
0 12 13
0 9 13
0 6 14
0 6 14
0 6 14
0 3 14
0 3 14
0 3 14
0 3 14
0 3 14
0 3 14
0 3 14
0 3 14
0 3 14
0 3 14
0 3 14
0 3 14
0 3 14
0 3 14
0 3 14
0 3 14
0 3 14
0 3 14
0 6 14
0 6 14
0 6 14
0 6 14
0 6 14
0 6 14
0 6 14
0 6 14
0 6 14
0 6 14
0 6 14
0 6 14
0 6 14
0 9 13
0 9 13
0 9 13
0 9 13
0 9 13
0 9 13
0 12 13
0 12 13
0 9 10
0 6 11
1 15 0
0 6 11
0 6 11
0 12 10
0 12 10
0 6 8
0 0 0
0 0 0
0 0 0
2 12 13
0 3 8
0 9 10
0 9 10
0 3 11
0 15 12
0 15 12
0 3 11
0 3 11
0 9 13
0 9 13
0 6 14
0 6 14
0 6 14
0 3 14
0 3 14
0 3 14
0 3 14
0 3 14
0 3 14
0 3 14
0 3 14
0 3 14
0 3 14
0 3 14
0 3 14
0 3 14
0 3 14
0 3 14
0 3 14
0 3 14
0 3 14
0 6 14
0 6 14
0 6 14
0 6 14
0 6 14
0 6 14
0 6 14
0 6 14
0 6 14
0 6 14
0 6 14
0 6 14
0 6 14
0 6 14
0 6 14
0 9 13
0 9 13
0 9 13
0 9 13
0 9 13
0 9 13
0 12 13
0 15 12
0 15 12
0 15 12
0 3 11
0 3 11
0 9 10
0 9 7
0 0 0
0 0 0
0 0 0
0 0 0
1 12 1
0 6 11
0 3 11
0 15 12
0 15 12
0 12 13
0 12 13
0 9 13
0 9 13
0 6 14
0 6 14
0 6 14
0 6 14
0 3 14
0 3 14
0 3 14
0 3 14
0 3 14
0 3 14
0 3 14
0 3 14
0 3 14
0 3 14
0 3 14
0 3 14
0 3 14
0 3 14
0 3 14
0 3 14
0 3 14
0 3 14
0 3 14
0 6 14
0 6 14
0 6 14
0 6 14
0 6 14
0 6 14
0 6 14
0 6 14
0 6 14
0 6 14
0 6 14
0 6 14
0 6 14
0 6 14
0 6 14
0 9 13
0 9 13
0 9 13
0 9 13
0 9 13
0 9 13
0 12 13
0 12 13
0 15 12
0 15 12
0 3 11
0 6 11
0 3 8
0 0 0
0 0 0
0 0 0
2 9 10
0 9 7
0 3 11
0 15 12
0 12 13
0 12 13
0 12 13
0 9 13
0 9 13
0 9 13
0 6 14
0 6 14
0 6 14
0 6 14
0 3 14
0 3 14
0 3 14
0 3 14
0 3 14
0 3 14
0 3 14
0 3 14
0 3 14
0 3 14
0 3 14
0 3 14
0 3 14
0 3 14
0 3 14
0 3 14
0 3 14
0 3 14
0 3 14
0 3 14
0 6 14
0 6 14
0 6 14
0 6 14
0 6 14
0 6 14
0 6 14
0 6 14
0 6 14
0 6 14
0 6 14
0 6 14
0 6 14
0 6 14
0 6 14
0 9 13
0 9 13
0 9 13
0 9 13
0 9 13
0 9 13
0 9 13
0 12 13
0 12 13
0 15 12
0 6 11
1 3 14
0 9 7
1 6 2
0 0 0
0 9 7
0 3 5
0 15 12
0 12 13
0 12 13
0 12 13
0 9 13
0 9 13
0 9 13
0 6 14
0 6 14
0 6 14
0 6 14
0 6 14
0 3 14
0 3 14
0 3 14
0 3 14
0 3 14
0 3 14
0 3 14
0 3 14
0 3 14
0 3 14
0 3 14
0 3 14
0 3 14
0 3 14
0 3 14
0 3 14
0 3 14
0 3 14
0 3 14
0 3 14
0 3 14
0 6 14
0 6 14
0 6 14
0 6 14
0 6 14
0 6 14
0 6 14
0 6 14
0 6 14
0 6 14
0 6 14
0 6 14
0 6 14
0 6 14
0 6 14
0 9 13
0 9 13
0 9 13
0 9 13
0 9 13
0 9 13
0 9 13
0 12 13
0 12 13
0 15 12
0 3 11
0 9 10
1 12 13
0 12 4
0 12 10
0 3 11
0 15 12
0 12 13
0 9 13
0 9 13
0 9 13
0 9 13
0 6 14
0 6 14
0 6 14
0 6 14
0 6 14
0 3 14
0 3 14
0 3 14
0 3 14
0 3 14
0 3 14
0 3 14
0 3 14
0 3 14
0 3 14
0 3 14
0 3 14
0 3 14
0 3 14
0 3 14
0 3 14
0 3 14
0 3 14
0 3 14
0 3 14
0 3 14
0 3 14
0 3 14
0 6 14
0 6 14
0 6 14
0 6 14
0 6 14
0 6 14
0 6 14
0 6 14
0 6 14
0 6 14
0 6 14
0 6 14
0 6 14
0 6 14
0 6 14
0 9 13
0 9 13
0 9 13
0 9 13
0 9 13
0 9 13
0 9 13
0 12 13
0 12 13
0 15 12
0 6 11
0 12 10
0 12 4
0 9 10
0 3 11
0 12 13
0 9 13
0 9 13
0 9 13
0 9 13
0 6 14
0 6 14
0 6 14
0 6 14
0 6 14
0 3 14
0 3 14
0 3 14
0 3 14
0 3 14
0 3 14
0 3 14
0 3 14
0 3 14
0 3 14
0 3 14
0 3 14
0 3 14
0 3 14
0 3 14
0 3 14
0 3 14
0 3 14
0 3 14
0 3 14
0 3 14
0 3 14
0 3 14
0 3 14
0 3 14
0 6 14
0 6 14
0 6 14
0 6 14
0 6 14
0 6 14
0 6 14
0 6 14
0 6 14
0 6 14
0 6 14
0 6 14
0 6 14
0 6 14
0 6 14
0 6 14
0 9 13
0 9 13
0 9 13
0 9 13
0 9 13
0 12 13
0 12 13
0 15 12
0 3 11
0 3 8
0 9 10
0 9 10
0 15 12
0 9 13
0 9 13
0 9 13
0 9 13
0 6 14
0 6 14
0 6 14
0 6 14
0 3 14
0 3 14
0 3 14
0 3 14
0 3 14
0 3 14
0 3 14
0 3 14
0 3 14
0 3 14
0 3 14
0 3 14
0 3 14
0 3 14
0 3 14
0 3 14
0 3 14
0 3 14
0 3 14
0 3 14
0 3 14
0 3 14
0 3 14
0 3 14
0 3 14
0 3 14
0 3 14
0 3 14
0 3 14
0 6 14
0 6 14
0 6 14
0 6 14
0 6 14
0 6 14
0 6 14
0 6 14
0 6 14
0 6 14
0 6 14
0 6 14
0 6 14
0 6 14
0 6 14
0 9 13
0 9 13
0 9 13
0 9 13
0 9 13
0 12 13
0 12 13
0 6 11
0 9 10
0 15 12
0 15 12
0 9 13
0 9 13
0 9 13
0 9 13
0 6 14
0 6 14
0 6 14
0 6 14
0 3 14
0 3 14
0 3 14
0 3 14
0 3 14
0 3 14
0 3 14
0 3 14
0 3 14
0 3 14
0 3 14
0 3 14
0 3 14
0 3 14
0 3 14
0 3 14
0 3 14
0 3 14
0 3 14
0 3 14
0 3 14
0 3 14
0 3 14
0 3 14
0 3 14
0 3 14
0 3 14
0 3 14
0 3 14
0 3 14
0 3 14
0 3 14
0 6 14
0 6 14
0 6 14
0 6 14
0 6 14
0 6 14
0 6 14
0 6 14
0 6 14
0 6 14
0 6 14
0 6 14
0 6 14
0 6 14
0 6 14
0 9 13
0 9 13
0 9 13
0 9 13
0 12 13
0 9 10
0 15 12
0 12 13
0 9 13
0 9 13
0 9 13
0 6 14
0 6 14
0 6 14
0 6 14
0 3 14
0 3 14
0 3 14
0 3 14
0 3 14
0 3 14
0 3 14
0 3 14
0 3 14
0 3 14
0 3 14
0 3 14
0 3 14
0 3 14
0 3 14
0 3 14
0 3 14
0 3 14
0 3 14
0 3 14
0 3 14
0 3 14
0 3 14
0 3 14
0 3 14
0 3 14
0 3 14
0 3 14
0 3 14
0 3 14
0 3 14
0 3 14
0 3 14
0 3 14
0 3 14
0 3 14
0 6 14
0 6 14
0 6 14
0 6 14
0 6 14
0 6 14
0 6 14
0 6 14
0 6 14
0 6 14
0 6 14
0 6 14
0 6 14
0 6 14
0 6 14
0 6 14
0 6 14
0 9 13
0 9 13
0 9 13
0 9 13
0 6 14
0 6 14
0 6 14
0 6 14
0 6 14
0 3 14
0 3 14
0 3 14
0 3 14
0 3 14
0 3 14
0 3 14
0 3 14
0 3 14
0 3 14
0 3 14
0 3 14
0 3 14
0 3 14
0 3 14
0 3 14
0 3 14
0 3 14
0 3 14
0 3 14
0 3 14
0 3 14
0 3 14
0 3 14
0 3 14
0 3 14
0 3 14
0 3 14
0 3 14
0 3 14
0 3 14
0 3 14
0 3 14
0 3 14
0 3 14
0 3 14
0 3 14
0 3 14
0 3 14
0 3 14
0 6 14
0 6 14
0 6 14
0 6 14
0 6 14
0 6 14
0 6 14
0 6 14
0 6 14
0 6 14
0 6 14
0 6 14
0 6 14
0 6 14
0 6 14
0 6 14
0 6 14
0 6 14
0 6 14
0 6 14
0 6 14
0 6 14
0 3 14
0 3 14
0 3 14
0 3 14
0 3 14
0 3 14
0 3 14
0 3 14
0 3 14
0 3 14
0 3 14
