P3
80 60
255
83 58 230
83 58 230
83 58 230
83 58 230
83 58 230
83 58 230
83 58 230
83 58 230
83 58 230
83 58 230
83 58 230
83 58 230
83 58 230
83 58 230
83 58 230
83 58 230
83 58 230
83 58 230
83 58 230
83 58 230
83 58 230
83 58 230
83 58 230
83 58 230
83 58 230
83 58 230
83 58 230
83 58 230
83 58 230
83 58 230
83 58 230
83 58 230
83 58 230
83 58 230
151 67 230
151 67 230
151 67 230
151 67 230
151 67 230
151 67 230
151 67 230
151 67 230
151 67 230
151 67 230
151 67 230
151 67 230
151 67 230
151 67 230
151 67 230
151 67 230
151 67 230
151 67 230
151 67 230
151 67 230
83 58 230
83 58 230
83 58 230
83 58 230
83 58 230
83 58 230
83 58 230
83 58 230
83 58 230
83 58 230
83 58 230
83 58 230
83 58 230
83 58 230
83 58 230
83 58 230
83 58 230
83 58 230
83 58 230
83 58 230
83 58 230
83 58 230
83 58 230
83 58 230
83 58 230
83 58 230
83 58 230
83 58 230
83 58 230
83 58 230
83 58 230
83 58 230
83 58 230
83 58 230
83 58 230
83 58 230
83 58 230
83 58 230
83 58 230
83 58 230
83 58 230
83 58 230
83 58 230
83 58 230
83 58 230
83 58 230
83 58 230
83 58 230
83 58 230
83 58 230
83 58 230
83 58 230
83 58 230
83 58 230
83 58 230
83 58 230
83 58 230
151 67 230
151 67 230
151 67 230
151 67 230
151 67 230
151 67 230
151 67 230
151 67 230
151 67 230
151 67 230
151 67 230
151 67 230
151 67 230
151 67 230
151 67 230
151 67 230
151 67 230
151 67 230
151 67 230
151 67 230
151 67 230
151 67 230
151 67 230
151 67 230
151 67 230
151 67 230
83 58 230
83 58 230
83 58 230
83 58 230
83 58 230
83 58 230
83 58 230
83 58 230
83 58 230
83 58 230
83 58 230
83 58 230
83 58 230
83 58 230
83 58 230
83 58 230
83 58 230
83 58 230
83 58 230
83 58 230
83 58 230
83 58 230
83 58 230
83 58 230
83 58 230
83 58 230
83 58 230
83 58 230
83 58 230
83 58 230
83 58 230
83 58 230
83 58 230
83 58 230
83 58 230
83 58 230
83 58 230
83 58 230
83 58 230
83 58 230
83 58 230
83 58 230
83 58 230
83 58 230
83 58 230
83 58 230
83 58 230
83 58 230
83 58 230
83 58 230
83 58 230
151 67 230
151 67 230
151 67 230
151 67 230
151 67 230
151 67 230
151 67 230
151 67 230
151 67 230
151 67 230
151 67 230
151 67 230
151 67 230
151 67 230
151 67 230
151 67 230
151 67 230
151 67 230
151 67 230
151 67 230
151 67 230
151 67 230
151 67 230
151 67 230
151 67 230
151 67 230
151 67 230
151 67 230
151 67 230
151 67 230
151 67 230
151 67 230
83 58 230
83 58 230
83 58 230
83 58 230
83 58 230
83 58 230
83 58 230
83 58 230
83 58 230
83 58 230
83 58 230
83 58 230
83 58 230
83 58 230
83 58 230
83 58 230
83 58 230
83 58 230
83 58 230
83 58 230
83 58 230
83 58 230
83 58 230
83 58 230
83 58 230
83 58 230
83 58 230
83 58 230
83 58 230
83 58 230
83 58 230
83 58 230
83 58 230
83 58 230
83 58 230
83 58 230
83 58 230
83 58 230
83 58 230
83 58 230
83 58 230
83 58 230
83 58 230
83 58 230
83 58 230
83 58 230
151 67 230
151 67 230
151 67 230
151 67 230
151 67 230
151 67 230
151 67 230
151 67 230
151 67 230
151 67 230
151 67 230
151 67 230
151 67 230
151 67 230
151 67 230
151 67 230
151 67 230
151 67 230
151 67 230
151 67 230
151 67 230
192 72 230
192 72 230
192 72 230
192 72 230
222 76 230
222 76 230
192 72 230
192 72 230
192 72 230
192 72 230
151 67 230
151 67 230
151 67 230
151 67 230
151 67 230
83 58 230
83 58 230
83 58 230
83 58 230
83 58 230
83 58 230
83 58 230
83 58 230
83 58 230
83 58 230
83 58 230
83 58 230
83 58 230
83 58 230
83 58 230
83 58 230
83 58 230
83 58 230
83 58 230
83 58 230
83 58 230
83 58 230
83 58 230
83 58 230
83 58 230
83 58 230
83 58 230
83 58 230
83 58 230
83 58 230
83 58 230
83 58 230
83 58 230
83 58 230
83 58 230
83 58 230
83 58 230
83 58 230
83 58 230
83 58 230
83 58 230
83 58 230
151 67 230
151 67 230
151 67 230
151 67 230
151 67 230
151 67 230
151 67 230
151 67 230
151 67 230
151 67 230
151 67 230
151 67 230
151 67 230
151 67 230
151 67 230
151 67 230
151 67 230
151 67 230
151 67 230
151 67 230
192 72 230
192 72 230
192 72 230
192 72 230
192 72 230
222 76 230
230 83 196
230 85 180
230 80 214
222 76 230
222 76 230
192 72 230
192 72 230
192 72 230
192 72 230
151 67 230
151 67 230
151 67 230
151 67 230
151 67 230
83 58 230
83 58 230
83 58 230
83 58 230
83 58 230
83 58 230
83 58 230
83 58 230
83 58 230
83 58 230
83 58 230
83 58 230
83 58 230
83 58 230
83 58 230
83 58 230
83 58 230
83 58 230
83 58 230
83 58 230
83 58 230
83 58 230
83 58 230
83 58 230
83 58 230
83 58 230
83 58 230
83 58 230
83 58 230
83 58 230
83 58 230
83 58 230
83 58 230
83 58 230
83 58 230
83 58 230
83 58 230
83 58 230
83 58 230
151 67 230
151 67 230
151 67 230
151 67 230
151 67 230
151 67 230
151 67 230
151 67 230
151 67 230
151 67 230
151 67 230
151 67 230
151 67 230
151 67 230
151 67 230
151 67 230
151 67 230
151 67 230
151 67 230
192 72 230
192 72 230
192 72 230
192 72 230
192 72 230
192 72 230
222 76 230
222 76 230
230 80 214
230 92 144
230 85 180
230 80 214
230 80 214
222 76 230
192 72 230
192 72 230
192 72 230
192 72 230
192 72 230
151 67 230
151 67 230
151 67 230
151 67 230
83 58 230
83 58 230
83 58 230
83 58 230
83 58 230
83 58 230
83 58 230
83 58 230
83 58 230
83 58 230
83 58 230
83 58 230
83 58 230
83 58 230
83 58 230
83 58 230
83 58 230
83 58 230
83 58 230
83 58 230
83 58 230
83 58 230
83 58 230
83 58 230
83 58 230
83 58 230
83 58 230
83 58 230
83 58 230
83 58 230
83 58 230
83 58 230
83 58 230
83 58 230
83 58 230
83 58 230
151 67 230
151 67 230
151 67 230
151 67 230
151 67 230
151 67 230
151 67 230
151 67 230
151 67 230
151 67 230
151 67 230
151 67 230
151 67 230
151 67 230
151 67 230
151 67 230
151 67 230
151 67 230
151 67 230
192 72 230
192 72 230
192 72 230
192 72 230
192 72 230
192 72 230
192 72 230
222 76 230
222 76 230
222 76 230
230 80 214
230 118 103
230 98 112
230 85 180
230 83 196
230 92 144
222 76 230
192 72 230
192 72 230
192 72 230
192 72 230
192 72 230
151 67 230
151 67 230
151 67 230
151 67 230
151 67 230
83 58 230
83 58 230
83 58 230
83 58 230
83 58 230
83 58 230
83 58 230
83 58 230
83 58 230
83 58 230
83 58 230
83 58 230
83 58 230
83 58 230
83 58 230
83 58 230
83 58 230
83 58 230
83 58 230
83 58 230
83 58 230
83 58 230
83 58 230
83 58 230
83 58 230
83 58 230
83 58 230
83 58 230
83 58 230
83 58 230
83 58 230
83 58 230
83 58 230
151 67 230
151 67 230
151 67 230
151 67 230
151 67 230
151 67 230
151 67 230
151 67 230
151 67 230
151 67 230
151 67 230
151 67 230
151 67 230
151 67 230
151 67 230
151 67 230
151 67 230
151 67 230
151 67 230
192 72 230
192 72 230
192 72 230
192 72 230
192 72 230
192 72 230
192 72 230
222 76 230
222 76 230
222 76 230
230 80 214
230 83 196
230 85 180
230 150 108
230 94 135
230 97 119
230 85 180
230 80 214
222 76 230
192 72 230
192 72 230
192 72 230
192 72 230
192 72 230
151 67 230
151 67 230
151 67 230
151 67 230
151 67 230
83 58 230
83 58 230
83 58 230
83 58 230
83 58 230
83 58 230
83 58 230
83 58 230
83 58 230
83 58 230
83 58 230
83 58 230
83 58 230
83 58 230
83 58 230
83 58 230
83 58 230
83 58 230
83 58 230
83 58 230
83 58 230
83 58 230
83 58 230
83 58 230
83 58 230
83 58 230
83 58 230
83 58 230
83 58 230
83 58 230
83 58 230
151 67 230
151 67 230
151 67 230
151 67 230
151 67 230
151 67 230
151 67 230
151 67 230
151 67 230
151 67 230
151 67 230
151 67 230
151 67 230
151 67 230
151 67 230
151 67 230
151 67 230
151 67 230
151 67 230
192 72 230
192 72 230
192 72 230
192 72 230
192 72 230
192 72 230
192 72 230
192 72 230
222 76 230
222 76 230
222 76 230
230 80 214
230 83 196
230 85 180
230 92 144
230 103 101
230 90 155
230 83 196
230 80 214
222 76 230
222 76 230
192 72 230
192 72 230
192 72 230
192 72 230
192 72 230
151 67 230
151 67 230
151 67 230
151 67 230
151 67 230
83 58 230
83 58 230
83 58 230
83 58 230
83 58 230
83 58 230
83 58 230
83 58 230
83 58 230
83 58 230
83 58 230
83 58 230
83 58 230
83 58 230
83 58 230
83 58 230
83 58 230
83 58 230
83 58 230
83 58 230
83 58 230
83 58 230
83 58 230
83 58 230
83 58 230
83 58 230
83 58 230
83 58 230
83 58 230
151 67 230
151 67 230
151 67 230
151 67 230
151 67 230
151 67 230
151 67 230
151 67 230
151 67 230
151 67 230
151 67 230
151 67 230
151 67 230
151 67 230
151 67 230
151 67 230
151 67 230
151 67 230
192 72 230
192 72 230
192 72 230
192 72 230
192 72 230
192 72 230
192 72 230
192 72 230
192 72 230
222 76 230
222 76 230
222 76 230
230 80 214
230 83 196
230 88 166
230 94 135
230 206 119
230 188 115
230 95 126
230 85 180
230 83 196
222 76 230
222 76 230
222 76 230
192 72 230
192 72 230
192 72 230
192 72 230
192 72 230
151 67 230
151 67 230
151 67 230
151 67 230
151 67 230
83 58 230
83 58 230
83 58 230
83 58 230
83 58 230
83 58 230
83 58 230
83 58 230
83 58 230
83 58 230
83 58 230
83 58 230
83 58 230
83 58 230
83 58 230
83 58 230
83 58 230
83 58 230
83 58 230
83 58 230
83 58 230
83 58 230
83 58 230
83 58 230
83 58 230
83 58 230
83 58 230
151 67 230
151 67 230
151 67 230
151 67 230
151 67 230
151 67 230
151 67 230
151 67 230
151 67 230
151 67 230
151 67 230
151 67 230
151 67 230
151 67 230
151 67 230
151 67 230
151 67 230
151 67 230
192 72 230
192 72 230
192 72 230
192 72 230
192 72 230
192 72 230
192 72 230
192 72 230
192 72 230
222 76 230
222 76 230
222 76 230
230 80 214
230 85 180
230 111 102
230 100 105
220 230 126
230 206 119
0 0 0
230 100 105
230 94 135
230 92 144
230 80 214
222 76 230
222 76 230
222 76 230
192 72 230
192 72 230
192 72 230
192 72 230
151 67 230
151 67 230
151 67 230
151 67 230
151 67 230
151 67 230
83 58 230
83 58 230
83 58 230
83 58 230
83 58 230
83 58 230
83 58 230
83 58 230
83 58 230
83 58 230
83 58 230
83 58 230
83 58 230
83 58 230
83 58 230
83 58 230
83 58 230
83 58 230
83 58 230
83 58 230
83 58 230
83 58 230
83 58 230
83 58 230
83 58 230
151 67 230
151 67 230
151 67 230
151 67 230
151 67 230
151 67 230
151 67 230
151 67 230
151 67 230
151 67 230
151 67 230
151 67 230
151 67 230
151 67 230
151 67 230
151 67 230
151 67 230
151 67 230
192 72 230
192 72 230
192 72 230
192 72 230
192 72 230
192 72 230
192 72 230
192 72 230
222 76 230
222 76 230
222 76 230
230 80 214
230 80 214
230 83 196
230 85 180
230 92 144
196 230 131
0 0 0
0 0 0
0 0 0
0 0 0
230 175 113
230 100 105
230 83 196
230 80 214
222 76 230
222 76 230
222 76 230
222 76 230
192 72 230
192 72 230
192 72 230
151 67 230
151 67 230
151 67 230
151 67 230
151 67 230
151 67 230
83 58 230
83 58 230
83 58 230
83 58 230
83 58 230
83 58 230
83 58 230
83 58 230
83 58 230
83 58 230
83 58 230
83 58 230
83 58 230
83 58 230
83 58 230
83 58 230
83 58 230
83 58 230
83 58 230
83 58 230
83 58 230
83 58 230
83 58 230
151 67 230
151 67 230
151 67 230
151 67 230
151 67 230
151 67 230
151 67 230
151 67 230
151 67 230
151 67 230
151 67 230
151 67 230
151 67 230
151 67 230
151 67 230
151 67 230
151 67 230
151 67 230
192 72 230
192 72 230
192 72 230
192 72 230
192 72 230
192 72 230
192 72 230
192 72 230
222 76 230
222 76 230
230 80 214
230 80 214
230 80 214
230 83 196
230 83 196
230 85 180
222 230 125
230 192 116
0 0 0
0 0 0
0 0 0
0 0 0
230 118 103
230 88 166
230 83 196
230 80 214
230 80 214
222 76 230
222 76 230
222 76 230
222 76 230
192 72 230
192 72 230
192 72 230
151 67 230
151 67 230
151 67 230
151 67 230
151 67 230
151 67 230
83 58 230
83 58 230
83 58 230
83 58 230
83 58 230
83 58 230
83 58 230
83 58 230
83 58 230
83 58 230
83 58 230
83 58 230
83 58 230
83 58 230
83 58 230
83 58 230
83 58 230
83 58 230
83 58 230
83 58 230
83 58 230
151 67 230
151 67 230
151 67 230
151 67 230
151 67 230
151 67 230
151 67 230
151 67 230
151 67 230
151 67 230
151 67 230
151 67 230
151 67 230
151 67 230
151 67 230
151 67 230
151 67 230
151 67 230
192 72 230
192 72 230
192 72 230
192 72 230
192 72 230
192 72 230
192 72 230
222 76 230
222 76 230
230 80 214
230 83 196
230 83 196
230 83 196
230 83 196
230 83 196
230 85 180
230 88 166
230 92 144
0 0 0
0 0 0
0 0 0
0 0 0
0 0 0
230 150 108
230 90 155
230 85 180
230 83 196
230 80 214
230 80 214
230 80 214
230 80 214
230 80 214
222 76 230
192 72 230
192 72 230
151 67 230
151 67 230
151 67 230
151 67 230
151 67 230
151 67 230
151 67 230
83 58 230
83 58 230
83 58 230
83 58 230
83 58 230
83 58 230
83 58 230
83 58 230
83 58 230
83 58 230
83 58 230
83 58 230
83 58 230
83 58 230
83 58 230
83 58 230
83 58 230
83 58 230
83 58 230
83 58 230
151 67 230
151 67 230
151 67 230
151 67 230
151 67 230
151 67 230
151 67 230
151 67 230
151 67 230
151 67 230
151 67 230
151 67 230
151 67 230
151 67 230
151 67 230
151 67 230
151 67 230
192 72 230
192 72 230
192 72 230
192 72 230
192 72 230
192 72 230
222 76 230
222 76 230
222 76 230
230 83 196
230 138 106
230 97 119
230 184 114
230 88 166
230 88 166
230 188 115
230 103 101
230 92 144
230 95 126
230 103 101
0 0 0
0 0 0
0 0 0
0 0 0
230 97 119
230 94 135
230 90 155
230 90 155
230 88 166
230 83 196
230 83 196
230 83 196
230 85 180
230 94 135
230 80 214
192 72 230
192 72 230
151 67 230
151 67 230
151 67 230
151 67 230
151 67 230
151 67 230
83 58 230
83 58 230
83 58 230
83 58 230
83 58 230
83 58 230
83 58 230
83 58 230
83 58 230
83 58 230
83 58 230
83 58 230
83 58 230
83 58 230
83 58 230
83 58 230
83 58 230
83 58 230
83 58 230
151 67 230
151 67 230
151 67 230
151 67 230
151 67 230
151 67 230
151 67 230
151 67 230
151 67 230
151 67 230
151 67 230
151 67 230
151 67 230
151 67 230
151 67 230
151 67 230
192 72 230
192 72 230
192 72 230
192 72 230
192 72 230
192 72 230
222 76 230
222 76 230
222 76 230
222 76 230
230 80 214
230 83 196
230 92 144
230 195 117
230 100 105
230 166 111
230 92 144
230 111 102
0 0 0
182 230 135
230 209 119
0 0 0
0 0 0
0 0 0
0 0 0
0 0 0
0 0 0
189 230 133
230 118 103
0 0 0
0 0 0
230 88 166
230 85 180
230 88 166
230 90 155
230 95 126
230 83 196
222 76 230
192 72 230
151 67 230
151 67 230
151 67 230
151 67 230
151 67 230
151 67 230
151 67 230
83 58 230
83 58 230
83 58 230
83 58 230
83 58 230
83 58 230
83 58 230
83 58 230
83 58 230
83 58 230
83 58 230
83 58 230
83 58 230
83 58 230
83 58 230
83 58 230
83 58 230
151 67 230
151 67 230
151 67 230
151 67 230
151 67 230
151 67 230
151 67 230
151 67 230
151 67 230
151 67 230
151 67 230
151 67 230
151 67 230
151 67 230
151 67 230
151 67 230
192 72 230
192 72 230
192 72 230
192 72 230
222 76 230
222 76 230
222 76 230
222 76 230
222 76 230
222 76 230
230 80 214
230 80 214
230 83 196
230 90 155
230 118 103
0 0 0
0 0 0
230 103 101
189 230 133
0 0 0
0 0 0
0 0 0
0 0 0
0 0 0
0 0 0
0 0 0
0 0 0
0 0 0
0 0 0
0 0 0
0 0 0
230 111 102
230 94 135
230 95 126
230 132 105
230 125 104
230 171 112
230 85 180
222 76 230
192 72 230
192 72 230
151 67 230
151 67 230
151 67 230
151 67 230
151 67 230
151 67 230
151 67 230
83 58 230
83 58 230
83 58 230
83 58 230
83 58 230
83 58 230
83 58 230
83 58 230
83 58 230
83 58 230
83 58 230
83 58 230
83 58 230
83 58 230
83 58 230
83 58 230
151 67 230
151 67 230
151 67 230
151 67 230
151 67 230
151 67 230
151 67 230
151 67 230
151 67 230
151 67 230
151 67 230
151 67 230
151 67 230
151 67 230
151 67 230
192 72 230
192 72 230
192 72 230
222 76 230
222 76 230
222 76 230
222 76 230
222 76 230
222 76 230
222 76 230
230 80 214
230 80 214
230 83 196
230 85 180
230 88 166
230 161 110
0 0 0
0 0 0
0 0 0
0 0 0
0 0 0
0 0 0
0 0 0
0 0 0
0 0 0
0 0 0
0 0 0
0 0 0
0 0 0
0 0 0
0 0 0
0 0 0
0 0 0
0 0 0
0 0 0
0 0 0
0 0 0
230 92 144
230 83 196
222 76 230
222 76 230
192 72 230
151 67 230
151 67 230
151 67 230
151 67 230
151 67 230
151 67 230
151 67 230
83 58 230
83 58 230
83 58 230
83 58 230
83 58 230
83 58 230
83 58 230
83 58 230
83 58 230
83 58 230
83 58 230
83 58 230
83 58 230
83 58 230
83 58 230
151 67 230
151 67 230
151 67 230
151 67 230
151 67 230
151 67 230
151 67 230
151 67 230
151 67 230
151 67 230
151 67 230
151 67 230
151 67 230
151 67 230
192 72 230
192 72 230
222 76 230
222 76 230
222 76 230
222 76 230
222 76 230
222 76 230
222 76 230
222 76 230
222 76 230
230 80 214
230 80 214
230 80 214
230 85 180
230 90 155
230 92 144
230 98 112
230 221 122
0 0 0
0 0 0
0 0 0
0 0 0
0 0 0
0 0 0
0 0 0
0 0 0
0 0 0
0 0 0
0 0 0
0 0 0
0 0 0
0 0 0
0 0 0
0 0 0
0 0 0
0 0 0
0 0 0
0 0 0
230 90 155
230 83 196
222 76 230
222 76 230
192 72 230
192 72 230
151 67 230
151 67 230
151 67 230
151 67 230
151 67 230
151 67 230
151 67 230
83 58 230
83 58 230
83 58 230
83 58 230
83 58 230
83 58 230
83 58 230
83 58 230
83 58 230
83 58 230
83 58 230
83 58 230
83 58 230
83 58 230
151 67 230
151 67 230
151 67 230
151 67 230
151 67 230
151 67 230
151 67 230
151 67 230
151 67 230
151 67 230
151 67 230
151 67 230
192 72 230
192 72 230
222 76 230
222 76 230
222 76 230
222 76 230
222 76 230
222 76 230
222 76 230
222 76 230
222 76 230
230 80 214
230 80 214
230 80 214
230 80 214
230 83 196
230 150 108
230 144 107
230 111 102
0 0 0
0 0 0
0 0 0
0 0 0
0 0 0
0 0 0
0 0 0
0 0 0
0 0 0
0 0 0
0 0 0
0 0 0
0 0 0
0 0 0
0 0 0
0 0 0
0 0 0
0 0 0
0 0 0
0 0 0
0 0 0
230 95 126
230 88 166
230 83 196
230 80 214
222 76 230
192 72 230
192 72 230
151 67 230
151 67 230
151 67 230
151 67 230
151 67 230
151 67 230
151 67 230
83 58 230
83 58 230
83 58 230
83 58 230
83 58 230
83 58 230
83 58 230
83 58 230
83 58 230
83 58 230
83 58 230
83 58 230
83 58 230
83 58 230
151 67 230
151 67 230
151 67 230
151 67 230
151 67 230
151 67 230
151 67 230
151 67 230
151 67 230
192 72 230
192 72 230
192 72 230
192 72 230
222 76 230
230 90 155
230 85 180
230 80 214
230 80 214
230 80 214
230 80 214
230 80 214
230 80 214
230 80 214
230 80 214
230 83 196
230 83 196
230 83 196
230 85 180
230 92 144
185 230 134
0 0 0
0 0 0
0 0 0
0 0 0
0 0 0
0 0 0
0 0 0
0 0 0
0 0 0
0 0 0
0 0 0
0 0 0
0 0 0
0 0 0
0 0 0
0 0 0
0 0 0
0 0 0
0 0 0
0 0 0
0 0 0
0 0 0
230 227 123
230 90 155
230 85 180
230 83 196
222 76 230
192 72 230
192 72 230
151 67 230
151 67 230
151 67 230
151 67 230
151 67 230
151 67 230
151 67 230
151 67 230
83 58 230
83 58 230
83 58 230
83 58 230
83 58 230
83 58 230
83 58 230
83 58 230
83 58 230
83 58 230
83 58 230
83 58 230
151 67 230
151 67 230
151 67 230
151 67 230
151 67 230
151 67 230
151 67 230
192 72 230
192 72 230
192 72 230
192 72 230
192 72 230
222 76 230
222 76 230
230 80 214
230 85 180
230 100 105
230 85 180
230 83 196
230 83 196
230 85 180
230 98 112
230 85 180
230 83 196
230 83 196
230 83 196
230 83 196
230 85 180
230 88 166
227 230 124
230 224 122
0 0 0
0 0 0
0 0 0
0 0 0
0 0 0
0 0 0
0 0 0
0 0 0
0 0 0
0 0 0
0 0 0
0 0 0
0 0 0
0 0 0
0 0 0
0 0 0
0 0 0
0 0 0
0 0 0
0 0 0
0 0 0
0 0 0
0 0 0
230 97 119
230 92 144
230 111 102
222 76 230
192 72 230
192 72 230
192 72 230
151 67 230
151 67 230
151 67 230
151 67 230
151 67 230
151 67 230
151 67 230
83 58 230
83 58 230
83 58 230
83 58 230
83 58 230
83 58 230
83 58 230
83 58 230
83 58 230
83 58 230
83 58 230
83 58 230
151 67 230
151 67 230
151 67 230
151 67 230
151 67 230
192 72 230
192 72 230
192 72 230
192 72 230
192 72 230
192 72 230
222 76 230
222 76 230
222 76 230
230 80 214
230 88 166
230 98 112
230 90 155
230 90 155
230 88 166
230 88 166
230 100 105
230 90 155
230 88 166
230 85 180
230 85 180
230 85 180
230 88 166
230 92 144
0 0 0
0 0 0
0 0 0
0 0 0
0 0 0
0 0 0
0 0 0
0 0 0
0 0 0
0 0 0
0 0 0
0 0 0
0 0 0
0 0 0
0 0 0
0 0 0
0 0 0
0 0 0
0 0 0
0 0 0
0 0 0
0 0 0
0 0 0
0 0 0
0 0 0
0 0 0
0 0 0
230 95 126
230 80 214
192 72 230
192 72 230
192 72 230
151 67 230
151 67 230
151 67 230
151 67 230
151 67 230
151 67 230
151 67 230
83 58 230
83 58 230
83 58 230
83 58 230
83 58 230
83 58 230
83 58 230
83 58 230
83 58 230
83 58 230
83 58 230
83 58 230
151 67 230
151 67 230
151 67 230
192 72 230
192 72 230
192 72 230
192 72 230
192 72 230
192 72 230
192 72 230
222 76 230
222 76 230
222 76 230
230 80 214
230 80 214
230 85 180
230 90 155
230 98 112
230 218 121
230 111 102
230 94 135
230 100 105
230 195 117
230 97 119
230 94 135
230 88 166
230 88 166
230 90 155
230 95 126
230 175 113
0 0 0
0 0 0
0 0 0
0 0 0
0 0 0
0 0 0
0 0 0
0 0 0
0 0 0
0 0 0
0 0 0
0 0 0
0 0 0
0 0 0
0 0 0
0 0 0
0 0 0
0 0 0
0 0 0
0 0 0
0 0 0
0 0 0
0 0 0
0 0 0
0 0 0
230 92 144
230 83 196
230 80 214
192 72 230
192 72 230
192 72 230
151 67 230
151 67 230
151 67 230
151 67 230
151 67 230
151 67 230
151 67 230
83 58 230
83 58 230
83 58 230
83 58 230
83 58 230
83 58 230
83 58 230
83 58 230
83 58 230
83 58 230
83 58 230
151 67 230
151 67 230
151 67 230
192 72 230
192 72 230
192 72 230
192 72 230
192 72 230
192 72 230
192 72 230
222 76 230
222 76 230
222 76 230
222 76 230
230 80 214
230 83 196
230 85 180
230 88 166
230 97 119
0 0 0
0 0 0
230 150 108
0 0 0
0 0 0
230 184 114
230 229 123
230 103 101
230 92 144
230 94 135
230 100 105
0 0 0
0 0 0
0 0 0
0 0 0
0 0 0
0 0 0
0 0 0
0 0 0
0 0 0
0 0 0
0 0 0
0 0 0
0 0 0
0 0 0
0 0 0
0 0 0
0 0 0
0 0 0
0 0 0
0 0 0
0 0 0
0 0 0
0 0 0
0 0 0
0 0 0
0 0 0
230 92 144
230 83 196
222 76 230
192 72 230
192 72 230
192 72 230
151 67 230
151 67 230
151 67 230
151 67 230
151 67 230
151 67 230
151 67 230
151 67 230
83 58 230
83 58 230
83 58 230
83 58 230
83 58 230
83 58 230
83 58 230
83 58 230
83 58 230
83 58 230
151 67 230
151 67 230
192 72 230
192 72 230
192 72 230
192 72 230
192 72 230
192 72 230
192 72 230
222 76 230
222 76 230
222 76 230
222 76 230
230 80 214
230 83 196
230 83 196
230 88 166
230 92 144
230 98 112
230 188 115
0 0 0
0 0 0
0 0 0
0 0 0
0 0 0
0 0 0
0 0 0
230 100 105
230 97 119
213 230 127
0 0 0
0 0 0
0 0 0
0 0 0
0 0 0
0 0 0
0 0 0
0 0 0
0 0 0
0 0 0
0 0 0
0 0 0
0 0 0
0 0 0
0 0 0
0 0 0
0 0 0
0 0 0
0 0 0
0 0 0
0 0 0
0 0 0
0 0 0
0 0 0
0 0 0
0 0 0
0 0 0
230 83 196
222 76 230
192 72 230
192 72 230
192 72 230
151 67 230
151 67 230
151 67 230
151 67 230
151 67 230
151 67 230
151 67 230
151 67 230
83 58 230
83 58 230
83 58 230
83 58 230
83 58 230
83 58 230
83 58 230
83 58 230
83 58 230
83 58 230
151 67 230
192 72 230
192 72 230
192 72 230
192 72 230
192 72 230
192 72 230
192 72 230
222 76 230
222 76 230
222 76 230
222 76 230
230 80 214
230 85 180
230 85 180
230 88 166
230 90 155
230 224 122
230 175 113
0 0 0
0 0 0
0 0 0
0 0 0
0 0 0
0 0 0
0 0 0
0 0 0
0 0 0
230 103 101
0 0 0
0 0 0
0 0 0
0 0 0
0 0 0
0 0 0
0 0 0
0 0 0
0 0 0
0 0 0
0 0 0
0 0 0
0 0 0
0 0 0
0 0 0
0 0 0
0 0 0
0 0 0
0 0 0
0 0 0
0 0 0
0 0 0
0 0 0
0 0 0
0 0 0
0 0 0
0 0 0
230 90 155
230 80 214
222 76 230
192 72 230
192 72 230
192 72 230
192 72 230
151 67 230
151 67 230
151 67 230
151 67 230
151 67 230
151 67 230
151 67 230
83 58 230
83 58 230
83 58 230
83 58 230
83 58 230
83 58 230
83 58 230
83 58 230
83 58 230
83 58 230
192 72 230
192 72 230
192 72 230
192 72 230
192 72 230
192 72 230
192 72 230
222 76 230
230 80 214
230 80 214
230 80 214
230 80 214
230 83 196
230 111 102
230 90 155
230 90 155
230 92 144
230 138 106
0 0 0
0 0 0
0 0 0
0 0 0
0 0 0
0 0 0
0 0 0
0 0 0
0 0 0
0 0 0
0 0 0
0 0 0
0 0 0
0 0 0
0 0 0
0 0 0
0 0 0
0 0 0
0 0 0
0 0 0
0 0 0
0 0 0
0 0 0
0 0 0
0 0 0
0 0 0
0 0 0
0 0 0
0 0 0
0 0 0
0 0 0
0 0 0
0 0 0
0 0 0
0 0 0
0 0 0
0 0 0
230 138 106
230 88 166
230 80 214
222 76 230
192 72 230
192 72 230
192 72 230
192 72 230
151 67 230
151 67 230
151 67 230
151 67 230
151 67 230
151 67 230
151 67 230
83 58 230
83 58 230
83 58 230
83 58 230
83 58 230
83 58 230
83 58 230
83 58 230
83 58 230
83 58 230
192 72 230
192 72 230
192 72 230
192 72 230
192 72 230
222 76 230
230 80 214
230 80 214
230 80 214
230 80 214
230 83 196
230 83 196
230 85 180
230 90 155
0 0 0
230 171 112
230 111 102
201 230 130
0 0 0
0 0 0
0 0 0
0 0 0
0 0 0
0 0 0
0 0 0
0 0 0
0 0 0
0 0 0
0 0 0
0 0 0
0 0 0
0 0 0
0 0 0
0 0 0
0 0 0
0 0 0
0 0 0
0 0 0
0 0 0
0 0 0
0 0 0
0 0 0
0 0 0
0 0 0
0 0 0
0 0 0
0 0 0
0 0 0
0 0 0
0 0 0
0 0 0
0 0 0
0 0 0
0 0 0
0 0 0
230 97 119
230 83 196
230 80 214
222 76 230
192 72 230
192 72 230
192 72 230
192 72 230
151 67 230
151 67 230
151 67 230
151 67 230
151 67 230
151 67 230
151 67 230
83 58 230
83 58 230
83 58 230
83 58 230
83 58 230
83 58 230
83 58 230
83 58 230
83 58 230
83 58 230
222 76 230
222 76 230
230 80 214
230 80 214
230 83 196
230 88 166
230 83 196
230 83 196
230 83 196
230 85 180
230 85 180
230 90 155
230 90 155
230 203 118
230 206 119
0 0 0
0 0 0
0 0 0
0 0 0
0 0 0
0 0 0
0 0 0
0 0 0
0 0 0
0 0 0
0 0 0
0 0 0
0 0 0
0 0 0
0 0 0
0 0 0
0 0 0
0 0 0
0 0 0
0 0 0
0 0 0
0 0 0
0 0 0
0 0 0
0 0 0
0 0 0
0 0 0
0 0 0
0 0 0
0 0 0
0 0 0
0 0 0
0 0 0
0 0 0
0 0 0
0 0 0
0 0 0
0 0 0
0 0 0
230 125 104
230 85 180
230 80 214
230 80 214
222 76 230
192 72 230
192 72 230
192 72 230
192 72 230
151 67 230
151 67 230
151 67 230
151 67 230
151 67 230
151 67 230
151 67 230
83 58 230
83 58 230
83 58 230
83 58 230
83 58 230
83 58 230
83 58 230
83 58 230
83 58 230
83 58 230
0 0 0
0 0 0
0 0 0
0 0 0
0 0 0
0 0 0
0 0 0
0 0 0
0 0 0
0 0 0
0 0 0
0 0 0
0 0 0
0 0 0
0 0 0
0 0 0
0 0 0
0 0 0
0 0 0
0 0 0
0 0 0
0 0 0
0 0 0
0 0 0
0 0 0
0 0 0
0 0 0
0 0 0
0 0 0
0 0 0
0 0 0
0 0 0
0 0 0
0 0 0
0 0 0
0 0 0
0 0 0
0 0 0
0 0 0
0 0 0
0 0 0
0 0 0
0 0 0
0 0 0
0 0 0
0 0 0
0 0 0
0 0 0
0 0 0
0 0 0
0 0 0
0 0 0
0 0 0
230 98 112
230 90 155
230 83 196
230 80 214
222 76 230
222 76 230
192 72 230
192 72 230
192 72 230
192 72 230
151 67 230
151 67 230
151 67 230
151 67 230
151 67 230
151 67 230
151 67 230
83 58 230
83 58 230
83 58 230
83 58 230
83 58 230
83 58 230
83 58 230
83 58 230
83 58 230
83 58 230
222 76 230
222 76 230
230 80 214
230 80 214
230 83 196
230 88 166
230 83 196
230 83 196
230 83 196
230 85 180
230 85 180
230 90 155
230 90 155
230 203 118
230 206 119
0 0 0
0 0 0
0 0 0
0 0 0
0 0 0
0 0 0
0 0 0
0 0 0
0 0 0
0 0 0
0 0 0
0 0 0
0 0 0
0 0 0
0 0 0
0 0 0
0 0 0
0 0 0
0 0 0
0 0 0
0 0 0
0 0 0
0 0 0
0 0 0
0 0 0
0 0 0
0 0 0
0 0 0
0 0 0
0 0 0
0 0 0
0 0 0
0 0 0
0 0 0
0 0 0
0 0 0
0 0 0
0 0 0
0 0 0
230 125 104
230 85 180
230 80 214
230 80 214
222 76 230
192 72 230
192 72 230
192 72 230
192 72 230
151 67 230
151 67 230
151 67 230
151 67 230
151 67 230
151 67 230
151 67 230
83 58 230
83 58 230
83 58 230
83 58 230
83 58 230
83 58 230
83 58 230
83 58 230
83 58 230
83 58 230
192 72 230
192 72 230
192 72 230
192 72 230
192 72 230
222 76 230
230 80 214
230 80 214
230 80 214
230 80 214
230 83 196
230 83 196
230 85 180
230 90 155
0 0 0
230 171 112
230 111 102
201 230 130
0 0 0
0 0 0
0 0 0
0 0 0
0 0 0
0 0 0
0 0 0
0 0 0
0 0 0
0 0 0
0 0 0
0 0 0
0 0 0
0 0 0
0 0 0
0 0 0
0 0 0
0 0 0
0 0 0
0 0 0
0 0 0
0 0 0
0 0 0
0 0 0
0 0 0
0 0 0
0 0 0
0 0 0
0 0 0
0 0 0
0 0 0
0 0 0
0 0 0
0 0 0
0 0 0
0 0 0
0 0 0
230 97 119
230 83 196
230 80 214
222 76 230
192 72 230
192 72 230
192 72 230
192 72 230
151 67 230
151 67 230
151 67 230
151 67 230
151 67 230
151 67 230
151 67 230
83 58 230
83 58 230
83 58 230
83 58 230
83 58 230
83 58 230
83 58 230
83 58 230
83 58 230
83 58 230
192 72 230
192 72 230
192 72 230
192 72 230
192 72 230
192 72 230
192 72 230
222 76 230
230 80 214
230 80 214
230 80 214
230 80 214
230 83 196
230 111 102
230 90 155
230 90 155
230 92 144
230 138 106
0 0 0
0 0 0
0 0 0
0 0 0
0 0 0
0 0 0
0 0 0
0 0 0
0 0 0
0 0 0
0 0 0
0 0 0
0 0 0
0 0 0
0 0 0
0 0 0
0 0 0
0 0 0
0 0 0
0 0 0
0 0 0
0 0 0
0 0 0
0 0 0
0 0 0
0 0 0
0 0 0
0 0 0
0 0 0
0 0 0
0 0 0
0 0 0
0 0 0
0 0 0
0 0 0
0 0 0
0 0 0
230 138 106
230 88 166
230 80 214
222 76 230
192 72 230
192 72 230
192 72 230
192 72 230
151 67 230
151 67 230
151 67 230
151 67 230
151 67 230
151 67 230
151 67 230
83 58 230
83 58 230
83 58 230
83 58 230
83 58 230
83 58 230
83 58 230
83 58 230
83 58 230
83 58 230
151 67 230
192 72 230
192 72 230
192 72 230
192 72 230
192 72 230
192 72 230
192 72 230
222 76 230
222 76 230
222 76 230
222 76 230
230 80 214
230 85 180
230 85 180
230 88 166
230 90 155
230 224 122
230 175 113
0 0 0
0 0 0
0 0 0
0 0 0
0 0 0
0 0 0
0 0 0
0 0 0
0 0 0
230 103 101
0 0 0
0 0 0
0 0 0
0 0 0
0 0 0
0 0 0
0 0 0
0 0 0
0 0 0
0 0 0
0 0 0
0 0 0
0 0 0
0 0 0
0 0 0
0 0 0
0 0 0
0 0 0
0 0 0
0 0 0
0 0 0
0 0 0
0 0 0
0 0 0
0 0 0
0 0 0
0 0 0
230 90 155
230 80 214
222 76 230
192 72 230
192 72 230
192 72 230
192 72 230
151 67 230
151 67 230
151 67 230
151 67 230
151 67 230
151 67 230
151 67 230
83 58 230
83 58 230
83 58 230
83 58 230
83 58 230
83 58 230
83 58 230
83 58 230
83 58 230
83 58 230
151 67 230
151 67 230
192 72 230
192 72 230
192 72 230
192 72 230
192 72 230
192 72 230
192 72 230
222 76 230
222 76 230
222 76 230
222 76 230
230 80 214
230 83 196
230 83 196
230 88 166
230 92 144
230 98 112
230 188 115
0 0 0
0 0 0
0 0 0
0 0 0
0 0 0
0 0 0
0 0 0
230 100 105
230 97 119
213 230 127
0 0 0
0 0 0
0 0 0
0 0 0
0 0 0
0 0 0
0 0 0
0 0 0
0 0 0
0 0 0
0 0 0
0 0 0
0 0 0
0 0 0
0 0 0
0 0 0
0 0 0
0 0 0
0 0 0
0 0 0
0 0 0
0 0 0
0 0 0
0 0 0
0 0 0
0 0 0
0 0 0
230 83 196
222 76 230
192 72 230
192 72 230
192 72 230
151 67 230
151 67 230
151 67 230
151 67 230
151 67 230
151 67 230
151 67 230
151 67 230
83 58 230
83 58 230
83 58 230
83 58 230
83 58 230
83 58 230
83 58 230
83 58 230
83 58 230
83 58 230
151 67 230
151 67 230
151 67 230
192 72 230
192 72 230
192 72 230
192 72 230
192 72 230
192 72 230
192 72 230
222 76 230
222 76 230
222 76 230
222 76 230
230 80 214
230 83 196
230 85 180
230 88 166
230 97 119
0 0 0
0 0 0
230 150 108
0 0 0
0 0 0
230 184 114
230 229 123
230 103 101
230 92 144
230 94 135
230 100 105
0 0 0
0 0 0
0 0 0
0 0 0
0 0 0
0 0 0
0 0 0
0 0 0
0 0 0
0 0 0
0 0 0
0 0 0
0 0 0
0 0 0
0 0 0
0 0 0
0 0 0
0 0 0
0 0 0
0 0 0
0 0 0
0 0 0
0 0 0
0 0 0
0 0 0
0 0 0
230 92 144
230 83 196
222 76 230
192 72 230
192 72 230
192 72 230
151 67 230
151 67 230
151 67 230
151 67 230
151 67 230
151 67 230
151 67 230
151 67 230
83 58 230
83 58 230
83 58 230
83 58 230
83 58 230
83 58 230
83 58 230
83 58 230
83 58 230
83 58 230
83 58 230
151 67 230
151 67 230
151 67 230
192 72 230
192 72 230
192 72 230
192 72 230
192 72 230
192 72 230
192 72 230
222 76 230
222 76 230
222 76 230
230 80 214
230 80 214
230 85 180
230 90 155
230 98 112
230 218 121
230 111 102
230 94 135
230 100 105
230 195 117
230 97 119
230 94 135
230 88 166
230 88 166
230 90 155
230 95 126
230 175 113
0 0 0
0 0 0
0 0 0
0 0 0
0 0 0
0 0 0
0 0 0
0 0 0
0 0 0
0 0 0
0 0 0
0 0 0
0 0 0
0 0 0
0 0 0
0 0 0
0 0 0
0 0 0
0 0 0
0 0 0
0 0 0
0 0 0
0 0 0
0 0 0
0 0 0
230 92 144
230 83 196
230 80 214
192 72 230
192 72 230
192 72 230
151 67 230
151 67 230
151 67 230
151 67 230
151 67 230
151 67 230
151 67 230
83 58 230
83 58 230
83 58 230
83 58 230
83 58 230
83 58 230
83 58 230
83 58 230
83 58 230
83 58 230
83 58 230
83 58 230
151 67 230
151 67 230
151 67 230
151 67 230
151 67 230
192 72 230
192 72 230
192 72 230
192 72 230
192 72 230
192 72 230
222 76 230
222 76 230
222 76 230
230 80 214
230 88 166
230 98 112
230 90 155
230 90 155
230 88 166
230 88 166
230 100 105
230 90 155
230 88 166
230 85 180
230 85 180
230 85 180
230 88 166
230 92 144
0 0 0
0 0 0
0 0 0
0 0 0
0 0 0
0 0 0
0 0 0
0 0 0
0 0 0
0 0 0
0 0 0
0 0 0
0 0 0
0 0 0
0 0 0
0 0 0
0 0 0
0 0 0
0 0 0
0 0 0
0 0 0
0 0 0
0 0 0
0 0 0
0 0 0
0 0 0
0 0 0
230 95 126
230 80 214
192 72 230
192 72 230
192 72 230
151 67 230
151 67 230
151 67 230
151 67 230
151 67 230
151 67 230
151 67 230
83 58 230
83 58 230
83 58 230
83 58 230
83 58 230
83 58 230
83 58 230
83 58 230
83 58 230
83 58 230
83 58 230
83 58 230
151 67 230
151 67 230
151 67 230
151 67 230
151 67 230
151 67 230
151 67 230
192 72 230
192 72 230
192 72 230
192 72 230
192 72 230
222 76 230
222 76 230
230 80 214
230 85 180
230 100 105
230 85 180
230 83 196
230 83 196
230 85 180
230 98 112
230 85 180
230 83 196
230 83 196
230 83 196
230 83 196
230 85 180
230 88 166
227 230 124
230 224 122
0 0 0
0 0 0
0 0 0
0 0 0
0 0 0
0 0 0
0 0 0
0 0 0
0 0 0
0 0 0
0 0 0
0 0 0
0 0 0
0 0 0
0 0 0
0 0 0
0 0 0
0 0 0
0 0 0
0 0 0
0 0 0
0 0 0
0 0 0
230 97 119
230 92 144
230 111 102
222 76 230
192 72 230
192 72 230
192 72 230
151 67 230
151 67 230
151 67 230
151 67 230
151 67 230
151 67 230
151 67 230
83 58 230
83 58 230
83 58 230
83 58 230
83 58 230
83 58 230
83 58 230
83 58 230
83 58 230
83 58 230
83 58 230
83 58 230
83 58 230
151 67 230
151 67 230
151 67 230
151 67 230
151 67 230
151 67 230
151 67 230
151 67 230
151 67 230
192 72 230
192 72 230
192 72 230
192 72 230
222 76 230
230 90 155
230 85 180
230 80 214
230 80 214
230 80 214
230 80 214
230 80 214
230 80 214
230 80 214
230 80 214
230 83 196
230 83 196
230 83 196
230 85 180
230 92 144
185 230 134
0 0 0
0 0 0
0 0 0
0 0 0
0 0 0
0 0 0
0 0 0
0 0 0
0 0 0
0 0 0
0 0 0
0 0 0
0 0 0
0 0 0
0 0 0
0 0 0
0 0 0
0 0 0
0 0 0
0 0 0
0 0 0
0 0 0
230 227 123
230 90 155
230 85 180
230 83 196
222 76 230
192 72 230
192 72 230
151 67 230
151 67 230
151 67 230
151 67 230
151 67 230
151 67 230
151 67 230
151 67 230
83 58 230
83 58 230
83 58 230
83 58 230
83 58 230
83 58 230
83 58 230
83 58 230
83 58 230
83 58 230
83 58 230
83 58 230
83 58 230
151 67 230
151 67 230
151 67 230
151 67 230
151 67 230
151 67 230
151 67 230
151 67 230
151 67 230
151 67 230
151 67 230
151 67 230
192 72 230
192 72 230
222 76 230
222 76 230
222 76 230
222 76 230
222 76 230
222 76 230
222 76 230
222 76 230
222 76 230
230 80 214
230 80 214
230 80 214
230 80 214
230 83 196
230 150 108
230 144 107
230 111 102
0 0 0
0 0 0
0 0 0
0 0 0
0 0 0
0 0 0
0 0 0
0 0 0
0 0 0
0 0 0
0 0 0
0 0 0
0 0 0
0 0 0
0 0 0
0 0 0
0 0 0
0 0 0
0 0 0
0 0 0
0 0 0
230 95 126
230 88 166
230 83 196
230 80 214
222 76 230
192 72 230
192 72 230
151 67 230
151 67 230
151 67 230
151 67 230
151 67 230
151 67 230
151 67 230
83 58 230
83 58 230
83 58 230
83 58 230
83 58 230
83 58 230
83 58 230
83 58 230
83 58 230
83 58 230
83 58 230
83 58 230
83 58 230
83 58 230
151 67 230
151 67 230
151 67 230
151 67 230
151 67 230
151 67 230
151 67 230
151 67 230
151 67 230
151 67 230
151 67 230
151 67 230
151 67 230
151 67 230
192 72 230
192 72 230
222 76 230
222 76 230
222 76 230
222 76 230
222 76 230
222 76 230
222 76 230
222 76 230
222 76 230
230 80 214
230 80 214
230 80 214
230 85 180
230 90 155
230 92 144
230 98 112
230 221 122
0 0 0
0 0 0
0 0 0
0 0 0
0 0 0
0 0 0
0 0 0
0 0 0
0 0 0
0 0 0
0 0 0
0 0 0
0 0 0
0 0 0
0 0 0
0 0 0
0 0 0
0 0 0
0 0 0
0 0 0
230 90 155
230 83 196
222 76 230
222 76 230
192 72 230
192 72 230
151 67 230
151 67 230
151 67 230
151 67 230
151 67 230
151 67 230
151 67 230
83 58 230
83 58 230
83 58 230
83 58 230
83 58 230
83 58 230
83 58 230
83 58 230
83 58 230
83 58 230
83 58 230
83 58 230
83 58 230
83 58 230
83 58 230
151 67 230
151 67 230
151 67 230
151 67 230
151 67 230
151 67 230
151 67 230
151 67 230
151 67 230
151 67 230
151 67 230
151 67 230
151 67 230
151 67 230
151 67 230
192 72 230
192 72 230
192 72 230
222 76 230
222 76 230
222 76 230
222 76 230
222 76 230
222 76 230
222 76 230
230 80 214
230 80 214
230 83 196
230 85 180
230 88 166
230 161 110
0 0 0
0 0 0
0 0 0
0 0 0
0 0 0
0 0 0
0 0 0
0 0 0
0 0 0
0 0 0
0 0 0
0 0 0
0 0 0
0 0 0
0 0 0
0 0 0
0 0 0
0 0 0
0 0 0
0 0 0
0 0 0
230 92 144
230 83 196
222 76 230
222 76 230
192 72 230
151 67 230
151 67 230
151 67 230
151 67 230
151 67 230
151 67 230
151 67 230
83 58 230
83 58 230
83 58 230
83 58 230
83 58 230
83 58 230
83 58 230
83 58 230
83 58 230
83 58 230
83 58 230
83 58 230
83 58 230
83 58 230
83 58 230
83 58 230
151 67 230
151 67 230
151 67 230
151 67 230
151 67 230
151 67 230
151 67 230
151 67 230
151 67 230
151 67 230
151 67 230
151 67 230
151 67 230
151 67 230
151 67 230
151 67 230
192 72 230
192 72 230
192 72 230
192 72 230
222 76 230
222 76 230
222 76 230
222 76 230
222 76 230
222 76 230
230 80 214
230 80 214
230 83 196
230 90 155
230 118 103
0 0 0
0 0 0
230 103 101
189 230 133
0 0 0
0 0 0
0 0 0
0 0 0
0 0 0
0 0 0
0 0 0
0 0 0
0 0 0
0 0 0
0 0 0
0 0 0
230 111 102
230 94 135
230 95 126
230 132 105
230 125 104
230 171 112
230 85 180
222 76 230
192 72 230
192 72 230
151 67 230
151 67 230
151 67 230
151 67 230
151 67 230
151 67 230
151 67 230
83 58 230
83 58 230
83 58 230
83 58 230
83 58 230
83 58 230
83 58 230
83 58 230
83 58 230
83 58 230
83 58 230
83 58 230
83 58 230
83 58 230
83 58 230
83 58 230
83 58 230
151 67 230
151 67 230
151 67 230
151 67 230
151 67 230
151 67 230
151 67 230
151 67 230
151 67 230
151 67 230
151 67 230
151 67 230
151 67 230
151 67 230
151 67 230
151 67 230
192 72 230
192 72 230
192 72 230
192 72 230
192 72 230
192 72 230
222 76 230
222 76 230
222 76 230
222 76 230
230 80 214
230 83 196
230 92 144
230 195 117
230 100 105
230 166 111
230 92 144
230 111 102
0 0 0
182 230 135
230 209 119
0 0 0
0 0 0
0 0 0
0 0 0
0 0 0
0 0 0
189 230 133
230 118 103
0 0 0
0 0 0
230 88 166
230 85 180
230 88 166
230 90 155
230 95 126
230 83 196
222 76 230
192 72 230
151 67 230
151 67 230
151 67 230
151 67 230
151 67 230
151 67 230
151 67 230
83 58 230
83 58 230
83 58 230
83 58 230
83 58 230
83 58 230
83 58 230
83 58 230
83 58 230
83 58 230
83 58 230
83 58 230
83 58 230
83 58 230
83 58 230
83 58 230
83 58 230
83 58 230
83 58 230
151 67 230
151 67 230
151 67 230
151 67 230
151 67 230
151 67 230
151 67 230
151 67 230
151 67 230
151 67 230
151 67 230
151 67 230
151 67 230
151 67 230
151 67 230
151 67 230
151 67 230
192 72 230
192 72 230
192 72 230
192 72 230
192 72 230
192 72 230
222 76 230
222 76 230
222 76 230
230 83 196
230 138 106
230 97 119
230 184 114
230 88 166
230 88 166
230 188 115
230 103 101
230 92 144
230 95 126
230 103 101
0 0 0
0 0 0
0 0 0
0 0 0
230 97 119
230 94 135
230 90 155
230 90 155
230 88 166
230 83 196
230 83 196
230 83 196
230 85 180
230 94 135
230 80 214
192 72 230
192 72 230
151 67 230
151 67 230
151 67 230
151 67 230
151 67 230
151 67 230
83 58 230
83 58 230
83 58 230
83 58 230
83 58 230
83 58 230
83 58 230
83 58 230
83 58 230
83 58 230
83 58 230
83 58 230
83 58 230
83 58 230
83 58 230
83 58 230
83 58 230
83 58 230
83 58 230
83 58 230
151 67 230
151 67 230
151 67 230
151 67 230
151 67 230
151 67 230
151 67 230
151 67 230
151 67 230
151 67 230
151 67 230
151 67 230
151 67 230
151 67 230
151 67 230
151 67 230
151 67 230
151 67 230
192 72 230
192 72 230
192 72 230
192 72 230
192 72 230
192 72 230
192 72 230
222 76 230
222 76 230
230 80 214
230 83 196
230 83 196
230 83 196
230 83 196
230 83 196
230 85 180
230 88 166
230 92 144
0 0 0
0 0 0
0 0 0
0 0 0
0 0 0
230 150 108
230 90 155
230 85 180
230 83 196
230 80 214
230 80 214
230 80 214
230 80 214
230 80 214
222 76 230
192 72 230
192 72 230
151 67 230
151 67 230
151 67 230
151 67 230
151 67 230
151 67 230
151 67 230
83 58 230
83 58 230
83 58 230
83 58 230
83 58 230
83 58 230
83 58 230
83 58 230
83 58 230
83 58 230
83 58 230
83 58 230
83 58 230
83 58 230
83 58 230
83 58 230
83 58 230
83 58 230
83 58 230
83 58 230
83 58 230
151 67 230
151 67 230
151 67 230
151 67 230
151 67 230
151 67 230
151 67 230
151 67 230
151 67 230
151 67 230
151 67 230
151 67 230
151 67 230
151 67 230
151 67 230
151 67 230
151 67 230
151 67 230
192 72 230
192 72 230
192 72 230
192 72 230
192 72 230
192 72 230
192 72 230
192 72 230
222 76 230
222 76 230
230 80 214
230 80 214
230 80 214
230 83 196
230 83 196
230 85 180
222 230 125
230 192 116
0 0 0
0 0 0
0 0 0
0 0 0
230 118 103
230 88 166
230 83 196
230 80 214
230 80 214
222 76 230
222 76 230
222 76 230
222 76 230
192 72 230
192 72 230
192 72 230
151 67 230
151 67 230
151 67 230
151 67 230
151 67 230
151 67 230
83 58 230
83 58 230
83 58 230
83 58 230
83 58 230
83 58 230
83 58 230
83 58 230
83 58 230
83 58 230
83 58 230
83 58 230
83 58 230
83 58 230
83 58 230
83 58 230
83 58 230
83 58 230
83 58 230
83 58 230
83 58 230
83 58 230
83 58 230
151 67 230
151 67 230
151 67 230
151 67 230
151 67 230
151 67 230
151 67 230
151 67 230
151 67 230
151 67 230
151 67 230
151 67 230
151 67 230
151 67 230
151 67 230
151 67 230
151 67 230
151 67 230
192 72 230
192 72 230
192 72 230
192 72 230
192 72 230
192 72 230
192 72 230
192 72 230
222 76 230
222 76 230
222 76 230
230 80 214
230 80 214
230 83 196
230 85 180
230 92 144
196 230 131
0 0 0
0 0 0
0 0 0
0 0 0
230 175 113
230 100 105
230 83 196
230 80 214
222 76 230
222 76 230
222 76 230
222 76 230
192 72 230
192 72 230
192 72 230
151 67 230
151 67 230
151 67 230
151 67 230
151 67 230
151 67 230
83 58 230
83 58 230
83 58 230
83 58 230
83 58 230
83 58 230
83 58 230
83 58 230
83 58 230
83 58 230
83 58 230
83 58 230
83 58 230
83 58 230
83 58 230
83 58 230
83 58 230
83 58 230
83 58 230
83 58 230
83 58 230
83 58 230
83 58 230
83 58 230
83 58 230
151 67 230
151 67 230
151 67 230
151 67 230
151 67 230
151 67 230
151 67 230
151 67 230
151 67 230
151 67 230
151 67 230
151 67 230
151 67 230
151 67 230
151 67 230
151 67 230
151 67 230
151 67 230
192 72 230
192 72 230
192 72 230
192 72 230
192 72 230
192 72 230
192 72 230
192 72 230
192 72 230
222 76 230
222 76 230
222 76 230
230 80 214
230 85 180
230 111 102
230 100 105
220 230 126
230 206 119
0 0 0
230 100 105
230 94 135
230 92 144
230 80 214
222 76 230
222 76 230
222 76 230
192 72 230
192 72 230
192 72 230
192 72 230
151 67 230
151 67 230
151 67 230
151 67 230
151 67 230
151 67 230
83 58 230
83 58 230
83 58 230
83 58 230
83 58 230
83 58 230
83 58 230
83 58 230
83 58 230
83 58 230
83 58 230
83 58 230
83 58 230
83 58 230
83 58 230
83 58 230
83 58 230
83 58 230
83 58 230
83 58 230
83 58 230
83 58 230
83 58 230
83 58 230
83 58 230
83 58 230
83 58 230
151 67 230
151 67 230
151 67 230
151 67 230
151 67 230
151 67 230
151 67 230
151 67 230
151 67 230
151 67 230
151 67 230
151 67 230
151 67 230
151 67 230
151 67 230
151 67 230
151 67 230
151 67 230
192 72 230
192 72 230
192 72 230
192 72 230
192 72 230
192 72 230
192 72 230
192 72 230
192 72 230
222 76 230
222 76 230
222 76 230
230 80 214
230 83 196
230 88 166
230 94 135
230 206 119
230 188 115
230 95 126
230 85 180
230 83 196
222 76 230
222 76 230
222 76 230
192 72 230
192 72 230
192 72 230
192 72 230
192 72 230
151 67 230
151 67 230
151 67 230
151 67 230
151 67 230
83 58 230
83 58 230
83 58 230
83 58 230
83 58 230
83 58 230
83 58 230
83 58 230
83 58 230
83 58 230
83 58 230
83 58 230
83 58 230
83 58 230
83 58 230
83 58 230
83 58 230
83 58 230
83 58 230
83 58 230
83 58 230
83 58 230
83 58 230
83 58 230
83 58 230
83 58 230
83 58 230
83 58 230
83 58 230
151 67 230
151 67 230
151 67 230
151 67 230
151 67 230
151 67 230
151 67 230
151 67 230
151 67 230
151 67 230
151 67 230
151 67 230
151 67 230
151 67 230
151 67 230
151 67 230
151 67 230
151 67 230
151 67 230
192 72 230
192 72 230
192 72 230
192 72 230
192 72 230
192 72 230
192 72 230
192 72 230
222 76 230
222 76 230
222 76 230
230 80 214
230 83 196
230 85 180
230 92 144
230 103 101
230 90 155
230 83 196
230 80 214
222 76 230
222 76 230
192 72 230
192 72 230
192 72 230
192 72 230
192 72 230
151 67 230
151 67 230
151 67 230
151 67 230
151 67 230
83 58 230
83 58 230
83 58 230
83 58 230
83 58 230
83 58 230
83 58 230
83 58 230
83 58 230
83 58 230
83 58 230
83 58 230
83 58 230
83 58 230
83 58 230
83 58 230
83 58 230
83 58 230
83 58 230
83 58 230
83 58 230
83 58 230
83 58 230
83 58 230
83 58 230
83 58 230
83 58 230
83 58 230
83 58 230
83 58 230
83 58 230
151 67 230
151 67 230
151 67 230
151 67 230
151 67 230
151 67 230
151 67 230
151 67 230
151 67 230
151 67 230
151 67 230
151 67 230
151 67 230
151 67 230
151 67 230
151 67 230
151 67 230
151 67 230
151 67 230
192 72 230
192 72 230
192 72 230
192 72 230
192 72 230
192 72 230
192 72 230
222 76 230
222 76 230
222 76 230
230 80 214
230 83 196
230 85 180
230 150 108
230 94 135
230 97 119
230 85 180
230 80 214
222 76 230
192 72 230
192 72 230
192 72 230
192 72 230
192 72 230
151 67 230
151 67 230
151 67 230
151 67 230
151 67 230
83 58 230
83 58 230
83 58 230
83 58 230
83 58 230
83 58 230
83 58 230
83 58 230
83 58 230
83 58 230
83 58 230
83 58 230
83 58 230
83 58 230
83 58 230
83 58 230
83 58 230
83 58 230
83 58 230
83 58 230
83 58 230
83 58 230
83 58 230
83 58 230
83 58 230
83 58 230
83 58 230
83 58 230
83 58 230
83 58 230
83 58 230
83 58 230
83 58 230
151 67 230
151 67 230
151 67 230
151 67 230
151 67 230
151 67 230
151 67 230
151 67 230
151 67 230
151 67 230
151 67 230
151 67 230
151 67 230
151 67 230
151 67 230
151 67 230
151 67 230
151 67 230
151 67 230
192 72 230
192 72 230
192 72 230
192 72 230
192 72 230
192 72 230
192 72 230
222 76 230
222 76 230
222 76 230
230 80 214
230 118 103
230 98 112
230 85 180
230 83 196
230 92 144
222 76 230
192 72 230
192 72 230
192 72 230
192 72 230
192 72 230
151 67 230
151 67 230
151 67 230
151 67 230
151 67 230
83 58 230
83 58 230
83 58 230
83 58 230
83 58 230
83 58 230
83 58 230
83 58 230
83 58 230
83 58 230
83 58 230
83 58 230
83 58 230
83 58 230
83 58 230
83 58 230
83 58 230
83 58 230
83 58 230
83 58 230
83 58 230
83 58 230
83 58 230
83 58 230
83 58 230
83 58 230
83 58 230
83 58 230
83 58 230
83 58 230
83 58 230
83 58 230
83 58 230
83 58 230
83 58 230
83 58 230
151 67 230
151 67 230
151 67 230
151 67 230
151 67 230
151 67 230
151 67 230
151 67 230
151 67 230
151 67 230
151 67 230
151 67 230
151 67 230
151 67 230
151 67 230
151 67 230
151 67 230
151 67 230
151 67 230
192 72 230
192 72 230
192 72 230
192 72 230
192 72 230
192 72 230
222 76 230
222 76 230
230 80 214
230 92 144
230 85 180
230 80 214
230 80 214
222 76 230
192 72 230
192 72 230
192 72 230
192 72 230
192 72 230
151 67 230
151 67 230
151 67 230
151 67 230
83 58 230
83 58 230
83 58 230
83 58 230
83 58 230
83 58 230
83 58 230
83 58 230
83 58 230
83 58 230
83 58 230
83 58 230
83 58 230
83 58 230
83 58 230
83 58 230
83 58 230
83 58 230
83 58 230
83 58 230
83 58 230
83 58 230
83 58 230
83 58 230
83 58 230
83 58 230
83 58 230
83 58 230
83 58 230
83 58 230
83 58 230
83 58 230
83 58 230
83 58 230
83 58 230
83 58 230
83 58 230
83 58 230
83 58 230
151 67 230
151 67 230
151 67 230
151 67 230
151 67 230
151 67 230
151 67 230
151 67 230
151 67 230
151 67 230
151 67 230
151 67 230
151 67 230
151 67 230
151 67 230
151 67 230
151 67 230
151 67 230
151 67 230
151 67 230
192 72 230
192 72 230
192 72 230
192 72 230
192 72 230
222 76 230
230 83 196
230 85 180
230 80 214
222 76 230
222 76 230
192 72 230
192 72 230
192 72 230
192 72 230
151 67 230
151 67 230
151 67 230
151 67 230
151 67 230
83 58 230
83 58 230
83 58 230
83 58 230
83 58 230
83 58 230
83 58 230
83 58 230
83 58 230
83 58 230
83 58 230
83 58 230
83 58 230
83 58 230
83 58 230
83 58 230
83 58 230
83 58 230
83 58 230
83 58 230
83 58 230
83 58 230
83 58 230
83 58 230
83 58 230
83 58 230
83 58 230
83 58 230
83 58 230
83 58 230
83 58 230
83 58 230
83 58 230
83 58 230
83 58 230
83 58 230
83 58 230
83 58 230
83 58 230
83 58 230
83 58 230
83 58 230
151 67 230
151 67 230
151 67 230
151 67 230
151 67 230
151 67 230
151 67 230
151 67 230
151 67 230
151 67 230
151 67 230
151 67 230
151 67 230
151 67 230
151 67 230
151 67 230
151 67 230
151 67 230
151 67 230
151 67 230
151 67 230
192 72 230
192 72 230
192 72 230
192 72 230
222 76 230
222 76 230
192 72 230
192 72 230
192 72 230
192 72 230
151 67 230
151 67 230
151 67 230
151 67 230
151 67 230
83 58 230
83 58 230
83 58 230
83 58 230
83 58 230
83 58 230
83 58 230
83 58 230
83 58 230
83 58 230
83 58 230
83 58 230
83 58 230
83 58 230
83 58 230
83 58 230
83 58 230
83 58 230
83 58 230
83 58 230
83 58 230
83 58 230
83 58 230
83 58 230
83 58 230
83 58 230
83 58 230
83 58 230
83 58 230
83 58 230
83 58 230
83 58 230
83 58 230
83 58 230
83 58 230
83 58 230
83 58 230
83 58 230
83 58 230
83 58 230
83 58 230
83 58 230
83 58 230
83 58 230
83 58 230
83 58 230
151 67 230
151 67 230
151 67 230
151 67 230
151 67 230
151 67 230
151 67 230
151 67 230
151 67 230
151 67 230
151 67 230
151 67 230
151 67 230
151 67 230
151 67 230
151 67 230
151 67 230
151 67 230
151 67 230
151 67 230
151 67 230
151 67 230
151 67 230
151 67 230
151 67 230
151 67 230
151 67 230
151 67 230
151 67 230
151 67 230
151 67 230
151 67 230
83 58 230
83 58 230
83 58 230
83 58 230
83 58 230
83 58 230
83 58 230
83 58 230
83 58 230
83 58 230
83 58 230
83 58 230
83 58 230
83 58 230
83 58 230
83 58 230
83 58 230
83 58 230
83 58 230
83 58 230
83 58 230
83 58 230
83 58 230
83 58 230
83 58 230
83 58 230
83 58 230
83 58 230
83 58 230
83 58 230
83 58 230
83 58 230
83 58 230
83 58 230
83 58 230
83 58 230
83 58 230
83 58 230
83 58 230
83 58 230
83 58 230
83 58 230
83 58 230
83 58 230
83 58 230
83 58 230
83 58 230
83 58 230
83 58 230
83 58 230
83 58 230
151 67 230
151 67 230
151 67 230
151 67 230
151 67 230
151 67 230
151 67 230
151 67 230
151 67 230
151 67 230
151 67 230
151 67 230
151 67 230
151 67 230
151 67 230
151 67 230
151 67 230
151 67 230
151 67 230
151 67 230
151 67 230
151 67 230
151 67 230
151 67 230
151 67 230
151 67 230
83 58 230
83 58 230
83 58 230
83 58 230
83 58 230
83 58 230
83 58 230
83 58 230
83 58 230
83 58 230
83 58 230
83 58 230
83 58 230
83 58 230
83 58 230
83 58 230
83 58 230
83 58 230
83 58 230
83 58 230
83 58 230
83 58 230
83 58 230
