P3
80 60
15
0 5 9
0 5 9
0 5 9
0 5 9
0 5 9
0 5 9
0 5 9
0 5 9
0 5 9
0 5 9
0 5 9
0 5 9
0 5 9
0 5 9
0 5 9
0 5 9
0 5 9
0 5 9
0 5 9
0 5 9
0 5 9
0 5 9
0 5 9
0 5 9
0 5 9
0 5 9
0 5 9
0 5 9
0 5 9
0 5 9
0 5 9
0 5 9
0 5 9
0 5 9
0 5 9
0 5 9
0 5 9
0 5 9
0 5 9
0 5 9
0 5 9
0 5 9
0 5 9
0 5 9
0 5 9
0 5 9
0 5 9
0 5 9
0 5 9
0 5 9
0 5 9
0 5 9
0 5 9
0 5 9
0 5 9
0 5 9
0 5 9
0 5 9
0 5 9
0 5 9
0 5 9
0 5 9
0 5 9
0 5 9
0 5 9
0 5 9
0 5 9
0 5 9
0 5 9
0 5 9
0 5 9
0 5 9
0 5 9
0 5 9
0 5 9
0 5 9
0 5 9
0 5 9
0 5 9
0 5 9
0 5 9
0 5 9
0 5 9
0 5 9
0 5 9
0 5 9
0 5 9
0 5 9
0 5 9
0 5 9
0 5 9
0 5 9
0 5 9
0 5 9
0 5 9
0 5 9
0 5 9
0 5 9
0 5 9
0 5 9
0 5 9
0 5 9
0 5 9
0 5 9
0 5 9
0 5 9
0 5 9
0 5 9
0 5 9
0 5 9
0 5 9
0 5 9
0 5 9
0 5 9
0 5 9
0 5 9
0 5 9
0 5 9
0 5 9
0 5 9
0 5 9
0 5 9
0 5 9
0 5 9
0 5 9
0 5 9
0 5 9
0 5 9
0 5 9
0 5 9
0 5 9
0 5 9
0 5 9
0 5 9
0 5 9
0 5 9
0 5 9
0 5 9
0 5 9
0 5 9
0 5 9
0 5 9
0 5 9
0 5 9
0 5 9
0 5 9
0 5 9
0 5 9
0 5 9
0 5 9
0 5 9
0 5 9
0 5 9
0 5 9
0 5 9
0 5 9
0 5 9
0 5 9
0 5 9
0 5 9
0 5 9
0 5 9
0 5 9
0 5 9
0 5 9
0 5 9
0 5 9
0 5 9
0 5 9
0 5 9
0 5 9
0 5 9
0 5 9
0 5 9
0 5 9
0 5 9
0 5 9
0 5 9
0 5 9
0 5 9
0 5 9
0 5 9
0 5 9
0 5 9
0 5 9
0 5 9
0 5 9
0 5 9
0 5 9
0 5 9
0 5 9
0 5 9
0 5 9
0 5 9
0 5 9
0 5 9
0 5 9
0 5 9
0 5 9
0 5 9
0 5 9
0 5 9
0 5 9
0 5 9
0 5 9
0 5 9
0 5 9
0 5 9
0 5 9
0 5 9
0 5 9
0 5 9
0 5 9
0 5 9
0 5 9
0 5 9
0 5 9
0 5 9
0 5 9
0 5 9
0 5 9
0 5 9
0 5 9
0 5 9
0 5 9
0 5 9
0 5 9
0 5 9
0 5 9
0 5 9
0 5 9
0 5 9
0 5 9
0 5 9
0 5 9
0 5 9
0 5 9
0 5 9
0 5 9
0 5 9
0 5 9
0 5 9
0 5 9
0 5 9
0 5 9
0 5 9
0 5 9
0 5 9
0 5 9
0 5 9
0 5 9
0 5 9
0 5 9
0 5 9
0 5 9
0 5 9
0 5 9
0 5 9
0 5 9
0 5 9
0 5 9
0 5 9
0 5 9
0 5 9
0 5 9
0 5 9
0 5 9
0 5 9
0 5 9
0 5 9
0 5 9
0 5 9
0 5 9
0 5 9
0 5 9
0 5 9
0 5 9
0 5 9
0 5 9
0 5 9
0 5 9
0 5 9
0 5 9
0 5 9
0 5 9
0 5 9
0 5 9
0 5 9
0 5 9
0 5 9
0 5 9
0 5 9
0 5 9
0 5 9
0 5 9
0 5 9
0 5 9
0 5 9
0 5 9
0 5 9
0 5 9
0 5 9
0 5 9
0 5 9
0 5 9
0 5 9
0 5 9
0 5 9
0 5 9
0 5 9
0 5 9
0 5 9
0 5 9
0 5 9
0 5 9
0 5 9
0 5 9
0 5 9
0 5 9
0 5 9
0 5 9
0 5 9
0 5 9
0 5 9
0 5 9
0 5 9
0 5 9
0 5 9
0 5 9
0 5 9
0 5 9
0 5 9
0 5 9
0 5 9
0 5 9
0 5 9
0 5 9
0 5 9
0 5 9
0 5 9
0 5 9
0 5 9
0 5 9
0 5 9
0 5 9
0 5 9
0 5 9
0 5 9
0 5 9
0 5 9
0 5 9
0 5 9
0 5 9
0 5 9
0 5 9
0 9 2
0 9 2
0 9 2
0 9 2
0 9 2
0 9 2
0 9 2
0 9 2
0 9 2
0 9 2
0 9 2
0 5 9
0 5 9
0 5 9
0 5 9
0 5 9
0 5 9
0 5 9
0 5 9
0 5 9
0 5 9
0 5 9
0 5 9
0 5 9
0 5 9
0 5 9
0 5 9
0 5 9
0 5 9
0 5 9
0 5 9
0 5 9
0 5 9
0 5 9
0 5 9
0 5 9
0 5 9
0 5 9
0 5 9
0 5 9
0 5 9
0 5 9
0 5 9
0 5 9
0 5 9
0 5 9
0 5 9
0 5 9
0 5 9
0 5 9
0 5 9
0 5 9
0 5 9
0 5 9
0 5 9
0 5 9
0 5 9
0 5 9
0 5 9
0 5 9
0 5 9
0 5 9
0 5 9
0 5 9
0 5 9
0 5 9
0 5 9
0 5 9
0 5 9
0 5 9
0 5 9
0 5 9
0 5 9
0 5 9
0 5 9
0 5 9
0 9 2
0 9 2
0 9 2
0 9 2
0 9 2
0 9 2
0 9 2
0 9 2
0 9 2
0 9 2
0 9 2
0 9 2
0 9 2
0 9 2
0 9 2
0 9 2
0 9 2
0 9 2
0 9 2
0 5 9
0 5 9
0 5 9
0 5 9
0 5 9
0 5 9
0 5 9
0 5 9
0 5 9
0 5 9
0 5 9
0 5 9
0 5 9
0 5 9
0 5 9
0 5 9
0 5 9
0 5 9
0 5 9
0 5 9
0 5 9
0 5 9
0 5 9
0 5 9
0 5 9
0 5 9
0 5 9
0 5 9
0 5 9
0 5 9
0 5 9
0 5 9
0 5 9
0 5 9
0 5 9
0 5 9
0 5 9
0 5 9
0 5 9
0 5 9
0 5 9
0 5 9
0 5 9
0 5 9
0 5 9
0 5 9
0 5 9
0 5 9
0 5 9
0 5 9
0 5 9
0 5 9
0 5 9
0 5 9
0 5 9
0 5 9
0 5 9
0 5 9
0 9 2
0 9 2
0 9 2
0 9 2
0 9 2
0 9 2
0 9 2
0 9 2
0 9 2
0 9 2
0 9 2
0 9 2
0 9 2
0 9 2
0 9 2
0 9 2
0 9 2
0 9 2
0 9 2
0 9 2
0 9 2
0 9 2
0 9 2
0 9 2
0 9 2
0 5 9
0 5 9
0 5 9
0 5 9
0 5 9
0 5 9
0 5 9
0 5 9
0 5 9
0 5 9
0 5 9
0 5 9
0 5 9
0 5 9
0 5 9
0 5 9
0 5 9
0 5 9
0 5 9
0 5 9
0 5 9
0 5 9
0 5 9
0 5 9
0 5 9
0 5 9
0 5 9
0 5 9
0 5 9
0 5 9
0 5 9
0 5 9
0 5 9
0 5 9
0 5 9
0 5 9
0 5 9
0 5 9
0 5 9
0 5 9
0 5 9
0 5 9
0 5 9
0 5 9
0 5 9
0 5 9
0 5 9
0 5 9
0 5 9
0 5 9
0 5 9
0 5 9
0 9 2
0 9 2
0 9 2
0 9 2
0 9 2
0 9 2
0 9 2
0 9 2
0 9 2
0 9 2
0 9 2
0 9 2
0 9 2
0 9 2
0 9 2
0 9 2
0 9 2
0 9 2
0 14 11
0 14 11
0 14 11
0 14 11
1 4 5
0 14 11
0 14 11
0 14 11
0 9 2
0 9 2
0 9 2
0 9 2
0 9 2
0 5 9
0 5 9
0 5 9
0 5 9
0 5 9
0 5 9
0 5 9
0 5 9
0 5 9
0 5 9
0 5 9
0 5 9
0 5 9
0 5 9
0 5 9
0 5 9
0 5 9
0 5 9
0 5 9
0 5 9
0 5 9
0 5 9
0 5 9
0 5 9
0 5 9
0 5 9
0 5 9
0 5 9
0 5 9
0 5 9
0 5 9
0 5 9
0 5 9
0 5 9
0 5 9
0 5 9
0 5 9
0 5 9
0 5 9
0 5 9
0 5 9
0 5 9
0 5 9
0 5 9
0 5 9
0 5 9
0 5 9
0 5 9
0 9 2
0 9 2
0 9 2
0 9 2
0 9 2
0 9 2
0 9 2
0 9 2
0 9 2
0 9 2
0 9 2
0 9 2
0 9 2
0 9 2
0 9 2
0 9 2
0 14 11
0 14 11
0 14 11
0 14 11
0 14 11
1 4 5
3 10 6
1 3 1
1 4 5
1 4 5
0 14 11
0 14 11
0 14 11
0 9 2
0 9 2
0 9 2
0 9 2
0 5 9
0 5 9
0 5 9
0 5 9
0 5 9
0 5 9
0 5 9
0 5 9
0 5 9
0 5 9
0 5 9
0 5 9
0 5 9
0 5 9
0 5 9
0 5 9
0 5 9
0 5 9
0 5 9
0 5 9
0 5 9
0 5 9
0 5 9
0 5 9
0 5 9
0 5 9
0 5 9
0 5 9
0 5 9
0 5 9
0 5 9
0 5 9
0 5 9
0 5 9
0 5 9
0 5 9
0 5 9
0 5 9
0 5 9
0 5 9
0 5 9
0 5 9
0 5 9
0 5 9
0 5 9
0 9 2
0 9 2
0 9 2
0 9 2
0 9 2
0 9 2
0 9 2
0 9 2
0 9 2
0 9 2
0 9 2
0 9 2
0 9 2
0 9 2
0 9 2
0 9 2
0 14 11
0 14 11
0 14 11
0 14 11
0 14 11
0 14 11
1 4 5
1 9 13
1 3 1
2 7 5
1 9 13
1 9 13
1 4 5
0 14 11
0 14 11
0 14 11
0 14 11
0 9 2
0 9 2
0 9 2
0 9 2
0 5 9
0 5 9
0 5 9
0 5 9
0 5 9
0 5 9
0 5 9
0 5 9
0 5 9
0 5 9
0 5 9
0 5 9
0 5 9
0 5 9
0 5 9
0 5 9
0 5 9
0 5 9
0 5 9
0 5 9
0 5 9
0 5 9
0 5 9
0 5 9
0 5 9
0 5 9
0 5 9
0 5 9
0 5 9
0 5 9
0 5 9
0 5 9
0 5 9
0 5 9
0 5 9
0 5 9
0 5 9
0 5 9
0 5 9
0 5 9
0 5 9
0 5 9
0 9 2
0 9 2
0 9 2
0 9 2
0 9 2
0 9 2
0 9 2
0 9 2
0 9 2
0 9 2
0 9 2
0 9 2
0 9 2
0 9 2
0 9 2
0 9 2
0 14 11
0 14 11
0 14 11
0 14 11
0 14 11
0 14 11
1 4 5
1 4 5
1 9 13
1 13 7
2 2 12
2 8 9
2 2 12
0 0 0
1 4 5
0 14 11
0 14 11
0 14 11
0 14 11
0 9 2
0 9 2
0 9 2
0 9 2
0 5 9
0 5 9
0 5 9
0 5 9
0 5 9
0 5 9
0 5 9
0 5 9
0 5 9
0 5 9
0 5 9
0 5 9
0 5 9
0 5 9
0 5 9
0 5 9
0 5 9
0 5 9
0 5 9
0 5 9
0 5 9
0 5 9
0 5 9
0 5 9
0 5 9
0 5 9
0 5 9
0 5 9
0 5 9
0 5 9
0 5 9
0 5 9
0 5 9
0 5 9
0 5 9
0 5 9
0 5 9
0 5 9
0 5 9
0 9 2
0 9 2
0 9 2
0 9 2
0 9 2
0 9 2
0 9 2
0 9 2
0 9 2
0 9 2
0 9 2
0 9 2
0 9 2
0 9 2
0 9 2
0 9 2
0 14 11
0 14 11
0 14 11
0 14 11
0 14 11
0 14 11
0 14 11
1 4 5
1 4 5
1 4 5
1 13 7
1 3 1
2 13 3
4 14 11
2 13 3
1 13 7
1 9 13
1 4 5
0 14 11
0 14 11
0 14 11
0 14 11
0 9 2
0 9 2
0 9 2
0 9 2
0 9 2
0 5 9
0 5 9
0 5 9
0 5 9
0 5 9
0 5 9
0 5 9
0 5 9
0 5 9
0 5 9
0 5 9
0 5 9
0 5 9
0 5 9
0 5 9
0 5 9
0 5 9
0 5 9
0 5 9
0 5 9
0 5 9
0 5 9
0 5 9
0 5 9
0 5 9
0 5 9
0 5 9
0 5 9
0 5 9
0 5 9
0 5 9
0 5 9
0 5 9
0 5 9
0 5 9
0 5 9
0 9 2
0 9 2
0 9 2
0 9 2
0 9 2
0 9 2
0 9 2
0 9 2
0 9 2
0 9 2
0 9 2
0 9 2
0 9 2
0 9 2
0 9 2
0 9 2
0 14 11
0 14 11
0 14 11
0 14 11
0 14 11
0 14 11
0 14 11
1 4 5
1 4 5
1 4 5
1 9 13
1 3 1
2 8 9
7 1 4
4 4 5
2 2 12
1 3 1
1 9 13
1 4 5
1 4 5
0 14 11
0 14 11
0 14 11
0 14 11
0 9 2
0 9 2
0 9 2
0 9 2
0 9 2
0 5 9
0 5 9
0 5 9
0 5 9
0 5 9
0 5 9
0 5 9
0 5 9
0 5 9
0 5 9
0 5 9
0 5 9
0 5 9
0 5 9
0 5 9
0 5 9
0 5 9
0 5 9
0 5 9
0 5 9
0 5 9
0 5 9
0 5 9
0 5 9
0 5 9
0 5 9
0 5 9
0 5 9
0 5 9
0 5 9
0 5 9
0 5 9
0 5 9
0 5 9
0 9 2
0 9 2
0 9 2
0 9 2
0 9 2
0 9 2
0 9 2
0 9 2
0 9 2
0 9 2
0 9 2
0 9 2
0 9 2
0 9 2
0 9 2
0 9 2
0 14 11
0 14 11
0 14 11
0 14 11
0 14 11
0 14 11
0 14 11
1 4 5
1 4 5
1 4 5
1 9 13
2 2 12
8 9 2
3 6 2
4 14 11
0 0 0
3 5 13
3 11 10
1 13 7
1 4 5
1 4 5
1 4 5
0 14 11
0 14 11
0 14 11
0 14 11
0 9 2
0 9 2
0 9 2
0 9 2
0 9 2
0 5 9
0 5 9
0 5 9
0 5 9
0 5 9
0 5 9
0 5 9
0 5 9
0 5 9
0 5 9
0 5 9
0 5 9
0 5 9
0 5 9
0 5 9
0 5 9
0 5 9
0 5 9
0 5 9
0 5 9
0 5 9
0 5 9
0 5 9
0 5 9
0 5 9
0 5 9
0 5 9
0 5 9
0 5 9
0 5 9
0 5 9
0 5 9
0 9 2
0 9 2
0 9 2
0 9 2
0 9 2
0 9 2
0 9 2
0 9 2
0 9 2
0 9 2
0 9 2
0 9 2
0 9 2
0 9 2
0 9 2
0 9 2
0 14 11
0 14 11
0 14 11
0 14 11
0 14 11
0 14 11
0 14 11
1 4 5
1 4 5
1 9 13
1 9 13
1 13 7
1 3 1
3 2 8
0 0 0
0 0 0
0 0 0
0 0 0
3 5 13
1 3 1
1 9 13
1 4 5
1 4 5
1 4 5
1 4 5
0 14 11
0 14 11
0 9 2
0 9 2
0 9 2
0 9 2
0 9 2
0 9 2
0 5 9
0 5 9
0 5 9
0 5 9
0 5 9
0 5 9
0 5 9
0 5 9
0 5 9
0 5 9
0 5 9
0 5 9
0 5 9
0 5 9
0 5 9
0 5 9
0 5 9
0 5 9
0 5 9
0 5 9
0 5 9
0 5 9
0 5 9
0 5 9
0 5 9
0 5 9
0 5 9
0 5 9
0 5 9
0 5 9
0 5 9
0 9 2
0 9 2
0 9 2
0 9 2
0 9 2
0 9 2
0 9 2
0 9 2
0 9 2
0 9 2
0 9 2
0 9 2
0 9 2
0 9 2
0 9 2
0 14 11
0 14 11
0 14 11
0 14 11
0 14 11
0 14 11
1 4 5
1 4 5
1 9 13
1 9 13
1 9 13
1 13 7
1 13 7
2 8 9
4 9 2
0 0 0
0 0 0
0 0 0
0 0 0
6 6 2
1 3 1
1 13 7
1 9 13
1 9 13
1 4 5
1 4 5
1 4 5
0 14 11
0 14 11
0 9 2
0 9 2
0 9 2
0 9 2
0 9 2
0 5 9
0 5 9
0 5 9
0 5 9
0 5 9
0 5 9
0 5 9
0 5 9
0 5 9
0 5 9
0 5 9
0 5 9
0 5 9
0 5 9
0 5 9
0 5 9
0 5 9
0 5 9
0 5 9
0 5 9
0 5 9
0 5 9
0 5 9
0 5 9
0 5 9
0 5 9
0 5 9
0 5 9
0 5 9
0 5 9
0 9 2
0 9 2
0 9 2
0 9 2
0 9 2
0 9 2
0 9 2
0 9 2
0 9 2
0 9 2
0 9 2
0 9 2
0 9 2
0 9 2
0 14 11
0 14 11
0 14 11
0 14 11
0 14 11
0 14 11
1 4 5
1 4 5
1 9 13
1 13 7
1 3 1
1 3 1
1 3 1
1 3 1
2 8 9
2 13 3
3 2 8
0 0 0
0 0 0
0 0 0
0 0 0
2 12 14
2 13 3
2 8 9
1 3 1
1 9 13
1 9 13
1 9 13
3 5 13
1 4 5
0 14 11
0 14 11
0 9 2
0 9 2
0 9 2
0 9 2
0 9 2
0 5 9
0 5 9
0 5 9
0 5 9
0 5 9
0 5 9
0 5 9
0 5 9
0 5 9
0 5 9
0 5 9
0 5 9
0 5 9
0 5 9
0 5 9
0 5 9
0 5 9
0 5 9
0 5 9
0 5 9
0 5 9
0 5 9
0 5 9
0 5 9
0 5 9
0 5 9
0 5 9
0 5 9
0 9 2
0 9 2
0 9 2
0 9 2
0 9 2
0 9 2
0 9 2
0 9 2
0 9 2
0 9 2
0 9 2
0 9 2
0 9 2
0 9 2
0 14 11
0 14 11
0 14 11
0 14 11
0 14 11
1 4 5
1 4 5
1 4 5
1 9 13
1 13 7
2 12 14
9 2 12
2 7 5
2 13 3
14 1 4
4 0 0
0 0 0
0 0 0
12 4 5
15 10 6
15 5 13
0 0 0
4 14 11
7 5 13
2 12 14
8 9 2
1 3 1
1 3 1
1 3 1
3 6 2
1 13 7
1 4 5
0 14 11
0 9 2
0 9 2
0 9 2
0 9 2
0 9 2
0 9 2
0 5 9
0 5 9
0 5 9
0 5 9
0 5 9
0 5 9
0 5 9
0 5 9
0 5 9
0 5 9
0 5 9
0 5 9
0 5 9
0 5 9
0 5 9
0 5 9
0 5 9
0 5 9
0 5 9
0 5 9
0 5 9
0 5 9
0 5 9
0 5 9
0 5 9
0 5 9
0 5 9
0 9 2
0 9 2
0 9 2
0 9 2
0 9 2
0 9 2
0 9 2
0 9 2
0 9 2
0 9 2
0 9 2
0 9 2
0 9 2
0 14 11
0 14 11
0 14 11
0 14 11
1 4 5
1 4 5
1 4 5
1 4 5
1 9 13
1 9 13
1 13 7
2 7 5
8 14 11
0 0 0
3 11 10
5 13 7
0 0 0
0 0 0
0 0 0
0 0 0
0 0 0
0 0 0
0 0 0
0 0 0
0 0 0
0 0 0
4 0 0
2 7 5
3 2 8
3 6 2
3 11 10
3 6 2
1 4 5
0 14 11
0 9 2
0 9 2
0 9 2
0 9 2
0 9 2
0 9 2
0 5 9
0 5 9
0 5 9
0 5 9
0 5 9
0 5 9
0 5 9
0 5 9
0 5 9
0 5 9
0 5 9
0 5 9
0 5 9
0 5 9
0 5 9
0 5 9
0 5 9
0 5 9
0 5 9
0 5 9
0 5 9
0 5 9
0 5 9
0 5 9
0 5 9
0 5 9
0 9 2
0 9 2
0 9 2
0 9 2
0 9 2
0 9 2
0 9 2
0 9 2
0 9 2
0 9 2
0 9 2
0 9 2
0 9 2
0 14 11
0 14 11
1 4 5
1 4 5
1 4 5
1 4 5
1 4 5
1 4 5
1 9 13
1 9 13
1 9 13
1 3 1
2 13 3
0 0 0
0 0 0
0 0 0
0 0 0
0 0 0
0 0 0
0 0 0
0 0 0
0 0 0
0 0 0
0 0 0
0 0 0
0 0 0
0 0 0
0 0 0
0 0 0
0 0 0
0 0 0
4 4 5
2 8 9
1 4 5
1 4 5
0 14 11
0 9 2
0 9 2
0 9 2
0 9 2
0 9 2
0 9 2
0 5 9
0 5 9
0 5 9
0 5 9
0 5 9
0 5 9
0 5 9
0 5 9
0 5 9
0 5 9
0 5 9
0 5 9
0 5 9
0 5 9
0 5 9
0 5 9
0 5 9
0 5 9
0 5 9
0 5 9
0 5 9
0 5 9
0 5 9
0 5 9
0 5 9
0 9 2
0 9 2
0 9 2
0 9 2
0 9 2
0 9 2
0 9 2
0 9 2
0 9 2
0 9 2
0 9 2
0 14 11
0 14 11
1 4 5
1 4 5
1 4 5
1 4 5
1 4 5
1 4 5
1 4 5
1 9 13
1 9 13
1 9 13
1 3 1
3 2 8
2 7 5
12 4 5
0 0 0
0 0 0
0 0 0
0 0 0
0 0 0
0 0 0
0 0 0
0 0 0
0 0 0
0 0 0
0 0 0
0 0 0
0 0 0
0 0 0
0 0 0
0 0 0
0 0 0
4 0 0
1 13 7
1 9 13
1 4 5
0 14 11
0 9 2
0 9 2
0 9 2
0 9 2
0 9 2
0 9 2
0 5 9
0 5 9
0 5 9
0 5 9
0 5 9
0 5 9
0 5 9
0 5 9
0 5 9
0 5 9
0 5 9
0 5 9
0 5 9
0 5 9
0 5 9
0 5 9
0 5 9
0 5 9
0 5 9
0 5 9
0 5 9
0 5 9
0 5 9
0 5 9
0 9 2
0 9 2
0 9 2
0 9 2
0 9 2
0 9 2
0 9 2
0 9 2
0 9 2
0 9 2
0 14 11
0 14 11
1 4 5
1 9 13
1 9 13
1 9 13
1 4 5
1 4 5
1 4 5
1 9 13
1 9 13
1 9 13
1 13 7
1 13 7
4 5 9
0 0 0
5 9 13
0 0 0
0 0 0
0 0 0
0 0 0
0 0 0
0 0 0
0 0 0
0 0 0
0 0 0
0 0 0
0 0 0
0 0 0
0 0 0
0 0 0
0 0 0
0 0 0
0 0 0
6 6 2
2 7 5
1 13 7
1 9 13
1 4 5
0 14 11
0 14 11
0 9 2
0 9 2
0 9 2
0 9 2
0 9 2
0 9 2
0 5 9
0 5 9
0 5 9
0 5 9
0 5 9
0 5 9
0 5 9
0 5 9
0 5 9
0 5 9
0 5 9
0 5 9
0 5 9
0 5 9
0 5 9
0 5 9
0 5 9
0 5 9
0 5 9
0 5 9
0 5 9
0 5 9
0 5 9
0 9 2
0 9 2
0 9 2
0 9 2
0 9 2
0 9 2
0 9 2
0 14 11
0 14 11
0 14 11
1 4 5
1 4 5
1 13 7
2 7 5
1 13 7
1 13 7
1 13 7
1 13 7
1 13 7
1 13 7
1 13 7
1 13 7
1 13 7
1 3 1
2 2 12
4 0 0
0 0 0
0 0 0
0 0 0
0 0 0
0 0 0
0 0 0
0 0 0
0 0 0
0 0 0
0 0 0
0 0 0
0 0 0
0 0 0
0 0 0
0 0 0
0 0 0
0 0 0
0 0 0
0 0 0
3 1 4
2 8 9
3 10 6
1 4 5
0 14 11
0 14 11
0 9 2
0 9 2
0 9 2
0 9 2
0 9 2
0 9 2
0 5 9
0 5 9
0 5 9
0 5 9
0 5 9
0 5 9
0 5 9
0 5 9
0 5 9
0 5 9
0 5 9
0 5 9
0 5 9
0 5 9
0 5 9
0 5 9
0 5 9
0 5 9
0 5 9
0 5 9
0 5 9
0 5 9
0 5 9
0 9 2
0 9 2
0 9 2
0 9 2
0 14 11
0 14 11
0 14 11
0 14 11
0 14 11
1 4 5
1 4 5
1 9 13
1 13 7
3 6 2
2 8 9
2 8 9
1 3 1
2 7 5
2 13 3
1 3 1
1 3 1
1 3 1
1 3 1
2 13 3
0 0 0
0 0 0
0 0 0
0 0 0
0 0 0
0 0 0
0 0 0
0 0 0
0 0 0
0 0 0
0 0 0
0 0 0
0 0 0
0 0 0
0 0 0
0 0 0
0 0 0
0 0 0
0 0 0
0 0 0
0 0 0
0 0 0
0 0 0
3 5 13
1 4 5
0 14 11
0 14 11
0 9 2
0 9 2
0 9 2
0 9 2
0 9 2
0 9 2
0 5 9
0 5 9
0 5 9
0 5 9
0 5 9
0 5 9
0 5 9
0 5 9
0 5 9
0 5 9
0 5 9
0 5 9
0 5 9
0 5 9
0 5 9
0 5 9
0 5 9
0 5 9
0 5 9
0 5 9
0 5 9
0 5 9
0 9 2
0 9 2
0 9 2
0 14 11
0 14 11
0 14 11
0 14 11
0 14 11
0 14 11
1 4 5
1 4 5
1 4 5
1 9 13
1 13 7
2 13 3
3 11 10
4 0 0
2 7 5
2 12 14
7 11 10
2 12 14
2 2 12
2 8 9
2 8 9
2 2 12
4 4 5
0 0 0
0 0 0
0 0 0
0 0 0
0 0 0
0 0 0
0 0 0
0 0 0
0 0 0
0 0 0
0 0 0
0 0 0
0 0 0
0 0 0
0 0 0
0 0 0
0 0 0
0 0 0
0 0 0
0 0 0
0 0 0
3 6 2
1 3 1
1 9 13
0 14 11
0 14 11
0 9 2
0 9 2
0 9 2
0 9 2
0 9 2
0 9 2
0 9 2
0 5 9
0 5 9
0 5 9
0 5 9
0 5 9
0 5 9
0 5 9
0 5 9
0 5 9
0 5 9
0 5 9
0 5 9
0 5 9
0 5 9
0 5 9
0 5 9
0 5 9
0 5 9
0 5 9
0 5 9
0 5 9
0 9 2
0 9 2
0 14 11
0 14 11
0 14 11
0 14 11
0 14 11
0 14 11
1 4 5
1 4 5
1 4 5
1 4 5
1 13 7
1 13 7
2 8 9
3 6 2
0 0 0
4 4 5
0 0 0
0 0 0
0 0 0
5 9 13
2 12 14
2 2 12
2 12 14
0 0 0
0 0 0
0 0 0
0 0 0
0 0 0
0 0 0
0 0 0
0 0 0
0 0 0
0 0 0
0 0 0
0 0 0
0 0 0
0 0 0
0 0 0
0 0 0
0 0 0
0 0 0
0 0 0
0 0 0
0 0 0
0 0 0
3 2 8
1 3 1
1 4 5
0 14 11
0 14 11
0 14 11
0 9 2
0 9 2
0 9 2
0 9 2
0 9 2
0 9 2
0 5 9
0 5 9
0 5 9
0 5 9
0 5 9
0 5 9
0 5 9
0 5 9
0 5 9
0 5 9
0 5 9
0 5 9
0 5 9
0 5 9
0 5 9
0 5 9
0 5 9
0 5 9
0 5 9
0 5 9
0 5 9
0 9 2
0 14 11
0 14 11
0 14 11
0 14 11
0 14 11
0 14 11
1 4 5
1 4 5
1 4 5
1 4 5
1 9 13
1 13 7
1 3 1
2 2 12
3 5 13
0 0 0
0 0 0
0 0 0
0 0 0
0 0 0
0 0 0
0 0 0
3 6 2
3 11 10
0 0 0
0 0 0
0 0 0
0 0 0
0 0 0
0 0 0
0 0 0
0 0 0
0 0 0
0 0 0
0 0 0
0 0 0
0 0 0
0 0 0
0 0 0
0 0 0
0 0 0
0 0 0
0 0 0
0 0 0
0 0 0
0 0 0
6 7 5
1 13 7
1 4 5
0 14 11
0 14 11
0 14 11
0 9 2
0 9 2
0 9 2
0 9 2
0 9 2
0 9 2
0 5 9
0 5 9
0 5 9
0 5 9
0 5 9
0 5 9
0 5 9
0 5 9
0 5 9
0 5 9
0 5 9
0 5 9
0 5 9
0 5 9
0 5 9
0 5 9
0 5 9
0 5 9
0 5 9
0 5 9
0 5 9
0 14 11
0 14 11
0 14 11
0 14 11
0 14 11
0 14 11
1 4 5
1 4 5
1 4 5
1 9 13
1 13 7
3 1 4
2 8 9
2 13 3
3 10 6
0 0 0
0 0 0
0 0 0
0 0 0
0 0 0
0 0 0
0 0 0
0 0 0
0 0 0
4 9 2
0 0 0
0 0 0
0 0 0
0 0 0
0 0 0
0 0 0
0 0 0
0 0 0
0 0 0
0 0 0
0 0 0
0 0 0
0 0 0
0 0 0
0 0 0
0 0 0
0 0 0
0 0 0
0 0 0
0 0 0
0 0 0
0 0 0
5 8 9
1 9 13
1 4 5
0 14 11
0 14 11
0 14 11
0 9 2
0 9 2
0 9 2
0 9 2
0 9 2
0 9 2
0 5 9
0 5 9
0 5 9
0 5 9
0 5 9
0 5 9
0 5 9
0 5 9
0 5 9
0 5 9
0 5 9
0 5 9
0 5 9
0 5 9
0 5 9
0 5 9
0 5 9
0 5 9
0 5 9
0 5 9
0 5 9
0 14 11
0 14 11
0 14 11
0 14 11
0 14 11
1 9 13
1 9 13
1 9 13
1 9 13
1 13 7
1 3 1
2 7 5
2 12 14
3 2 8
4 9 2
0 0 0
0 0 0
0 0 0
0 0 0
0 0 0
0 0 0
0 0 0
0 0 0
0 0 0
6 2 8
0 0 0
0 0 0
0 0 0
0 0 0
0 0 0
0 0 0
0 0 0
0 0 0
0 0 0
0 0 0
0 0 0
0 0 0
0 0 0
0 0 0
0 0 0
0 0 0
0 0 0
0 0 0
0 0 0
0 0 0
0 0 0
0 0 0
1 3 1
1 9 13
1 4 5
0 14 11
0 14 11
0 14 11
0 9 2
0 9 2
0 9 2
0 9 2
0 9 2
0 9 2
0 5 9
0 5 9
0 5 9
0 5 9
0 5 9
0 5 9
0 5 9
0 5 9
0 5 9
0 5 9
0 5 9
0 5 9
0 5 9
0 5 9
0 5 9
0 5 9
0 5 9
0 5 9
0 5 9
0 5 9
0 5 9
1 4 5
1 4 5
1 9 13
1 13 7
1 3 1
1 13 7
1 9 13
1 13 7
1 3 1
1 3 1
2 13 3
3 2 8
0 0 0
0 0 0
8 9 13
0 0 0
0 0 0
0 0 0
0 0 0
0 0 0
0 0 0
0 0 0
0 0 0
0 0 0
12 9 13
0 0 0
0 0 0
0 0 0
0 0 0
0 0 0
0 0 0
0 0 0
0 0 0
0 0 0
0 0 0
0 0 0
0 0 0
0 0 0
0 0 0
0 0 0
0 0 0
0 0 0
0 0 0
0 0 0
0 0 0
0 0 0
2 13 3
1 13 7
1 9 13
1 4 5
0 14 11
0 14 11
0 14 11
0 9 2
0 9 2
0 9 2
0 9 2
0 9 2
0 9 2
0 5 9
0 5 9
0 5 9
0 5 9
0 5 9
0 5 9
0 5 9
0 5 9
0 5 9
0 5 9
0 5 9
0 5 9
0 5 9
0 5 9
0 5 9
0 5 9
0 5 9
0 5 9
0 5 9
0 5 9
0 0 0
0 0 0
0 0 0
0 0 0
0 0 0
0 0 0
0 0 0
0 0 0
0 0 0
0 0 0
0 0 0
0 0 0
0 0 0
0 0 0
0 0 0
0 0 0
0 0 0
0 0 0
0 0 0
0 0 0
0 0 0
0 0 0
0 0 0
0 0 0
0 0 0
0 0 0
0 0 0
0 0 0
0 0 0
0 0 0
0 0 0
0 0 0
0 0 0
0 0 0
0 0 0
0 0 0
0 0 0
0 0 0
0 0 0
0 0 0
0 0 0
0 0 0
0 0 0
0 0 0
0 0 0
0 0 0
2 7 5
1 3 1
1 13 7
1 9 13
1 4 5
0 14 11
0 14 11
0 14 11
0 9 2
0 9 2
0 9 2
0 9 2
0 9 2
0 9 2
0 9 2
0 5 9
0 5 9
0 5 9
0 5 9
0 5 9
0 5 9
0 5 9
0 5 9
0 5 9
0 5 9
0 5 9
0 5 9
0 5 9
0 5 9
0 5 9
0 5 9
0 5 9
0 5 9
0 5 9
0 5 9
1 4 5
1 4 5
1 9 13
1 13 7
1 3 1
1 13 7
1 9 13
1 13 7
1 3 1
1 3 1
2 13 3
3 2 8
0 0 0
0 0 0
8 9 13
0 0 0
0 0 0
0 0 0
0 0 0
0 0 0
0 0 0
0 0 0
0 0 0
0 0 0
12 9 13
0 0 0
0 0 0
0 0 0
0 0 0
0 0 0
0 0 0
0 0 0
0 0 0
0 0 0
0 0 0
0 0 0
0 0 0
0 0 0
0 0 0
0 0 0
0 0 0
0 0 0
0 0 0
0 0 0
0 0 0
0 0 0
2 13 3
1 13 7
1 9 13
1 4 5
0 14 11
0 14 11
0 14 11
0 9 2
0 9 2
0 9 2
0 9 2
0 9 2
0 9 2
0 5 9
0 5 9
0 5 9
0 5 9
0 5 9
0 5 9
0 5 9
0 5 9
0 5 9
0 5 9
0 5 9
0 5 9
0 5 9
0 5 9
0 5 9
0 5 9
0 5 9
0 5 9
0 5 9
0 5 9
0 5 9
0 14 11
0 14 11
0 14 11
0 14 11
0 14 11
1 9 13
1 9 13
1 9 13
1 9 13
1 13 7
1 3 1
2 7 5
2 12 14
3 2 8
4 9 2
0 0 0
0 0 0
0 0 0
0 0 0
0 0 0
0 0 0
0 0 0
0 0 0
0 0 0
6 2 8
0 0 0
0 0 0
0 0 0
0 0 0
0 0 0
0 0 0
0 0 0
0 0 0
0 0 0
0 0 0
0 0 0
0 0 0
0 0 0
0 0 0
0 0 0
0 0 0
0 0 0
0 0 0
0 0 0
0 0 0
0 0 0
0 0 0
1 3 1
1 9 13
1 4 5
0 14 11
0 14 11
0 14 11
0 9 2
0 9 2
0 9 2
0 9 2
0 9 2
0 9 2
0 5 9
0 5 9
0 5 9
0 5 9
0 5 9
0 5 9
0 5 9
0 5 9
0 5 9
0 5 9
0 5 9
0 5 9
0 5 9
0 5 9
0 5 9
0 5 9
0 5 9
0 5 9
0 5 9
0 5 9
0 5 9
0 14 11
0 14 11
0 14 11
0 14 11
0 14 11
0 14 11
1 4 5
1 4 5
1 4 5
1 9 13
1 13 7
3 1 4
2 8 9
2 13 3
3 10 6
0 0 0
0 0 0
0 0 0
0 0 0
0 0 0
0 0 0
0 0 0
0 0 0
0 0 0
4 9 2
0 0 0
0 0 0
0 0 0
0 0 0
0 0 0
0 0 0
0 0 0
0 0 0
0 0 0
0 0 0
0 0 0
0 0 0
0 0 0
0 0 0
0 0 0
0 0 0
0 0 0
0 0 0
0 0 0
0 0 0
0 0 0
0 0 0
5 8 9
1 9 13
1 4 5
0 14 11
0 14 11
0 14 11
0 9 2
0 9 2
0 9 2
0 9 2
0 9 2
0 9 2
0 5 9
0 5 9
0 5 9
0 5 9
0 5 9
0 5 9
0 5 9
0 5 9
0 5 9
0 5 9
0 5 9
0 5 9
0 5 9
0 5 9
0 5 9
0 5 9
0 5 9
0 5 9
0 5 9
0 5 9
0 5 9
0 9 2
0 14 11
0 14 11
0 14 11
0 14 11
0 14 11
0 14 11
1 4 5
1 4 5
1 4 5
1 4 5
1 9 13
1 13 7
1 3 1
2 2 12
3 5 13
0 0 0
0 0 0
0 0 0
0 0 0
0 0 0
0 0 0
0 0 0
3 6 2
3 11 10
0 0 0
0 0 0
0 0 0
0 0 0
0 0 0
0 0 0
0 0 0
0 0 0
0 0 0
0 0 0
0 0 0
0 0 0
0 0 0
0 0 0
0 0 0
0 0 0
0 0 0
0 0 0
0 0 0
0 0 0
0 0 0
0 0 0
6 7 5
1 13 7
1 4 5
0 14 11
0 14 11
0 14 11
0 9 2
0 9 2
0 9 2
0 9 2
0 9 2
0 9 2
0 5 9
0 5 9
0 5 9
0 5 9
0 5 9
0 5 9
0 5 9
0 5 9
0 5 9
0 5 9
0 5 9
0 5 9
0 5 9
0 5 9
0 5 9
0 5 9
0 5 9
0 5 9
0 5 9
0 5 9
0 5 9
0 9 2
0 9 2
0 14 11
0 14 11
0 14 11
0 14 11
0 14 11
0 14 11
1 4 5
1 4 5
1 4 5
1 4 5
1 13 7
1 13 7
2 8 9
3 6 2
0 0 0
4 4 5
0 0 0
0 0 0
0 0 0
5 9 13
2 12 14
2 2 12
2 12 14
0 0 0
0 0 0
0 0 0
0 0 0
0 0 0
0 0 0
0 0 0
0 0 0
0 0 0
0 0 0
0 0 0
0 0 0
0 0 0
0 0 0
0 0 0
0 0 0
0 0 0
0 0 0
0 0 0
0 0 0
0 0 0
0 0 0
3 2 8
1 3 1
1 4 5
0 14 11
0 14 11
0 14 11
0 9 2
0 9 2
0 9 2
0 9 2
0 9 2
0 9 2
0 5 9
0 5 9
0 5 9
0 5 9
0 5 9
0 5 9
0 5 9
0 5 9
0 5 9
0 5 9
0 5 9
0 5 9
0 5 9
0 5 9
0 5 9
0 5 9
0 5 9
0 5 9
0 5 9
0 5 9
0 5 9
0 9 2
0 9 2
0 9 2
0 14 11
0 14 11
0 14 11
0 14 11
0 14 11
0 14 11
1 4 5
1 4 5
1 4 5
1 9 13
1 13 7
2 13 3
3 11 10
4 0 0
2 7 5
2 12 14
7 11 10
2 12 14
2 2 12
2 8 9
2 8 9
2 2 12
4 4 5
0 0 0
0 0 0
0 0 0
0 0 0
0 0 0
0 0 0
0 0 0
0 0 0
0 0 0
0 0 0
0 0 0
0 0 0
0 0 0
0 0 0
0 0 0
0 0 0
0 0 0
0 0 0
0 0 0
0 0 0
0 0 0
3 6 2
1 3 1
1 9 13
0 14 11
0 14 11
0 9 2
0 9 2
0 9 2
0 9 2
0 9 2
0 9 2
0 9 2
0 5 9
0 5 9
0 5 9
0 5 9
0 5 9
0 5 9
0 5 9
0 5 9
0 5 9
0 5 9
0 5 9
0 5 9
0 5 9
0 5 9
0 5 9
0 5 9
0 5 9
0 5 9
0 5 9
0 5 9
0 5 9
0 5 9
0 9 2
0 9 2
0 9 2
0 9 2
0 14 11
0 14 11
0 14 11
0 14 11
0 14 11
1 4 5
1 4 5
1 9 13
1 13 7
3 6 2
2 8 9
2 8 9
1 3 1
2 7 5
2 13 3
1 3 1
1 3 1
1 3 1
1 3 1
2 13 3
0 0 0
0 0 0
0 0 0
0 0 0
0 0 0
0 0 0
0 0 0
0 0 0
0 0 0
0 0 0
0 0 0
0 0 0
0 0 0
0 0 0
0 0 0
0 0 0
0 0 0
0 0 0
0 0 0
0 0 0
0 0 0
0 0 0
0 0 0
3 5 13
1 4 5
0 14 11
0 14 11
0 9 2
0 9 2
0 9 2
0 9 2
0 9 2
0 9 2
0 5 9
0 5 9
0 5 9
0 5 9
0 5 9
0 5 9
0 5 9
0 5 9
0 5 9
0 5 9
0 5 9
0 5 9
0 5 9
0 5 9
0 5 9
0 5 9
0 5 9
0 5 9
0 5 9
0 5 9
0 5 9
0 5 9
0 5 9
0 9 2
0 9 2
0 9 2
0 9 2
0 9 2
0 9 2
0 9 2
0 14 11
0 14 11
0 14 11
1 4 5
1 4 5
1 13 7
2 7 5
1 13 7
1 13 7
1 13 7
1 13 7
1 13 7
1 13 7
1 13 7
1 13 7
1 13 7
1 3 1
2 2 12
4 0 0
0 0 0
0 0 0
0 0 0
0 0 0
0 0 0
0 0 0
0 0 0
0 0 0
0 0 0
0 0 0
0 0 0
0 0 0
0 0 0
0 0 0
0 0 0
0 0 0
0 0 0
0 0 0
0 0 0
3 1 4
2 8 9
3 10 6
1 4 5
0 14 11
0 14 11
0 9 2
0 9 2
0 9 2
0 9 2
0 9 2
0 9 2
0 5 9
0 5 9
0 5 9
0 5 9
0 5 9
0 5 9
0 5 9
0 5 9
0 5 9
0 5 9
0 5 9
0 5 9
0 5 9
0 5 9
0 5 9
0 5 9
0 5 9
0 5 9
0 5 9
0 5 9
0 5 9
0 5 9
0 5 9
0 9 2
0 9 2
0 9 2
0 9 2
0 9 2
0 9 2
0 9 2
0 9 2
0 9 2
0 9 2
0 14 11
0 14 11
1 4 5
1 9 13
1 9 13
1 9 13
1 4 5
1 4 5
1 4 5
1 9 13
1 9 13
1 9 13
1 13 7
1 13 7
4 5 9
0 0 0
5 9 13
0 0 0
0 0 0
0 0 0
0 0 0
0 0 0
0 0 0
0 0 0
0 0 0
0 0 0
0 0 0
0 0 0
0 0 0
0 0 0
0 0 0
0 0 0
0 0 0
0 0 0
6 6 2
2 7 5
1 13 7
1 9 13
1 4 5
0 14 11
0 14 11
0 9 2
0 9 2
0 9 2
0 9 2
0 9 2
0 9 2
0 5 9
0 5 9
0 5 9
0 5 9
0 5 9
0 5 9
0 5 9
0 5 9
0 5 9
0 5 9
0 5 9
0 5 9
0 5 9
0 5 9
0 5 9
0 5 9
0 5 9
0 5 9
0 5 9
0 5 9
0 5 9
0 5 9
0 5 9
0 5 9
0 9 2
0 9 2
0 9 2
0 9 2
0 9 2
0 9 2
0 9 2
0 9 2
0 9 2
0 9 2
0 9 2
0 14 11
0 14 11
1 4 5
1 4 5
1 4 5
1 4 5
1 4 5
1 4 5
1 4 5
1 9 13
1 9 13
1 9 13
1 3 1
3 2 8
2 7 5
12 4 5
0 0 0
0 0 0
0 0 0
0 0 0
0 0 0
0 0 0
0 0 0
0 0 0
0 0 0
0 0 0
0 0 0
0 0 0
0 0 0
0 0 0
0 0 0
0 0 0
0 0 0
4 0 0
1 13 7
1 9 13
1 4 5
0 14 11
0 9 2
0 9 2
0 9 2
0 9 2
0 9 2
0 9 2
0 5 9
0 5 9
0 5 9
0 5 9
0 5 9
0 5 9
0 5 9
0 5 9
0 5 9
0 5 9
0 5 9
0 5 9
0 5 9
0 5 9
0 5 9
0 5 9
0 5 9
0 5 9
0 5 9
0 5 9
0 5 9
0 5 9
0 5 9
0 5 9
0 5 9
0 9 2
0 9 2
0 9 2
0 9 2
0 9 2
0 9 2
0 9 2
0 9 2
0 9 2
0 9 2
0 9 2
0 9 2
0 9 2
0 14 11
0 14 11
1 4 5
1 4 5
1 4 5
1 4 5
1 4 5
1 4 5
1 9 13
1 9 13
1 9 13
1 3 1
2 13 3
0 0 0
0 0 0
0 0 0
0 0 0
0 0 0
0 0 0
0 0 0
0 0 0
0 0 0
0 0 0
0 0 0
0 0 0
0 0 0
0 0 0
0 0 0
0 0 0
0 0 0
0 0 0
4 4 5
2 8 9
1 4 5
1 4 5
0 14 11
0 9 2
0 9 2
0 9 2
0 9 2
0 9 2
0 9 2
0 5 9
0 5 9
0 5 9
0 5 9
0 5 9
0 5 9
0 5 9
0 5 9
0 5 9
0 5 9
0 5 9
0 5 9
0 5 9
0 5 9
0 5 9
0 5 9
0 5 9
0 5 9
0 5 9
0 5 9
0 5 9
0 5 9
0 5 9
0 5 9
0 5 9
0 5 9
0 9 2
0 9 2
0 9 2
0 9 2
0 9 2
0 9 2
0 9 2
0 9 2
0 9 2
0 9 2
0 9 2
0 9 2
0 9 2
0 14 11
0 14 11
0 14 11
0 14 11
1 4 5
1 4 5
1 4 5
1 4 5
1 9 13
1 9 13
1 13 7
2 7 5
8 14 11
0 0 0
3 11 10
5 13 7
0 0 0
0 0 0
0 0 0
0 0 0
0 0 0
0 0 0
0 0 0
0 0 0
0 0 0
0 0 0
4 0 0
2 7 5
3 2 8
3 6 2
3 11 10
3 6 2
1 4 5
0 14 11
0 9 2
0 9 2
0 9 2
0 9 2
0 9 2
0 9 2
0 5 9
0 5 9
0 5 9
0 5 9
0 5 9
0 5 9
0 5 9
0 5 9
0 5 9
0 5 9
0 5 9
0 5 9
0 5 9
0 5 9
0 5 9
0 5 9
0 5 9
0 5 9
0 5 9
0 5 9
0 5 9
0 5 9
0 5 9
0 5 9
0 5 9
0 5 9
0 5 9
0 9 2
0 9 2
0 9 2
0 9 2
0 9 2
0 9 2
0 9 2
0 9 2
0 9 2
0 9 2
0 9 2
0 9 2
0 9 2
0 9 2
0 14 11
0 14 11
0 14 11
0 14 11
0 14 11
1 4 5
1 4 5
1 4 5
1 9 13
1 13 7
2 12 14
9 2 12
2 7 5
2 13 3
14 1 4
4 0 0
0 0 0
0 0 0
12 4 5
15 10 6
15 5 13
0 0 0
4 14 11
7 5 13
2 12 14
8 9 2
1 3 1
1 3 1
1 3 1
3 6 2
1 13 7
1 4 5
0 14 11
0 9 2
0 9 2
0 9 2
0 9 2
0 9 2
0 9 2
0 5 9
0 5 9
0 5 9
0 5 9
0 5 9
0 5 9
0 5 9
0 5 9
0 5 9
0 5 9
0 5 9
0 5 9
0 5 9
0 5 9
0 5 9
0 5 9
0 5 9
0 5 9
0 5 9
0 5 9
0 5 9
0 5 9
0 5 9
0 5 9
0 5 9
0 5 9
0 5 9
0 5 9
0 9 2
0 9 2
0 9 2
0 9 2
0 9 2
0 9 2
0 9 2
0 9 2
0 9 2
0 9 2
0 9 2
0 9 2
0 9 2
0 9 2
0 14 11
0 14 11
0 14 11
0 14 11
0 14 11
0 14 11
1 4 5
1 4 5
1 9 13
1 13 7
1 3 1
1 3 1
1 3 1
1 3 1
2 8 9
2 13 3
3 2 8
0 0 0
0 0 0
0 0 0
0 0 0
2 12 14
2 13 3
2 8 9
1 3 1
1 9 13
1 9 13
1 9 13
3 5 13
1 4 5
0 14 11
0 14 11
0 9 2
0 9 2
0 9 2
0 9 2
0 9 2
0 5 9
0 5 9
0 5 9
0 5 9
0 5 9
0 5 9
0 5 9
0 5 9
0 5 9
0 5 9
0 5 9
0 5 9
0 5 9
0 5 9
0 5 9
0 5 9
0 5 9
0 5 9
0 5 9
0 5 9
0 5 9
0 5 9
0 5 9
0 5 9
0 5 9
0 5 9
0 5 9
0 5 9
0 5 9
0 5 9
0 9 2
0 9 2
0 9 2
0 9 2
0 9 2
0 9 2
0 9 2
0 9 2
0 9 2
0 9 2
0 9 2
0 9 2
0 9 2
0 9 2
0 9 2
0 14 11
0 14 11
0 14 11
0 14 11
0 14 11
0 14 11
1 4 5
1 4 5
1 9 13
1 9 13
1 9 13
1 13 7
1 13 7
2 8 9
4 9 2
0 0 0
0 0 0
0 0 0
0 0 0
6 6 2
1 3 1
1 13 7
1 9 13
1 9 13
1 4 5
1 4 5
1 4 5
0 14 11
0 14 11
0 9 2
0 9 2
0 9 2
0 9 2
0 9 2
0 5 9
0 5 9
0 5 9
0 5 9
0 5 9
0 5 9
0 5 9
0 5 9
0 5 9
0 5 9
0 5 9
0 5 9
0 5 9
0 5 9
0 5 9
0 5 9
0 5 9
0 5 9
0 5 9
0 5 9
0 5 9
0 5 9
0 5 9
0 5 9
0 5 9
0 5 9
0 5 9
0 5 9
0 5 9
0 5 9
0 5 9
0 9 2
0 9 2
0 9 2
0 9 2
0 9 2
0 9 2
0 9 2
0 9 2
0 9 2
0 9 2
0 9 2
0 9 2
0 9 2
0 9 2
0 9 2
0 9 2
0 14 11
0 14 11
0 14 11
0 14 11
0 14 11
0 14 11
0 14 11
1 4 5
1 4 5
1 9 13
1 9 13
1 13 7
1 3 1
3 2 8
0 0 0
0 0 0
0 0 0
0 0 0
3 5 13
1 3 1
1 9 13
1 4 5
1 4 5
1 4 5
1 4 5
0 14 11
0 14 11
0 9 2
0 9 2
0 9 2
0 9 2
0 9 2
0 9 2
0 5 9
0 5 9
0 5 9
0 5 9
0 5 9
0 5 9
0 5 9
0 5 9
0 5 9
0 5 9
0 5 9
0 5 9
0 5 9
0 5 9
0 5 9
0 5 9
0 5 9
0 5 9
0 5 9
0 5 9
0 5 9
0 5 9
0 5 9
0 5 9
0 5 9
0 5 9
0 5 9
0 5 9
0 5 9
0 5 9
0 5 9
0 5 9
0 9 2
0 9 2
0 9 2
0 9 2
0 9 2
0 9 2
0 9 2
0 9 2
0 9 2
0 9 2
0 9 2
0 9 2
0 9 2
0 9 2
0 9 2
0 9 2
0 14 11
0 14 11
0 14 11
0 14 11
0 14 11
0 14 11
0 14 11
1 4 5
1 4 5
1 4 5
1 9 13
2 2 12
8 9 2
3 6 2
4 14 11
0 0 0
3 5 13
3 11 10
1 13 7
1 4 5
1 4 5
1 4 5
0 14 11
0 14 11
0 14 11
0 14 11
0 9 2
0 9 2
0 9 2
0 9 2
0 9 2
0 5 9
0 5 9
0 5 9
0 5 9
0 5 9
0 5 9
0 5 9
0 5 9
0 5 9
0 5 9
0 5 9
0 5 9
0 5 9
0 5 9
0 5 9
0 5 9
0 5 9
0 5 9
0 5 9
0 5 9
0 5 9
0 5 9
0 5 9
0 5 9
0 5 9
0 5 9
0 5 9
0 5 9
0 5 9
0 5 9
0 5 9
0 5 9
0 5 9
0 5 9
0 9 2
0 9 2
0 9 2
0 9 2
0 9 2
0 9 2
0 9 2
0 9 2
0 9 2
0 9 2
0 9 2
0 9 2
0 9 2
0 9 2
0 9 2
0 9 2
0 14 11
0 14 11
0 14 11
0 14 11
0 14 11
0 14 11
0 14 11
1 4 5
1 4 5
1 4 5
1 9 13
1 3 1
2 8 9
7 1 4
4 4 5
2 2 12
1 3 1
1 9 13
1 4 5
1 4 5
0 14 11
0 14 11
0 14 11
0 14 11
0 9 2
0 9 2
0 9 2
0 9 2
0 9 2
0 5 9
0 5 9
0 5 9
0 5 9
0 5 9
0 5 9
0 5 9
0 5 9
0 5 9
0 5 9
0 5 9
0 5 9
0 5 9
0 5 9
0 5 9
0 5 9
0 5 9
0 5 9
0 5 9
0 5 9
0 5 9
0 5 9
0 5 9
0 5 9
0 5 9
0 5 9
0 5 9
0 5 9
0 5 9
0 5 9
0 5 9
0 5 9
0 5 9
0 5 9
0 5 9
0 5 9
0 9 2
0 9 2
0 9 2
0 9 2
0 9 2
0 9 2
0 9 2
0 9 2
0 9 2
0 9 2
0 9 2
0 9 2
0 9 2
0 9 2
0 9 2
0 9 2
0 14 11
0 14 11
0 14 11
0 14 11
0 14 11
0 14 11
0 14 11
1 4 5
1 4 5
1 4 5
1 13 7
1 3 1
2 13 3
4 14 11
2 13 3
1 13 7
1 9 13
1 4 5
0 14 11
0 14 11
0 14 11
0 14 11
0 9 2
0 9 2
0 9 2
0 9 2
0 9 2
0 5 9
0 5 9
0 5 9
0 5 9
0 5 9
0 5 9
0 5 9
0 5 9
0 5 9
0 5 9
0 5 9
0 5 9
0 5 9
0 5 9
0 5 9
0 5 9
0 5 9
0 5 9
0 5 9
0 5 9
0 5 9
0 5 9
0 5 9
0 5 9
0 5 9
0 5 9
0 5 9
0 5 9
0 5 9
0 5 9
0 5 9
0 5 9
0 5 9
0 5 9
0 5 9
0 5 9
0 5 9
0 5 9
0 5 9
0 9 2
0 9 2
0 9 2
0 9 2
0 9 2
0 9 2
0 9 2
0 9 2
0 9 2
0 9 2
0 9 2
0 9 2
0 9 2
0 9 2
0 9 2
0 9 2
0 14 11
0 14 11
0 14 11
0 14 11
0 14 11
0 14 11
1 4 5
1 4 5
1 9 13
1 13 7
2 2 12
2 8 9
2 2 12
0 0 0
1 4 5
0 14 11
0 14 11
0 14 11
0 14 11
0 9 2
0 9 2
0 9 2
0 9 2
0 5 9
0 5 9
0 5 9
0 5 9
0 5 9
0 5 9
0 5 9
0 5 9
0 5 9
0 5 9
0 5 9
0 5 9
0 5 9
0 5 9
0 5 9
0 5 9
0 5 9
0 5 9
0 5 9
0 5 9
0 5 9
0 5 9
0 5 9
0 5 9
0 5 9
0 5 9
0 5 9
0 5 9
0 5 9
0 5 9
0 5 9
0 5 9
0 5 9
0 5 9
0 5 9
0 5 9
0 5 9
0 5 9
0 5 9
0 5 9
0 5 9
0 5 9
0 9 2
0 9 2
0 9 2
0 9 2
0 9 2
0 9 2
0 9 2
0 9 2
0 9 2
0 9 2
0 9 2
0 9 2
0 9 2
0 9 2
0 9 2
0 9 2
0 14 11
0 14 11
0 14 11
0 14 11
0 14 11
0 14 11
1 4 5
1 9 13
1 3 1
2 7 5
1 9 13
1 9 13
1 4 5
0 14 11
0 14 11
0 14 11
0 14 11
0 9 2
0 9 2
0 9 2
0 9 2
0 5 9
0 5 9
0 5 9
0 5 9
0 5 9
0 5 9
0 5 9
0 5 9
0 5 9
0 5 9
0 5 9
0 5 9
0 5 9
0 5 9
0 5 9
0 5 9
0 5 9
0 5 9
0 5 9
0 5 9
0 5 9
0 5 9
0 5 9
0 5 9
0 5 9
0 5 9
0 5 9
0 5 9
0 5 9
0 5 9
0 5 9
0 5 9
0 5 9
0 5 9
0 5 9
0 5 9
0 5 9
0 5 9
0 5 9
0 5 9
0 5 9
0 5 9
0 5 9
0 5 9
0 5 9
0 9 2
0 9 2
0 9 2
0 9 2
0 9 2
0 9 2
0 9 2
0 9 2
0 9 2
0 9 2
0 9 2
0 9 2
0 9 2
0 9 2
0 9 2
0 9 2
0 14 11
0 14 11
0 14 11
0 14 11
0 14 11
1 4 5
3 10 6
1 3 1
1 4 5
1 4 5
0 14 11
0 14 11
0 14 11
0 9 2
0 9 2
0 9 2
0 9 2
0 5 9
0 5 9
0 5 9
0 5 9
0 5 9
0 5 9
0 5 9
0 5 9
0 5 9
0 5 9
0 5 9
0 5 9
0 5 9
0 5 9
0 5 9
0 5 9
0 5 9
0 5 9
0 5 9
0 5 9
0 5 9
0 5 9
0 5 9
0 5 9
0 5 9
0 5 9
0 5 9
0 5 9
0 5 9
0 5 9
0 5 9
0 5 9
0 5 9
0 5 9
0 5 9
0 5 9
0 5 9
0 5 9
0 5 9
0 5 9
0 5 9
0 5 9
0 5 9
0 5 9
0 5 9
0 5 9
0 5 9
0 5 9
0 9 2
0 9 2
0 9 2
0 9 2
0 9 2
0 9 2
0 9 2
0 9 2
0 9 2
0 9 2
0 9 2
0 9 2
0 9 2
0 9 2
0 9 2
0 9 2
0 9 2
0 9 2
0 14 11
0 14 11
0 14 11
0 14 11
1 4 5
0 14 11
0 14 11
0 14 11
0 9 2
0 9 2
0 9 2
0 9 2
0 9 2
0 5 9
0 5 9
0 5 9
0 5 9
0 5 9
0 5 9
0 5 9
0 5 9
0 5 9
0 5 9
0 5 9
0 5 9
0 5 9
0 5 9
0 5 9
0 5 9
0 5 9
0 5 9
0 5 9
0 5 9
0 5 9
0 5 9
0 5 9
0 5 9
0 5 9
0 5 9
0 5 9
0 5 9
0 5 9
0 5 9
0 5 9
0 5 9
0 5 9
0 5 9
0 5 9
0 5 9
0 5 9
0 5 9
0 5 9
0 5 9
0 5 9
0 5 9
0 5 9
0 5 9
0 5 9
0 5 9
0 5 9
0 5 9
0 5 9
0 5 9
0 5 9
0 5 9
0 9 2
0 9 2
0 9 2
0 9 2
0 9 2
0 9 2
0 9 2
0 9 2
0 9 2
0 9 2
0 9 2
0 9 2
0 9 2
0 9 2
0 9 2
0 9 2
0 9 2
0 9 2
0 9 2
0 9 2
0 9 2
0 9 2
0 9 2
0 9 2
0 9 2
0 5 9
0 5 9
0 5 9
0 5 9
0 5 9
0 5 9
0 5 9
0 5 9
0 5 9
0 5 9
0 5 9
0 5 9
0 5 9
0 5 9
0 5 9
0 5 9
0 5 9
0 5 9
0 5 9
0 5 9
0 5 9
0 5 9
0 5 9
0 5 9
0 5 9
0 5 9
0 5 9
0 5 9
0 5 9
0 5 9
0 5 9
0 5 9
0 5 9
0 5 9
0 5 9
0 5 9
0 5 9
0 5 9
0 5 9
0 5 9
0 5 9
0 5 9
0 5 9
0 5 9
0 5 9
0 5 9
0 5 9
0 5 9
0 5 9
0 5 9
0 5 9
0 5 9
0 5 9
0 5 9
0 5 9
0 5 9
0 5 9
0 5 9
0 9 2
0 9 2
0 9 2
0 9 2
0 9 2
0 9 2
0 9 2
0 9 2
0 9 2
0 9 2
0 9 2
0 9 2
0 9 2
0 9 2
0 9 2
0 9 2
0 9 2
0 9 2
0 9 2
0 5 9
0 5 9
0 5 9
0 5 9
0 5 9
0 5 9
0 5 9
0 5 9
0 5 9
0 5 9
0 5 9
0 5 9
0 5 9
0 5 9
0 5 9
0 5 9
0 5 9
0 5 9
0 5 9
0 5 9
0 5 9
0 5 9
0 5 9
0 5 9
0 5 9
0 5 9
0 5 9
0 5 9
0 5 9
0 5 9
0 5 9
0 5 9
0 5 9
0 5 9
0 5 9
0 5 9
0 5 9
0 5 9
0 5 9
0 5 9
0 5 9
0 5 9
0 5 9
0 5 9
0 5 9
0 5 9
0 5 9
0 5 9
0 5 9
0 5 9
0 5 9
0 5 9
0 5 9
0 5 9
0 5 9
0 5 9
0 5 9
0 5 9
0 5 9
0 5 9
0 5 9
0 5 9
0 5 9
0 5 9
0 5 9
0 9 2
0 9 2
0 9 2
0 9 2
0 9 2
0 9 2
0 9 2
0 9 2
0 9 2
0 9 2
0 9 2
0 5 9
0 5 9
0 5 9
0 5 9
0 5 9
0 5 9
0 5 9
0 5 9
0 5 9
0 5 9
0 5 9
0 5 9
0 5 9
0 5 9
0 5 9
0 5 9
0 5 9
0 5 9
0 5 9
0 5 9
0 5 9
0 5 9
0 5 9
0 5 9
0 5 9
0 5 9
0 5 9
0 5 9
0 5 9
0 5 9
0 5 9
0 5 9
0 5 9
0 5 9
0 5 9
0 5 9
0 5 9
0 5 9
0 5 9
0 5 9
0 5 9
0 5 9
0 5 9
0 5 9
0 5 9
0 5 9
0 5 9
0 5 9
0 5 9
0 5 9
0 5 9
0 5 9
0 5 9
0 5 9
0 5 9
0 5 9
0 5 9
0 5 9
0 5 9
0 5 9
0 5 9
0 5 9
0 5 9
0 5 9
0 5 9
0 5 9
0 5 9
0 5 9
0 5 9
0 5 9
0 5 9
0 5 9
0 5 9
0 5 9
0 5 9
0 5 9
0 5 9
0 5 9
0 5 9
0 5 9
0 5 9
0 5 9
0 5 9
0 5 9
0 5 9
0 5 9
0 5 9
0 5 9
0 5 9
0 5 9
0 5 9
0 5 9
0 5 9
0 5 9
0 5 9
0 5 9
0 5 9
0 5 9
0 5 9
0 5 9
0 5 9
0 5 9
0 5 9
0 5 9
0 5 9
0 5 9
0 5 9
0 5 9
0 5 9
0 5 9
0 5 9
0 5 9
0 5 9
0 5 9
0 5 9
0 5 9
0 5 9
0 5 9
0 5 9
0 5 9
0 5 9
0 5 9
0 5 9
0 5 9
0 5 9
0 5 9
0 5 9
0 5 9
0 5 9
0 5 9
0 5 9
0 5 9
0 5 9
0 5 9
0 5 9
0 5 9
0 5 9
0 5 9
0 5 9
0 5 9
0 5 9
0 5 9
0 5 9
0 5 9
0 5 9
0 5 9
0 5 9
0 5 9
0 5 9
0 5 9
0 5 9
0 5 9
0 5 9
0 5 9
0 5 9
0 5 9
0 5 9
0 5 9
0 5 9
0 5 9
0 5 9
0 5 9
0 5 9
0 5 9
0 5 9
0 5 9
0 5 9
0 5 9
0 5 9
0 5 9
0 5 9
0 5 9
0 5 9
0 5 9
0 5 9
0 5 9
0 5 9
0 5 9
0 5 9
0 5 9
0 5 9
0 5 9
0 5 9
0 5 9
0 5 9
0 5 9
0 5 9
0 5 9
0 5 9
0 5 9
0 5 9
0 5 9
0 5 9
0 5 9
0 5 9
0 5 9
0 5 9
0 5 9
0 5 9
0 5 9
0 5 9
0 5 9
0 5 9
0 5 9
0 5 9
0 5 9
0 5 9
0 5 9
0 5 9
0 5 9
0 5 9
0 5 9
0 5 9
0 5 9
0 5 9
0 5 9
0 5 9
0 5 9
0 5 9
0 5 9
0 5 9
0 5 9
0 5 9
0 5 9
0 5 9
0 5 9
0 5 9
0 5 9
0 5 9
0 5 9
0 5 9
0 5 9
0 5 9
0 5 9
0 5 9
0 5 9
0 5 9
0 5 9
0 5 9
0 5 9
0 5 9
0 5 9
0 5 9
0 5 9
0 5 9
0 5 9
0 5 9
0 5 9
0 5 9
0 5 9
0 5 9
0 5 9
0 5 9
0 5 9
0 5 9
0 5 9
0 5 9
0 5 9
0 5 9
0 5 9
0 5 9
0 5 9
0 5 9
0 5 9
0 5 9
0 5 9
0 5 9
0 5 9
0 5 9
0 5 9
0 5 9
0 5 9
0 5 9
0 5 9
