P3
40 30
15
2 4 8
2 4 8
2 4 8
2 4 8
2 4 8
2 4 8
2 4 8
2 4 8
2 4 8
2 4 8
2 4 8
2 4 8
2 4 8
2 4 8
2 4 8
2 4 8
2 4 8
2 4 8
2 4 8
2 4 8
2 4 8
2 4 8
2 4 8
2 4 8
2 4 8
2 4 8
2 4 8
2 4 8
2 4 8
2 4 8
2 4 8
2 4 8
2 4 8
2 4 8
2 4 8
2 4 8
2 4 8
2 4 8
2 4 8
2 4 8
2 4 8
2 4 8
2 4 8
2 4 8
2 4 8
2 4 8
2 4 8
2 4 8
2 4 8
2 4 8
2 4 8
2 4 8
2 4 8
2 4 8
2 4 8
2 4 8
2 4 8
2 4 8
2 4 8
2 4 8
2 4 8
2 4 8
2 4 8
2 4 8
2 4 8
2 4 8
2 4 8
2 4 8
2 4 8
2 4 8
2 4 8
2 4 8
2 4 8
2 4 8
2 4 8
2 4 8
2 4 8
2 4 8
2 4 8
2 4 8
2 4 8
2 4 8
2 4 8
2 4 8
2 4 8
2 4 8
2 4 8
2 4 8
2 4 8
2 4 8
2 4 8
2 4 8
2 4 8
2 4 8
2 4 8
2 4 8
2 4 8
2 4 8
2 4 8
2 4 8
2 4 8
2 4 8
2 4 8
2 4 8
2 4 8
2 4 8
2 4 8
2 4 8
2 4 8
2 4 8
2 4 8
2 4 8
2 4 8
2 4 8
2 4 8
2 4 8
2 4 8
2 4 8
2 4 8
2 4 8
2 4 8
2 4 8
2 4 8
2 4 8
2 4 8
2 4 8
2 4 8
2 4 8
2 4 8
2 4 8
2 4 8
2 4 8
2 4 8
2 4 8
2 4 8
2 4 8
2 4 8
2 4 8
2 4 8
2 4 8
2 4 8
2 4 8
2 4 8
2 4 8
2 4 8
2 4 8
2 4 8
2 4 8
2 4 8
2 4 8
2 4 8
2 4 8
2 4 8
2 4 8
2 4 8
2 4 8
2 4 8
2 4 8
2 4 8
2 4 8
2 4 8
2 4 8
2 4 8
2 4 8
2 4 8
2 4 8
2 4 8
2 4 8
2 4 8
2 4 8
2 4 8
2 4 8
2 4 8
2 4 8
2 4 8
2 4 8
2 4 8
2 4 8
2 4 8
2 4 8
2 4 8
2 4 8
2 4 8
2 4 8
2 4 8
2 4 8
2 4 8
2 4 8
2 4 8
2 4 8
2 4 8
2 4 8
2 4 8
2 4 8
2 4 8
2 4 8
2 4 8
2 4 8
2 4 8
2 4 8
2 4 8
2 4 8
2 4 8
2 4 8
2 4 8
2 4 8
2 4 8
2 4 8
2 4 8
2 4 8
2 4 8
2 4 8
2 4 8
2 4 8
2 4 8
2 4 8
2 4 8
2 4 8
2 4 8
2 4 8
2 4 8
2 4 8
2 4 8
2 4 8
2 4 8
0 0 0
2 4 8
2 4 8
2 4 8
2 4 8
2 4 8
2 4 8
2 4 8
2 4 8
2 4 8
2 4 8
2 4 8
2 4 8
2 4 8
2 4 8
2 4 8
2 4 8
2 4 8
2 4 8
2 4 8
2 4 8
2 4 8
2 4 8
2 4 8
2 4 8
2 4 8
2 4 8
2 4 8
2 4 8
2 4 8
2 4 8
2 4 8
2 4 8
2 4 8
2 4 8
2 4 8
2 4 8
2 4 8
2 4 8
0 0 0
2 4 8
2 4 8
2 4 8
2 4 8
2 4 8
2 4 8
2 4 8
2 4 8
2 4 8
2 4 8
2 4 8
2 4 8
2 4 8
2 4 8
2 4 8
2 4 8
2 4 8
2 4 8
2 4 8
2 4 8
2 4 8
2 4 8
2 4 8
2 4 8
2 4 8
2 4 8
2 4 8
2 4 8
2 4 8
2 4 8
2 4 8
2 4 8
2 4 8
2 4 8
2 4 8
2 4 8
2 4 8
2 4 8
0 0 0
0 0 0
2 4 8
2 4 8
2 4 8
2 4 8
2 4 8
2 4 8
2 4 8
2 4 8
2 4 8
2 4 8
2 4 8
2 4 8
2 4 8
2 4 8
2 4 8
2 4 8
2 4 8
2 4 8
2 4 8
2 4 8
2 4 8
2 4 8
2 4 8
2 4 8
2 4 8
2 4 8
2 4 8
2 4 8
2 4 8
2 4 8
2 4 8
2 4 8
2 4 8
2 4 8
2 4 8
2 4 8
2 4 8
2 4 8
0 0 0
0 0 0
2 4 8
2 4 8
2 4 8
2 4 8
2 4 8
2 4 8
2 4 8
2 4 8
2 4 8
2 4 8
2 4 8
2 4 8
2 4 8
2 4 8
2 4 8
2 4 8
2 4 8
2 4 8
2 4 8
2 4 8
2 4 8
2 4 8
2 4 8
2 4 8
2 4 8
2 4 8
2 4 8
2 4 8
2 4 8
2 4 8
2 4 8
2 4 8
2 4 8
2 4 8
2 4 8
0 0 0
0 0 0
0 0 0
0 0 0
0 0 0
0 0 0
0 0 0
2 4 8
2 4 8
2 4 8
2 4 8
2 4 8
2 4 8
2 4 8
2 4 8
2 4 8
2 4 8
2 4 8
2 4 8
2 4 8
2 4 8
2 4 8
2 4 8
2 4 8
2 4 8
2 4 8
2 4 8
2 4 8
2 4 8
2 4 8
2 4 8
2 4 8
2 4 8
2 4 8
2 4 8
2 4 8
2 4 8
2 4 8
2 4 8
2 4 8
0 0 0
0 0 0
0 0 0
0 0 0
0 0 0
0 0 0
0 0 0
0 0 0
0 0 0
2 4 8
2 4 8
2 4 8
2 4 8
2 4 8
2 4 8
2 4 8
2 4 8
2 4 8
2 4 8
2 4 8
2 4 8
2 4 8
2 4 8
2 4 8
2 4 8
2 4 8
2 4 8
2 4 8
2 4 8
2 4 8
2 4 8
2 4 8
2 4 8
2 4 8
2 4 8
2 4 8
2 4 8
2 4 8
2 4 8
0 0 0
0 0 0
0 0 0
0 0 0
0 0 0
0 0 0
0 0 0
0 0 0
0 0 0
0 0 0
2 4 8
2 4 8
2 4 8
2 4 8
2 4 8
2 4 8
2 4 8
2 4 8
2 4 8
2 4 8
2 4 8
2 4 8
2 4 8
2 4 8
2 4 8
2 4 8
2 4 8
2 4 8
2 4 8
2 4 8
2 4 8
2 4 8
2 4 8
2 4 8
2 4 8
2 4 8
0 0 0
2 4 8
2 4 8
0 0 0
0 0 0
0 0 0
0 0 0
0 0 0
0 0 0
0 0 0
0 0 0
0 0 0
0 0 0
0 0 0
2 4 8
2 4 8
2 4 8
2 4 8
2 4 8
2 4 8
2 4 8
2 4 8
2 4 8
2 4 8
2 4 8
2 4 8
2 4 8
2 4 8
2 4 8
2 4 8
2 4 8
2 4 8
2 4 8
2 4 8
2 4 8
2 4 8
2 4 8
2 4 8
2 4 8
0 0 0
0 0 0
0 0 0
2 4 8
0 0 0
0 0 0
0 0 0
0 0 0
0 0 0
0 0 0
0 0 0
0 0 0
0 0 0
0 0 0
0 0 0
0 0 0
2 4 8
2 4 8
2 4 8
2 4 8
2 4 8
2 4 8
2 4 8
2 4 8
2 4 8
2 4 8
2 4 8
2 4 8
2 4 8
2 4 8
2 4 8
2 4 8
2 4 8
2 4 8
2 4 8
2 4 8
2 4 8
2 4 8
2 4 8
0 0 0
0 0 0
0 0 0
0 0 0
0 0 0
0 0 0
0 0 0
0 0 0
0 0 0
0 0 0
0 0 0
0 0 0
0 0 0
0 0 0
0 0 0
0 0 0
2 4 8
2 4 8
2 4 8
2 4 8
2 4 8
2 4 8
2 4 8
2 4 8
2 4 8
2 4 8
2 4 8
2 4 8
2 4 8
2 4 8
2 4 8
2 4 8
0 0 0
0 0 0
0 0 0
0 0 0
0 0 0
0 0 0
0 0 0
0 0 0
0 0 0
0 0 0
0 0 0
0 0 0
0 0 0
0 0 0
0 0 0
0 0 0
0 0 0
0 0 0
0 0 0
0 0 0
0 0 0
0 0 0
0 0 0
2 4 8
2 4 8
2 4 8
2 4 8
2 4 8
2 4 8
2 4 8
2 4 8
2 4 8
2 4 8
2 4 8
2 4 8
2 4 8
2 4 8
2 4 8
2 4 8
2 4 8
2 4 8
2 4 8
2 4 8
2 4 8
2 4 8
2 4 8
2 4 8
2 4 8
0 0 0
0 0 0
0 0 0
0 0 0
0 0 0
0 0 0
0 0 0
0 0 0
0 0 0
0 0 0
0 0 0
0 0 0
0 0 0
0 0 0
0 0 0
0 0 0
2 4 8
2 4 8
2 4 8
2 4 8
2 4 8
2 4 8
2 4 8
2 4 8
2 4 8
2 4 8
2 4 8
2 4 8
2 4 8
2 4 8
2 4 8
2 4 8
2 4 8
2 4 8
2 4 8
2 4 8
2 4 8
2 4 8
2 4 8
2 4 8
2 4 8
0 0 0
0 0 0
0 0 0
2 4 8
0 0 0
0 0 0
0 0 0
0 0 0
0 0 0
0 0 0
0 0 0
0 0 0
0 0 0
0 0 0
0 0 0
0 0 0
2 4 8
2 4 8
2 4 8
2 4 8
2 4 8
2 4 8
2 4 8
2 4 8
2 4 8
2 4 8
2 4 8
2 4 8
2 4 8
2 4 8
2 4 8
2 4 8
2 4 8
2 4 8
2 4 8
2 4 8
2 4 8
2 4 8
2 4 8
2 4 8
2 4 8
0 0 0
2 4 8
2 4 8
0 0 0
0 0 0
0 0 0
0 0 0
0 0 0
0 0 0
0 0 0
0 0 0
0 0 0
0 0 0
0 0 0
2 4 8
2 4 8
2 4 8
2 4 8
2 4 8
2 4 8
2 4 8
2 4 8
2 4 8
2 4 8
2 4 8
2 4 8
2 4 8
2 4 8
2 4 8
2 4 8
2 4 8
2 4 8
2 4 8
2 4 8
2 4 8
2 4 8
2 4 8
2 4 8
2 4 8
2 4 8
2 4 8
2 4 8
2 4 8
2 4 8
0 0 0
0 0 0
0 0 0
0 0 0
0 0 0
0 0 0
0 0 0
0 0 0
0 0 0
0 0 0
2 4 8
2 4 8
2 4 8
2 4 8
2 4 8
2 4 8
2 4 8
2 4 8
2 4 8
2 4 8
2 4 8
2 4 8
2 4 8
2 4 8
2 4 8
2 4 8
2 4 8
2 4 8
2 4 8
2 4 8
2 4 8
2 4 8
2 4 8
2 4 8
2 4 8
2 4 8
2 4 8
2 4 8
2 4 8
2 4 8
2 4 8
0 0 0
0 0 0
0 0 0
0 0 0
0 0 0
0 0 0
0 0 0
0 0 0
0 0 0
2 4 8
2 4 8
2 4 8
2 4 8
2 4 8
2 4 8
2 4 8
2 4 8
2 4 8
2 4 8
2 4 8
2 4 8
2 4 8
2 4 8
2 4 8
2 4 8
2 4 8
2 4 8
2 4 8
2 4 8
2 4 8
2 4 8
2 4 8
2 4 8
2 4 8
2 4 8
2 4 8
2 4 8
2 4 8
2 4 8
2 4 8
0 0 0
0 0 0
0 0 0
0 0 0
0 0 0
0 0 0
0 0 0
2 4 8
2 4 8
2 4 8
2 4 8
2 4 8
2 4 8
2 4 8
2 4 8
2 4 8
2 4 8
2 4 8
2 4 8
2 4 8
2 4 8
2 4 8
2 4 8
2 4 8
2 4 8
2 4 8
2 4 8
2 4 8
2 4 8
2 4 8
2 4 8
2 4 8
2 4 8
2 4 8
2 4 8
2 4 8
2 4 8
2 4 8
2 4 8
2 4 8
2 4 8
2 4 8
2 4 8
0 0 0
0 0 0
2 4 8
2 4 8
2 4 8
2 4 8
2 4 8
2 4 8
2 4 8
2 4 8
2 4 8
2 4 8
2 4 8
2 4 8
2 4 8
2 4 8
2 4 8
2 4 8
2 4 8
2 4 8
2 4 8
2 4 8
2 4 8
2 4 8
2 4 8
2 4 8
2 4 8
2 4 8
2 4 8
2 4 8
2 4 8
2 4 8
2 4 8
2 4 8
2 4 8
2 4 8
2 4 8
2 4 8
2 4 8
2 4 8
0 0 0
0 0 0
2 4 8
2 4 8
2 4 8
2 4 8
2 4 8
2 4 8
2 4 8
2 4 8
2 4 8
2 4 8
2 4 8
2 4 8
2 4 8
2 4 8
2 4 8
2 4 8
2 4 8
2 4 8
2 4 8
2 4 8
2 4 8
2 4 8
2 4 8
2 4 8
2 4 8
2 4 8
2 4 8
2 4 8
2 4 8
2 4 8
2 4 8
2 4 8
2 4 8
2 4 8
2 4 8
2 4 8
2 4 8
2 4 8
2 4 8
0 0 0
2 4 8
2 4 8
2 4 8
2 4 8
2 4 8
2 4 8
2 4 8
2 4 8
2 4 8
2 4 8
2 4 8
2 4 8
2 4 8
2 4 8
2 4 8
2 4 8
2 4 8
2 4 8
2 4 8
2 4 8
2 4 8
2 4 8
2 4 8
2 4 8
2 4 8
2 4 8
2 4 8
2 4 8
2 4 8
2 4 8
2 4 8
2 4 8
2 4 8
2 4 8
2 4 8
2 4 8
2 4 8
2 4 8
2 4 8
2 4 8
0 0 0
2 4 8
2 4 8
2 4 8
2 4 8
2 4 8
2 4 8
2 4 8
2 4 8
2 4 8
2 4 8
2 4 8
2 4 8
2 4 8
2 4 8
2 4 8
2 4 8
2 4 8
2 4 8
2 4 8
2 4 8
2 4 8
2 4 8
2 4 8
2 4 8
2 4 8
2 4 8
2 4 8
2 4 8
2 4 8
2 4 8
2 4 8
2 4 8
2 4 8
2 4 8
2 4 8
2 4 8
2 4 8
2 4 8
2 4 8
2 4 8
2 4 8
2 4 8
2 4 8
2 4 8
2 4 8
2 4 8
2 4 8
2 4 8
2 4 8
2 4 8
2 4 8
2 4 8
2 4 8
2 4 8
2 4 8
2 4 8
2 4 8
2 4 8
2 4 8
2 4 8
2 4 8
2 4 8
2 4 8
2 4 8
2 4 8
2 4 8
2 4 8
2 4 8
2 4 8
2 4 8
2 4 8
2 4 8
2 4 8
2 4 8
2 4 8
2 4 8
2 4 8
2 4 8
2 4 8
2 4 8
2 4 8
2 4 8
2 4 8
2 4 8
2 4 8
2 4 8
2 4 8
2 4 8
2 4 8
2 4 8
2 4 8
2 4 8
2 4 8
2 4 8
2 4 8
2 4 8
2 4 8
2 4 8
2 4 8
2 4 8
2 4 8
2 4 8
2 4 8
2 4 8
2 4 8
2 4 8
2 4 8
2 4 8
2 4 8
2 4 8
2 4 8
2 4 8
2 4 8
2 4 8
2 4 8
2 4 8
2 4 8
2 4 8
2 4 8
2 4 8
2 4 8
2 4 8
2 4 8
2 4 8
2 4 8
2 4 8
2 4 8
2 4 8
2 4 8
2 4 8
2 4 8
2 4 8
2 4 8
2 4 8
2 4 8
2 4 8
2 4 8
2 4 8
2 4 8
2 4 8
2 4 8
2 4 8
2 4 8
2 4 8
2 4 8
2 4 8
2 4 8
2 4 8
2 4 8
2 4 8
2 4 8
2 4 8
2 4 8
2 4 8
2 4 8
2 4 8
2 4 8
2 4 8
2 4 8
2 4 8
2 4 8
2 4 8
2 4 8
2 4 8
2 4 8
2 4 8
2 4 8
2 4 8
2 4 8
2 4 8
2 4 8
2 4 8
2 4 8
2 4 8
