P3
80 60
15
4 13 0
4 13 0
4 13 0
4 13 0
4 13 0
4 13 0
4 13 0
4 13 0
4 13 0
4 13 0
4 13 0
4 13 0
4 13 0
4 13 0
4 13 0
4 13 0
4 13 0
4 13 0
4 13 0
4 13 0
4 13 0
4 13 0
4 13 0
4 13 0
4 13 0
4 13 0
4 13 0
4 13 0
4 13 0
4 13 0
4 13 0
4 13 0
4 13 0
4 13 0
4 13 0
4 13 0
4 13 0
4 13 0
4 13 0
4 13 0
4 13 0
4 13 0
4 13 0
4 13 0
4 13 0
4 13 0
4 13 0
4 13 0
4 13 0
4 13 0
4 13 0
4 13 0
4 13 0
4 13 0
4 13 0
4 13 0
4 13 0
4 13 0
4 13 0
4 13 0
4 13 0
4 13 0
4 13 0
4 13 0
4 13 0
4 13 0
4 13 0
4 13 0
4 13 0
4 13 0
4 13 0
4 13 0
4 13 0
4 13 0
4 13 0
4 13 0
4 13 0
4 13 0
4 13 0
4 13 0
4 13 0
4 13 0
4 13 0
4 13 0
4 13 0
4 13 0
4 13 0
4 13 0
4 13 0
4 13 0
4 13 0
4 13 0
4 13 0
4 13 0
4 13 0
4 13 0
4 13 0
4 13 0
4 13 0
4 13 0
4 13 0
4 13 0
4 13 0
4 13 0
4 13 0
4 13 0
4 13 0
4 13 0
4 13 0
4 13 0
4 13 0
4 13 0
4 13 0
4 13 0
4 13 0
4 13 0
4 13 0
4 13 0
4 13 0
4 13 0
4 13 0
4 13 0
4 13 0
4 13 0
4 13 0
4 13 0
4 13 0
4 13 0
4 13 0
4 13 0
4 13 0
4 13 0
4 13 0
4 13 0
4 13 0
4 13 0
4 13 0
4 13 0
4 13 0
4 13 0
4 13 0
4 13 0
4 13 0
4 13 0
4 13 0
4 13 0
4 13 0
4 13 0
4 13 0
4 13 0
4 13 0
4 13 0
4 13 0
4 13 0
4 13 0
4 13 0
4 13 0
4 13 0
4 13 0
4 13 0
4 13 0
4 13 0
4 13 0
4 13 0
4 13 0
4 13 0
4 13 0
4 13 0
4 13 0
4 13 0
4 13 0
4 13 0
4 13 0
4 13 0
4 13 0
4 13 0
4 13 0
4 13 0
4 13 0
4 13 0
4 13 0
4 13 0
4 13 0
4 13 0
4 13 0
4 13 0
4 13 0
4 13 0
4 13 0
4 13 0
4 13 0
4 13 0
4 13 0
4 13 0
4 13 0
4 13 0
4 13 0
4 13 0
4 13 0
4 13 0
4 13 0
4 13 0
4 13 0
4 13 0
4 13 0
4 13 0
4 13 0
4 13 0
4 13 0
4 13 0
4 13 0
4 13 0
4 13 0
4 13 0
4 13 0
4 13 0
4 13 0
4 13 0
4 13 0
4 13 0
4 13 0
4 13 0
4 13 0
4 13 0
4 13 0
4 13 0
4 13 0
4 13 0
4 13 0
4 13 0
4 13 0
4 13 0
4 13 0
4 13 0
4 13 0
4 13 0
4 13 0
4 13 0
4 13 0
4 13 0
4 13 0
4 13 0
4 13 0
4 13 0
4 13 0
4 13 0
4 13 0
4 13 0
4 13 0
4 13 0
4 13 0
4 13 0
4 13 0
4 13 0
4 13 0
4 13 0
4 13 0
4 13 0
4 13 0
4 13 0
4 13 0
4 13 0
4 13 0
4 13 0
4 13 0
4 13 0
4 13 0
4 13 0
4 13 0
4 13 0
4 13 0
4 13 0
4 13 0
4 13 0
4 13 0
4 13 0
4 13 0
4 13 0
4 13 0
4 13 0
4 13 0
4 13 0
4 13 0
4 13 0
4 13 0
4 13 0
4 13 0
4 13 0
4 13 0
4 13 0
4 13 0
4 13 0
4 13 0
4 13 0
4 13 0
4 13 0
4 13 0
4 13 0
4 13 0
4 13 0
4 13 0
4 13 0
4 13 0
4 13 0
4 13 0
4 13 0
4 13 0
4 13 0
4 13 0
4 13 0
4 13 0
4 13 0
4 13 0
4 13 0
4 13 0
4 13 0
4 13 0
4 13 0
4 13 0
4 13 0
4 13 0
4 13 0
4 13 0
4 13 0
4 13 0
4 13 0
4 13 0
4 13 0
4 13 0
4 13 0
4 13 0
4 13 0
4 13 0
4 13 0
4 13 0
4 13 0
4 13 0
4 13 0
4 13 0
4 13 0
4 13 0
4 13 0
4 13 0
4 13 0
4 13 0
4 13 0
4 13 0
4 13 0
4 13 0
4 13 0
4 13 0
4 13 0
4 13 0
4 13 0
4 13 0
4 13 8
4 13 8
4 13 8
4 13 8
4 13 8
4 13 8
4 13 8
4 13 8
4 13 8
4 13 8
4 13 8
4 13 0
4 13 0
4 13 0
4 13 0
4 13 0
4 13 0
4 13 0
4 13 0
4 13 0
4 13 0
4 13 0
4 13 0
4 13 0
4 13 0
4 13 0
4 13 0
4 13 0
4 13 0
4 13 0
4 13 0
4 13 0
4 13 0
4 13 0
4 13 0
4 13 0
4 13 0
4 13 0
4 13 0
4 13 0
4 13 0
4 13 0
4 13 0
4 13 0
4 13 0
4 13 0
4 13 0
4 13 0
4 13 0
4 13 0
4 13 0
4 13 0
4 13 0
4 13 0
4 13 0
4 13 0
4 13 0
4 13 0
4 13 0
4 13 0
4 13 0
4 13 0
4 13 0
4 13 0
4 13 0
4 13 0
4 13 0
4 13 0
4 13 0
4 13 0
4 13 0
4 13 0
4 13 0
4 13 0
4 13 0
4 13 0
4 13 8
4 13 8
4 13 8
4 13 8
4 13 8
4 13 8
4 13 8
4 13 8
4 13 8
4 13 8
4 13 8
4 13 8
4 13 8
4 13 8
4 13 8
4 13 8
4 13 8
4 13 8
4 13 8
4 13 0
4 13 0
4 13 0
4 13 0
4 13 0
4 13 0
4 13 0
4 13 0
4 13 0
4 13 0
4 13 0
4 13 0
4 13 0
4 13 0
4 13 0
4 13 0
4 13 0
4 13 0
4 13 0
4 13 0
4 13 0
4 13 0
4 13 0
4 13 0
4 13 0
4 13 0
4 13 0
4 13 0
4 13 0
4 13 0
4 13 0
4 13 0
4 13 0
4 13 0
4 13 0
4 13 0
4 13 0
4 13 0
4 13 0
4 13 0
4 13 0
4 13 0
4 13 0
4 13 0
4 13 0
4 13 0
4 13 0
4 13 0
4 13 0
4 13 0
4 13 0
4 13 0
4 13 0
4 13 0
4 13 0
4 13 0
4 13 0
4 13 0
4 13 8
4 13 8
4 13 8
4 13 8
4 13 8
4 13 8
4 13 8
4 13 8
4 13 8
4 13 8
4 13 8
4 13 8
4 13 8
4 13 8
4 13 8
4 13 8
4 13 8
4 13 8
4 13 8
4 13 8
4 13 8
4 13 8
4 13 8
4 13 8
4 13 8
4 13 0
4 13 0
4 13 0
4 13 0
4 13 0
4 13 0
4 13 0
4 13 0
4 13 0
4 13 0
4 13 0
4 13 0
4 13 0
4 13 0
4 13 0
4 13 0
4 13 0
4 13 0
4 13 0
4 13 0
4 13 0
4 13 0
4 13 0
4 13 0
4 13 0
4 13 0
4 13 0
4 13 0
4 13 0
4 13 0
4 13 0
4 13 0
4 13 0
4 13 0
4 13 0
4 13 0
4 13 0
4 13 0
4 13 0
4 13 0
4 13 0
4 13 0
4 13 0
4 13 0
4 13 0
4 13 0
4 13 0
4 13 0
4 13 0
4 13 0
4 13 0
4 13 0
4 13 8
4 13 8
4 13 8
4 13 8
4 13 8
4 13 8
4 13 8
4 13 8
4 13 8
4 13 8
4 13 8
4 13 8
4 13 8
4 13 8
4 13 8
4 13 8
4 13 8
4 13 8
6 13 12
6 13 12
6 13 12
6 13 12
4 14 0
6 13 12
6 13 12
6 13 12
4 13 8
4 13 8
4 13 8
4 13 8
4 13 8
4 13 0
4 13 0
4 13 0
4 13 0
4 13 0
4 13 0
4 13 0
4 13 0
4 13 0
4 13 0
4 13 0
4 13 0
4 13 0
4 13 0
4 13 0
4 13 0
4 13 0
4 13 0
4 13 0
4 13 0
4 13 0
4 13 0
4 13 0
4 13 0
4 13 0
4 13 0
4 13 0
4 13 0
4 13 0
4 13 0
4 13 0
4 13 0
4 13 0
4 13 0
4 13 0
4 13 0
4 13 0
4 13 0
4 13 0
4 13 0
4 13 0
4 13 0
4 13 0
4 13 0
4 13 0
4 13 0
4 13 0
4 13 0
4 13 8
4 13 8
4 13 8
4 13 8
4 13 8
4 13 8
4 13 8
4 13 8
4 13 8
4 13 8
4 13 8
4 13 8
4 13 8
4 13 8
4 13 8
4 13 8
6 13 12
6 13 12
6 13 12
6 13 12
6 13 12
4 14 0
4 15 1
7 14 6
4 14 0
4 14 0
6 13 12
6 13 12
6 13 12
4 13 8
4 13 8
4 13 8
4 13 8
4 13 0
4 13 0
4 13 0
4 13 0
4 13 0
4 13 0
4 13 0
4 13 0
4 13 0
4 13 0
4 13 0
4 13 0
4 13 0
4 13 0
4 13 0
4 13 0
4 13 0
4 13 0
4 13 0
4 13 0
4 13 0
4 13 0
4 13 0
4 13 0
4 13 0
4 13 0
4 13 0
4 13 0
4 13 0
4 13 0
4 13 0
4 13 0
4 13 0
4 13 0
4 13 0
4 13 0
4 13 0
4 13 0
4 13 0
4 13 0
4 13 0
4 13 0
4 13 0
4 13 0
4 13 0
4 13 8
4 13 8
4 13 8
4 13 8
4 13 8
4 13 8
4 13 8
4 13 8
4 13 8
4 13 8
4 13 8
4 13 8
4 13 8
4 13 8
4 13 8
4 13 8
6 13 12
6 13 12
6 13 12
6 13 12
6 13 12
6 13 12
4 14 0
5 14 2
7 14 6
5 14 11
5 14 2
5 14 2
4 14 0
6 13 12
6 13 12
6 13 12
6 13 12
4 13 8
4 13 8
4 13 8
4 13 8
4 13 0
4 13 0
4 13 0
4 13 0
4 13 0
4 13 0
4 13 0
4 13 0
4 13 0
4 13 0
4 13 0
4 13 0
4 13 0
4 13 0
4 13 0
4 13 0
4 13 0
4 13 0
4 13 0
4 13 0
4 13 0
4 13 0
4 13 0
4 13 0
4 13 0
4 13 0
4 13 0
4 13 0
4 13 0
4 13 0
4 13 0
4 13 0
4 13 0
4 13 0
4 13 0
4 13 0
4 13 0
4 13 0
4 13 0
4 13 0
4 13 0
4 13 0
4 13 8
4 13 8
4 13 8
4 13 8
4 13 8
4 13 8
4 13 8
4 13 8
4 13 8
4 13 8
4 13 8
4 13 8
4 13 8
4 13 8
4 13 8
4 13 8
6 13 12
6 13 12
6 13 12
6 13 12
6 13 12
6 13 12
4 14 0
4 14 0
5 14 2
6 14 4
5 14 10
4 14 8
5 14 10
0 0 0
4 14 0
6 13 12
6 13 12
6 13 12
6 13 12
4 13 8
4 13 8
4 13 8
4 13 8
4 13 0
4 13 0
4 13 0
4 13 0
4 13 0
4 13 0
4 13 0
4 13 0
4 13 0
4 13 0
4 13 0
4 13 0
4 13 0
4 13 0
4 13 0
4 13 0
4 13 0
4 13 0
4 13 0
4 13 0
4 13 0
4 13 0
4 13 0
4 13 0
4 13 0
4 13 0
4 13 0
4 13 0
4 13 0
4 13 0
4 13 0
4 13 0
4 13 0
4 13 0
4 13 0
4 13 0
4 13 0
4 13 0
4 13 0
4 13 8
4 13 8
4 13 8
4 13 8
4 13 8
4 13 8
4 13 8
4 13 8
4 13 8
4 13 8
4 13 8
4 13 8
4 13 8
4 13 8
4 13 8
4 13 8
6 13 12
6 13 12
6 13 12
6 13 12
6 13 12
6 13 12
6 13 12
4 14 0
4 14 0
4 14 0
6 14 4
7 14 6
4 14 9
5 15 3
4 14 9
6 14 4
5 14 2
4 14 0
6 13 12
6 13 12
6 13 12
6 13 12
4 13 8
4 13 8
4 13 8
4 13 8
4 13 8
4 13 0
4 13 0
4 13 0
4 13 0
4 13 0
4 13 0
4 13 0
4 13 0
4 13 0
4 13 0
4 13 0
4 13 0
4 13 0
4 13 0
4 13 0
4 13 0
4 13 0
4 13 0
4 13 0
4 13 0
4 13 0
4 13 0
4 13 0
4 13 0
4 13 0
4 13 0
4 13 0
4 13 0
4 13 0
4 13 0
4 13 0
4 13 0
4 13 0
4 13 0
4 13 0
4 13 0
4 13 8
4 13 8
4 13 8
4 13 8
4 13 8
4 13 8
4 13 8
4 13 8
4 13 8
4 13 8
4 13 8
4 13 8
4 13 8
4 13 8
4 13 8
4 13 8
6 13 12
6 13 12
6 13 12
6 13 12
6 13 12
6 13 12
6 13 12
4 14 0
4 14 0
4 14 0
5 14 2
7 14 6
4 14 8
0 0 0
13 15 3
5 14 10
7 14 6
5 14 2
4 14 0
4 14 0
6 13 12
6 13 12
6 13 12
6 13 12
4 13 8
4 13 8
4 13 8
4 13 8
4 13 8
4 13 0
4 13 0
4 13 0
4 13 0
4 13 0
4 13 0
4 13 0
4 13 0
4 13 0
4 13 0
4 13 0
4 13 0
4 13 0
4 13 0
4 13 0
4 13 0
4 13 0
4 13 0
4 13 0
4 13 0
4 13 0
4 13 0
4 13 0
4 13 0
4 13 0
4 13 0
4 13 0
4 13 0
4 13 0
4 13 0
4 13 0
4 13 0
4 13 0
4 13 0
4 13 8
4 13 8
4 13 8
4 13 8
4 13 8
4 13 8
4 13 8
4 13 8
4 13 8
4 13 8
4 13 8
4 13 8
4 13 8
4 13 8
4 13 8
4 13 8
6 13 12
6 13 12
6 13 12
6 13 12
6 13 12
6 13 12
6 13 12
4 14 0
4 14 0
4 14 0
5 14 2
5 14 10
0 0 0
7 14 14
5 15 3
0 0 0
12 15 0
7 14 15
6 14 4
4 14 0
4 14 0
4 14 0
6 13 12
6 13 12
6 13 12
6 13 12
4 13 8
4 13 8
4 13 8
4 13 8
4 13 8
4 13 0
4 13 0
4 13 0
4 13 0
4 13 0
4 13 0
4 13 0
4 13 0
4 13 0
4 13 0
4 13 0
4 13 0
4 13 0
4 13 0
4 13 0
4 13 0
4 13 0
4 13 0
4 13 0
4 13 0
4 13 0
4 13 0
4 13 0
4 13 0
4 13 0
4 13 0
4 13 0
4 13 0
4 13 0
4 13 0
4 13 0
4 13 0
4 13 8
4 13 8
4 13 8
4 13 8
4 13 8
4 13 8
4 13 8
4 13 8
4 13 8
4 13 8
4 13 8
4 13 8
4 13 8
4 13 8
4 13 8
4 13 8
6 13 12
6 13 12
6 13 12
6 13 12
6 13 12
6 13 12
6 13 12
4 14 0
4 14 0
5 14 2
5 14 2
6 14 4
7 14 6
6 14 13
0 0 0
0 0 0
0 0 0
0 0 0
12 15 0
7 14 6
5 14 2
4 14 0
4 14 0
4 14 0
4 14 0
6 13 12
6 13 12
4 13 8
4 13 8
4 13 8
4 13 8
4 13 8
4 13 8
4 13 0
4 13 0
4 13 0
4 13 0
4 13 0
4 13 0
4 13 0
4 13 0
4 13 0
4 13 0
4 13 0
4 13 0
4 13 0
4 13 0
4 13 0
4 13 0
4 13 0
4 13 0
4 13 0
4 13 0
4 13 0
4 13 0
4 13 0
4 13 0
4 13 0
4 13 0
4 13 0
4 13 0
4 13 0
4 13 0
4 13 0
4 13 8
4 13 8
4 13 8
4 13 8
4 13 8
4 13 8
4 13 8
4 13 8
4 13 8
4 13 8
4 13 8
4 13 8
4 13 8
4 13 8
4 13 8
6 13 12
6 13 12
6 13 12
6 13 12
6 13 12
6 13 12
4 14 0
4 14 0
5 14 2
5 14 2
5 14 2
6 14 4
6 14 4
4 14 8
13 15 2
0 0 0
0 0 0
0 0 0
0 0 0
0 0 0
7 14 6
6 14 4
5 14 2
5 14 2
4 14 0
4 14 0
4 14 0
6 13 12
6 13 12
4 13 8
4 13 8
4 13 8
4 13 8
4 13 8
4 13 0
4 13 0
4 13 0
4 13 0
4 13 0
4 13 0
4 13 0
4 13 0
4 13 0
4 13 0
4 13 0
4 13 0
4 13 0
4 13 0
4 13 0
4 13 0
4 13 0
4 13 0
4 13 0
4 13 0
4 13 0
4 13 0
4 13 0
4 13 0
4 13 0
4 13 0
4 13 0
4 13 0
4 13 0
4 13 0
4 13 8
4 13 8
4 13 8
4 13 8
4 13 8
4 13 8
4 13 8
4 13 8
4 13 8
4 13 8
4 13 8
4 13 8
4 13 8
4 13 8
6 13 12
6 13 12
6 13 12
6 13 12
6 13 12
6 13 12
4 14 0
4 14 0
5 14 2
6 14 4
7 14 6
7 14 6
7 14 6
7 14 6
4 14 8
4 14 9
6 14 13
0 0 0
0 0 0
0 0 0
0 0 0
6 14 12
4 14 9
4 14 8
7 14 6
5 14 2
5 14 2
5 14 2
12 15 0
4 14 0
6 13 12
6 13 12
4 13 8
4 13 8
4 13 8
4 13 8
4 13 8
4 13 0
4 13 0
4 13 0
4 13 0
4 13 0
4 13 0
4 13 0
4 13 0
4 13 0
4 13 0
4 13 0
4 13 0
4 13 0
4 13 0
4 13 0
4 13 0
4 13 0
4 13 0
4 13 0
4 13 0
4 13 0
4 13 0
4 13 0
4 13 0
4 13 0
4 13 0
4 13 0
4 13 0
4 13 8
4 13 8
4 13 8
4 13 8
4 13 8
4 13 8
4 13 8
4 13 8
4 13 8
4 13 8
4 13 8
4 13 8
4 13 8
4 13 8
6 13 12
6 13 12
6 13 12
6 13 12
6 13 12
4 14 0
4 14 0
4 14 0
5 14 2
6 14 4
6 14 12
0 0 0
5 14 11
4 14 9
0 0 0
12 15 1
0 0 0
0 0 0
0 0 0
0 0 0
0 0 0
0 0 0
5 15 3
0 0 0
6 14 12
0 0 0
7 14 6
7 14 6
7 14 6
7 14 14
6 14 4
4 14 0
6 13 12
4 13 8
4 13 8
4 13 8
4 13 8
4 13 8
4 13 8
4 13 0
4 13 0
4 13 0
4 13 0
4 13 0
4 13 0
4 13 0
4 13 0
4 13 0
4 13 0
4 13 0
4 13 0
4 13 0
4 13 0
4 13 0
4 13 0
4 13 0
4 13 0
4 13 0
4 13 0
4 13 0
4 13 0
4 13 0
4 13 0
4 13 0
4 13 0
4 13 0
4 13 8
4 13 8
4 13 8
4 13 8
4 13 8
4 13 8
4 13 8
4 13 8
4 13 8
4 13 8
4 13 8
4 13 8
4 13 8
6 13 12
6 13 12
6 13 12
6 13 12
4 14 0
4 14 0
4 14 0
4 14 0
5 14 2
5 14 2
6 14 4
5 14 11
0 0 0
0 0 0
7 14 15
14 15 4
0 0 0
0 0 0
0 0 0
0 0 0
0 0 0
0 0 0
0 0 0
0 0 0
0 0 0
0 0 0
12 15 1
5 14 11
6 14 13
7 14 14
7 14 15
7 14 14
4 14 0
6 13 12
4 13 8
4 13 8
4 13 8
4 13 8
4 13 8
4 13 8
4 13 0
4 13 0
4 13 0
4 13 0
4 13 0
4 13 0
4 13 0
4 13 0
4 13 0
4 13 0
4 13 0
4 13 0
4 13 0
4 13 0
4 13 0
4 13 0
4 13 0
4 13 0
4 13 0
4 13 0
4 13 0
4 13 0
4 13 0
4 13 0
4 13 0
4 13 0
4 13 8
4 13 8
4 13 8
4 13 8
4 13 8
4 13 8
4 13 8
4 13 8
4 13 8
4 13 8
4 13 8
4 13 8
4 13 8
6 13 12
6 13 12
4 14 0
4 14 0
4 14 0
4 14 0
4 14 0
4 14 0
5 14 2
5 14 2
5 14 2
7 14 6
4 14 9
0 0 0
0 0 0
0 0 0
0 0 0
0 0 0
0 0 0
0 0 0
0 0 0
0 0 0
0 0 0
0 0 0
0 0 0
0 0 0
0 0 0
0 0 0
0 0 0
0 0 0
0 0 0
13 15 3
4 14 8
4 14 0
4 14 0
6 13 12
4 13 8
4 13 8
4 13 8
4 13 8
4 13 8
4 13 8
4 13 0
4 13 0
4 13 0
4 13 0
4 13 0
4 13 0
4 13 0
4 13 0
4 13 0
4 13 0
4 13 0
4 13 0
4 13 0
4 13 0
4 13 0
4 13 0
4 13 0
4 13 0
4 13 0
4 13 0
4 13 0
4 13 0
4 13 0
4 13 0
4 13 0
4 13 8
4 13 8
4 13 8
4 13 8
4 13 8
4 13 8
4 13 8
4 13 8
4 13 8
4 13 8
4 13 8
6 13 12
6 13 12
4 14 0
4 14 0
4 14 0
4 14 0
4 14 0
4 14 0
4 14 0
5 14 2
5 14 2
5 14 2
7 14 6
6 14 13
5 14 11
0 0 0
0 0 0
0 0 0
0 0 0
0 0 0
0 0 0
0 0 0
0 0 0
0 0 0
0 0 0
0 0 0
0 0 0
0 0 0
0 0 0
0 0 0
0 0 0
0 0 0
0 0 0
12 15 1
6 14 4
5 14 2
4 14 0
6 13 12
4 13 8
4 13 8
4 13 8
4 13 8
4 13 8
4 13 8
4 13 0
4 13 0
4 13 0
4 13 0
4 13 0
4 13 0
4 13 0
4 13 0
4 13 0
4 13 0
4 13 0
4 13 0
4 13 0
4 13 0
4 13 0
4 13 0
4 13 0
4 13 0
4 13 0
4 13 0
4 13 0
4 13 0
4 13 0
4 13 0
4 13 8
4 13 8
4 13 8
4 13 8
4 13 8
4 13 8
4 13 8
4 13 8
4 13 8
4 13 8
6 13 12
6 13 12
4 14 0
5 14 2
5 14 2
5 14 2
4 14 0
4 14 0
4 14 0
5 14 2
5 14 2
5 14 2
6 14 4
6 14 4
5 15 2
0 0 0
6 15 4
0 0 0
0 0 0
0 0 0
0 0 0
0 0 0
0 0 0
0 0 0
0 0 0
0 0 0
0 0 0
0 0 0
0 0 0
0 0 0
0 0 0
0 0 0
0 0 0
0 0 0
0 0 0
5 14 11
6 14 4
5 14 2
4 14 0
6 13 12
6 13 12
4 13 8
4 13 8
4 13 8
4 13 8
4 13 8
4 13 8
4 13 0
4 13 0
4 13 0
4 13 0
4 13 0
4 13 0
4 13 0
4 13 0
4 13 0
4 13 0
4 13 0
4 13 0
4 13 0
4 13 0
4 13 0
4 13 0
4 13 0
4 13 0
4 13 0
4 13 0
4 13 0
4 13 0
4 13 0
4 13 8
4 13 8
4 13 8
4 13 8
4 13 8
4 13 8
4 13 8
6 13 12
6 13 12
6 13 12
4 14 0
4 14 0
6 14 4
5 14 11
6 14 4
6 14 4
6 14 4
6 14 4
6 14 4
6 14 4
6 14 4
6 14 4
6 14 4
7 14 6
5 14 10
12 15 1
0 0 0
0 0 0
0 0 0
0 0 0
0 0 0
0 0 0
0 0 0
0 0 0
0 0 0
0 0 0
0 0 0
0 0 0
0 0 0
0 0 0
0 0 0
0 0 0
0 0 0
0 0 0
0 0 0
4 15 0
4 14 8
4 15 1
4 14 0
6 13 12
6 13 12
4 13 8
4 13 8
4 13 8
4 13 8
4 13 8
4 13 8
4 13 0
4 13 0
4 13 0
4 13 0
4 13 0
4 13 0
4 13 0
4 13 0
4 13 0
4 13 0
4 13 0
4 13 0
4 13 0
4 13 0
4 13 0
4 13 0
4 13 0
4 13 0
4 13 0
4 13 0
4 13 0
4 13 0
4 13 0
4 13 8
4 13 8
4 13 8
4 13 8
6 13 12
6 13 12
6 13 12
6 13 12
6 13 12
4 14 0
4 14 0
5 14 2
6 14 4
7 14 14
4 14 8
4 14 8
7 14 6
5 14 11
4 14 9
7 14 6
7 14 6
7 14 6
7 14 6
4 14 9
0 0 0
0 0 0
0 0 0
0 0 0
0 0 0
0 0 0
0 0 0
0 0 0
0 0 0
0 0 0
0 0 0
0 0 0
0 0 0
0 0 0
0 0 0
0 0 0
0 0 0
0 0 0
0 0 0
0 0 0
0 0 0
0 0 0
0 0 0
12 15 0
4 14 0
6 13 12
6 13 12
4 13 8
4 13 8
4 13 8
4 13 8
4 13 8
4 13 8
4 13 0
4 13 0
4 13 0
4 13 0
4 13 0
4 13 0
4 13 0
4 13 0
4 13 0
4 13 0
4 13 0
4 13 0
4 13 0
4 13 0
4 13 0
4 13 0
4 13 0
4 13 0
4 13 0
4 13 0
4 13 0
4 13 0
4 13 8
4 13 8
4 13 8
6 13 12
6 13 12
6 13 12
6 13 12
6 13 12
6 13 12
4 14 0
4 14 0
4 14 0
5 14 2
6 14 4
4 14 9
7 14 15
12 15 1
5 14 11
6 14 12
0 0 0
6 14 12
5 14 10
4 14 8
4 14 8
5 14 10
13 15 3
0 0 0
0 0 0
0 0 0
0 0 0
0 0 0
0 0 0
0 0 0
0 0 0
0 0 0
0 0 0
0 0 0
0 0 0
0 0 0
0 0 0
0 0 0
0 0 0
0 0 0
0 0 0
0 0 0
0 0 0
0 0 0
7 14 14
7 14 6
5 14 2
6 13 12
6 13 12
4 13 8
4 13 8
4 13 8
4 13 8
4 13 8
4 13 8
4 13 8
4 13 0
4 13 0
4 13 0
4 13 0
4 13 0
4 13 0
4 13 0
4 13 0
4 13 0
4 13 0
4 13 0
4 13 0
4 13 0
4 13 0
4 13 0
4 13 0
4 13 0
4 13 0
4 13 0
4 13 0
4 13 0
4 13 8
4 13 8
6 13 12
6 13 12
6 13 12
6 13 12
6 13 12
6 13 12
4 14 0
4 14 0
4 14 0
4 14 0
6 14 4
6 14 4
4 14 8
7 14 14
0 0 0
13 15 3
0 0 0
0 0 0
0 0 0
6 15 4
6 14 12
5 14 10
6 14 12
0 0 0
0 0 0
0 0 0
0 0 0
0 0 0
0 0 0
0 0 0
0 0 0
0 0 0
0 0 0
0 0 0
0 0 0
0 0 0
0 0 0
0 0 0
0 0 0
0 0 0
0 0 0
0 0 0
0 0 0
0 0 0
0 0 0
6 14 13
7 14 6
4 14 0
6 13 12
6 13 12
6 13 12
4 13 8
4 13 8
4 13 8
4 13 8
4 13 8
4 13 8
4 13 0
4 13 0
4 13 0
4 13 0
4 13 0
4 13 0
4 13 0
4 13 0
4 13 0
4 13 0
4 13 0
4 13 0
4 13 0
4 13 0
4 13 0
4 13 0
4 13 0
4 13 0
4 13 0
4 13 0
4 13 0
4 13 8
6 13 12
6 13 12
6 13 12
6 13 12
6 13 12
6 13 12
4 14 0
4 14 0
4 14 0
4 14 0
5 14 2
6 14 4
7 14 6
5 14 10
12 15 0
0 0 0
0 0 0
0 0 0
0 0 0
0 0 0
0 0 0
0 0 0
7 14 14
7 14 15
0 0 0
0 0 0
0 0 0
0 0 0
0 0 0
0 0 0
0 0 0
0 0 0
0 0 0
0 0 0
0 0 0
0 0 0
0 0 0
0 0 0
0 0 0
0 0 0
0 0 0
0 0 0
0 0 0
0 0 0
0 0 0
0 0 0
7 15 7
6 14 4
4 14 0
6 13 12
6 13 12
6 13 12
4 13 8
4 13 8
4 13 8
4 13 8
4 13 8
4 13 8
4 13 0
4 13 0
4 13 0
4 13 0
4 13 0
4 13 0
4 13 0
4 13 0
4 13 0
4 13 0
4 13 0
4 13 0
4 13 0
4 13 0
4 13 0
4 13 0
4 13 0
4 13 0
4 13 0
4 13 0
4 13 0
6 13 12
6 13 12
6 13 12
6 13 12
6 13 12
6 13 12
4 14 0
4 14 0
4 14 0
5 14 2
6 14 4
4 15 0
4 14 8
4 14 9
4 15 1
0 0 0
0 0 0
0 0 0
0 0 0
0 0 0
0 0 0
0 0 0
0 0 0
0 0 0
13 15 2
0 0 0
0 0 0
0 0 0
0 0 0
0 0 0
0 0 0
0 0 0
0 0 0
0 0 0
0 0 0
0 0 0
0 0 0
0 0 0
0 0 0
0 0 0
0 0 0
0 0 0
0 0 0
0 0 0
0 0 0
0 0 0
0 0 0
14 15 5
5 14 2
4 14 0
6 13 12
6 13 12
6 13 12
4 13 8
4 13 8
4 13 8
4 13 8
4 13 8
4 13 8
4 13 0
4 13 0
4 13 0
4 13 0
4 13 0
4 13 0
4 13 0
4 13 0
4 13 0
4 13 0
4 13 0
4 13 0
4 13 0
4 13 0
4 13 0
4 13 0
4 13 0
4 13 0
4 13 0
4 13 0
4 13 0
6 13 12
6 13 12
6 13 12
6 13 12
6 13 12
5 14 2
5 14 2
5 14 2
5 14 2
6 14 4
7 14 6
5 14 11
6 14 12
6 14 13
13 15 2
0 0 0
0 0 0
0 0 0
0 0 0
0 0 0
0 0 0
0 0 0
0 0 0
0 0 0
0 0 0
0 0 0
0 0 0
0 0 0
0 0 0
0 0 0
0 0 0
0 0 0
0 0 0
0 0 0
0 0 0
0 0 0
0 0 0
0 0 0
0 0 0
0 0 0
0 0 0
0 0 0
0 0 0
0 0 0
0 0 0
0 0 0
0 0 0
7 14 6
5 14 2
4 14 0
6 13 12
6 13 12
6 13 12
4 13 8
4 13 8
4 13 8
4 13 8
4 13 8
4 13 8
4 13 0
4 13 0
4 13 0
4 13 0
4 13 0
4 13 0
4 13 0
4 13 0
4 13 0
4 13 0
4 13 0
4 13 0
4 13 0
4 13 0
4 13 0
4 13 0
4 13 0
4 13 0
4 13 0
4 13 0
4 13 0
4 14 0
4 14 0
5 14 2
6 14 4
7 14 6
6 14 4
5 14 2
6 14 4
7 14 6
7 14 6
4 14 9
6 14 13
0 0 0
0 0 0
0 0 0
0 0 0
0 0 0
0 0 0
0 0 0
0 0 0
0 0 0
0 0 0
0 0 0
0 0 0
0 0 0
0 0 0
0 0 0
0 0 0
0 0 0
0 0 0
0 0 0
0 0 0
0 0 0
0 0 0
0 0 0
0 0 0
0 0 0
0 0 0
0 0 0
0 0 0
0 0 0
0 0 0
0 0 0
0 0 0
0 0 0
0 0 0
4 14 9
6 14 4
5 14 2
4 14 0
6 13 12
6 13 12
6 13 12
4 13 8
4 13 8
4 13 8
4 13 8
4 13 8
4 13 8
4 13 0
4 13 0
4 13 0
4 13 0
4 13 0
4 13 0
4 13 0
4 13 0
4 13 0
4 13 0
4 13 0
4 13 0
4 13 0
4 13 0
4 13 0
4 13 0
4 13 0
4 13 0
4 13 0
4 13 0
0 0 0
0 0 0
0 0 0
0 0 0
0 0 0
0 0 0
0 0 0
0 0 0
0 0 0
0 0 0
0 0 0
0 0 0
0 0 0
0 0 0
0 0 0
0 0 0
0 0 0
0 0 0
0 0 0
0 0 0
0 0 0
0 0 0
0 0 0
0 0 0
0 0 0
0 0 0
0 0 0
0 0 0
0 0 0
0 0 0
0 0 0
0 0 0
0 0 0
0 0 0
0 0 0
0 0 0
0 0 0
0 0 0
0 0 0
0 0 0
0 0 0
0 0 0
0 0 0
0 0 0
0 0 0
0 0 0
5 14 11
7 14 6
6 14 4
5 14 2
4 14 0
6 13 12
6 13 12
6 13 12
4 13 8
4 13 8
4 13 8
4 13 8
4 13 8
4 13 8
4 13 8
4 13 0
4 13 0
4 13 0
4 13 0
4 13 0
4 13 0
4 13 0
4 13 0
4 13 0
4 13 0
4 13 0
4 13 0
4 13 0
4 13 0
4 13 0
4 13 0
4 13 0
4 13 0
4 13 0
4 13 0
4 14 0
4 14 0
5 14 2
6 14 4
7 14 6
6 14 4
5 14 2
6 14 4
7 14 6
7 14 6
4 14 9
6 14 13
0 0 0
0 0 0
0 0 0
0 0 0
0 0 0
0 0 0
0 0 0
0 0 0
0 0 0
0 0 0
0 0 0
0 0 0
0 0 0
0 0 0
0 0 0
0 0 0
0 0 0
0 0 0
0 0 0
0 0 0
0 0 0
0 0 0
0 0 0
0 0 0
0 0 0
0 0 0
0 0 0
0 0 0
0 0 0
0 0 0
0 0 0
0 0 0
0 0 0
0 0 0
4 14 9
6 14 4
5 14 2
4 14 0
6 13 12
6 13 12
6 13 12
4 13 8
4 13 8
4 13 8
4 13 8
4 13 8
4 13 8
4 13 0
4 13 0
4 13 0
4 13 0
4 13 0
4 13 0
4 13 0
4 13 0
4 13 0
4 13 0
4 13 0
4 13 0
4 13 0
4 13 0
4 13 0
4 13 0
4 13 0
4 13 0
4 13 0
4 13 0
4 13 0
6 13 12
6 13 12
6 13 12
6 13 12
6 13 12
5 14 2
5 14 2
5 14 2
5 14 2
6 14 4
7 14 6
5 14 11
6 14 12
6 14 13
13 15 2
0 0 0
0 0 0
0 0 0
0 0 0
0 0 0
0 0 0
0 0 0
0 0 0
0 0 0
0 0 0
0 0 0
0 0 0
0 0 0
0 0 0
0 0 0
0 0 0
0 0 0
0 0 0
0 0 0
0 0 0
0 0 0
0 0 0
0 0 0
0 0 0
0 0 0
0 0 0
0 0 0
0 0 0
0 0 0
0 0 0
0 0 0
0 0 0
7 14 6
5 14 2
4 14 0
6 13 12
6 13 12
6 13 12
4 13 8
4 13 8
4 13 8
4 13 8
4 13 8
4 13 8
4 13 0
4 13 0
4 13 0
4 13 0
4 13 0
4 13 0
4 13 0
4 13 0
4 13 0
4 13 0
4 13 0
4 13 0
4 13 0
4 13 0
4 13 0
4 13 0
4 13 0
4 13 0
4 13 0
4 13 0
4 13 0
6 13 12
6 13 12
6 13 12
6 13 12
6 13 12
6 13 12
4 14 0
4 14 0
4 14 0
5 14 2
6 14 4
4 15 0
4 14 8
4 14 9
4 15 1
0 0 0
0 0 0
0 0 0
0 0 0
0 0 0
0 0 0
0 0 0
0 0 0
0 0 0
13 15 2
0 0 0
0 0 0
0 0 0
0 0 0
0 0 0
0 0 0
0 0 0
0 0 0
0 0 0
0 0 0
0 0 0
0 0 0
0 0 0
0 0 0
0 0 0
0 0 0
0 0 0
0 0 0
0 0 0
0 0 0
0 0 0
0 0 0
14 15 5
5 14 2
4 14 0
6 13 12
6 13 12
6 13 12
4 13 8
4 13 8
4 13 8
4 13 8
4 13 8
4 13 8
4 13 0
4 13 0
4 13 0
4 13 0
4 13 0
4 13 0
4 13 0
4 13 0
4 13 0
4 13 0
4 13 0
4 13 0
4 13 0
4 13 0
4 13 0
4 13 0
4 13 0
4 13 0
4 13 0
4 13 0
4 13 0
4 13 8
6 13 12
6 13 12
6 13 12
6 13 12
6 13 12
6 13 12
4 14 0
4 14 0
4 14 0
4 14 0
5 14 2
6 14 4
7 14 6
5 14 10
12 15 0
0 0 0
0 0 0
0 0 0
0 0 0
0 0 0
0 0 0
0 0 0
7 14 14
7 14 15
0 0 0
0 0 0
0 0 0
0 0 0
0 0 0
0 0 0
0 0 0
0 0 0
0 0 0
0 0 0
0 0 0
0 0 0
0 0 0
0 0 0
0 0 0
0 0 0
0 0 0
0 0 0
0 0 0
0 0 0
0 0 0
0 0 0
7 15 7
6 14 4
4 14 0
6 13 12
6 13 12
6 13 12
4 13 8
4 13 8
4 13 8
4 13 8
4 13 8
4 13 8
4 13 0
4 13 0
4 13 0
4 13 0
4 13 0
4 13 0
4 13 0
4 13 0
4 13 0
4 13 0
4 13 0
4 13 0
4 13 0
4 13 0
4 13 0
4 13 0
4 13 0
4 13 0
4 13 0
4 13 0
4 13 0
4 13 8
4 13 8
6 13 12
6 13 12
6 13 12
6 13 12
6 13 12
6 13 12
4 14 0
4 14 0
4 14 0
4 14 0
6 14 4
6 14 4
4 14 8
7 14 14
0 0 0
13 15 3
0 0 0
0 0 0
0 0 0
6 15 4
6 14 12
5 14 10
6 14 12
0 0 0
0 0 0
0 0 0
0 0 0
0 0 0
0 0 0
0 0 0
0 0 0
0 0 0
0 0 0
0 0 0
0 0 0
0 0 0
0 0 0
0 0 0
0 0 0
0 0 0
0 0 0
0 0 0
0 0 0
0 0 0
0 0 0
6 14 13
7 14 6
4 14 0
6 13 12
6 13 12
6 13 12
4 13 8
4 13 8
4 13 8
4 13 8
4 13 8
4 13 8
4 13 0
4 13 0
4 13 0
4 13 0
4 13 0
4 13 0
4 13 0
4 13 0
4 13 0
4 13 0
4 13 0
4 13 0
4 13 0
4 13 0
4 13 0
4 13 0
4 13 0
4 13 0
4 13 0
4 13 0
4 13 0
4 13 8
4 13 8
4 13 8
6 13 12
6 13 12
6 13 12
6 13 12
6 13 12
6 13 12
4 14 0
4 14 0
4 14 0
5 14 2
6 14 4
4 14 9
7 14 15
12 15 1
5 14 11
6 14 12
0 0 0
6 14 12
5 14 10
4 14 8
4 14 8
5 14 10
13 15 3
0 0 0
0 0 0
0 0 0
0 0 0
0 0 0
0 0 0
0 0 0
0 0 0
0 0 0
0 0 0
0 0 0
0 0 0
0 0 0
0 0 0
0 0 0
0 0 0
0 0 0
0 0 0
0 0 0
0 0 0
0 0 0
7 14 14
7 14 6
5 14 2
6 13 12
6 13 12
4 13 8
4 13 8
4 13 8
4 13 8
4 13 8
4 13 8
4 13 8
4 13 0
4 13 0
4 13 0
4 13 0
4 13 0
4 13 0
4 13 0
4 13 0
4 13 0
4 13 0
4 13 0
4 13 0
4 13 0
4 13 0
4 13 0
4 13 0
4 13 0
4 13 0
4 13 0
4 13 0
4 13 0
4 13 0
4 13 8
4 13 8
4 13 8
4 13 8
6 13 12
6 13 12
6 13 12
6 13 12
6 13 12
4 14 0
4 14 0
5 14 2
6 14 4
7 14 14
4 14 8
4 14 8
7 14 6
5 14 11
4 14 9
7 14 6
7 14 6
7 14 6
7 14 6
4 14 9
0 0 0
0 0 0
0 0 0
0 0 0
0 0 0
0 0 0
0 0 0
0 0 0
0 0 0
0 0 0
0 0 0
0 0 0
0 0 0
0 0 0
0 0 0
0 0 0
0 0 0
0 0 0
0 0 0
0 0 0
0 0 0
0 0 0
0 0 0
12 15 0
4 14 0
6 13 12
6 13 12
4 13 8
4 13 8
4 13 8
4 13 8
4 13 8
4 13 8
4 13 0
4 13 0
4 13 0
4 13 0
4 13 0
4 13 0
4 13 0
4 13 0
4 13 0
4 13 0
4 13 0
4 13 0
4 13 0
4 13 0
4 13 0
4 13 0
4 13 0
4 13 0
4 13 0
4 13 0
4 13 0
4 13 0
4 13 0
4 13 8
4 13 8
4 13 8
4 13 8
4 13 8
4 13 8
4 13 8
6 13 12
6 13 12
6 13 12
4 14 0
4 14 0
6 14 4
5 14 11
6 14 4
6 14 4
6 14 4
6 14 4
6 14 4
6 14 4
6 14 4
6 14 4
6 14 4
7 14 6
5 14 10
12 15 1
0 0 0
0 0 0
0 0 0
0 0 0
0 0 0
0 0 0
0 0 0
0 0 0
0 0 0
0 0 0
0 0 0
0 0 0
0 0 0
0 0 0
0 0 0
0 0 0
0 0 0
0 0 0
0 0 0
4 15 0
4 14 8
4 15 1
4 14 0
6 13 12
6 13 12
4 13 8
4 13 8
4 13 8
4 13 8
4 13 8
4 13 8
4 13 0
4 13 0
4 13 0
4 13 0
4 13 0
4 13 0
4 13 0
4 13 0
4 13 0
4 13 0
4 13 0
4 13 0
4 13 0
4 13 0
4 13 0
4 13 0
4 13 0
4 13 0
4 13 0
4 13 0
4 13 0
4 13 0
4 13 0
4 13 8
4 13 8
4 13 8
4 13 8
4 13 8
4 13 8
4 13 8
4 13 8
4 13 8
4 13 8
6 13 12
6 13 12
4 14 0
5 14 2
5 14 2
5 14 2
4 14 0
4 14 0
4 14 0
5 14 2
5 14 2
5 14 2
6 14 4
6 14 4
5 15 2
0 0 0
6 15 4
0 0 0
0 0 0
0 0 0
0 0 0
0 0 0
0 0 0
0 0 0
0 0 0
0 0 0
0 0 0
0 0 0
0 0 0
0 0 0
0 0 0
0 0 0
0 0 0
0 0 0
0 0 0
5 14 11
6 14 4
5 14 2
4 14 0
6 13 12
6 13 12
4 13 8
4 13 8
4 13 8
4 13 8
4 13 8
4 13 8
4 13 0
4 13 0
4 13 0
4 13 0
4 13 0
4 13 0
4 13 0
4 13 0
4 13 0
4 13 0
4 13 0
4 13 0
4 13 0
4 13 0
4 13 0
4 13 0
4 13 0
4 13 0
4 13 0
4 13 0
4 13 0
4 13 0
4 13 0
4 13 0
4 13 8
4 13 8
4 13 8
4 13 8
4 13 8
4 13 8
4 13 8
4 13 8
4 13 8
4 13 8
4 13 8
6 13 12
6 13 12
4 14 0
4 14 0
4 14 0
4 14 0
4 14 0
4 14 0
4 14 0
5 14 2
5 14 2
5 14 2
7 14 6
6 14 13
5 14 11
0 0 0
0 0 0
0 0 0
0 0 0
0 0 0
0 0 0
0 0 0
0 0 0
0 0 0
0 0 0
0 0 0
0 0 0
0 0 0
0 0 0
0 0 0
0 0 0
0 0 0
0 0 0
12 15 1
6 14 4
5 14 2
4 14 0
6 13 12
4 13 8
4 13 8
4 13 8
4 13 8
4 13 8
4 13 8
4 13 0
4 13 0
4 13 0
4 13 0
4 13 0
4 13 0
4 13 0
4 13 0
4 13 0
4 13 0
4 13 0
4 13 0
4 13 0
4 13 0
4 13 0
4 13 0
4 13 0
4 13 0
4 13 0
4 13 0
4 13 0
4 13 0
4 13 0
4 13 0
4 13 0
4 13 8
4 13 8
4 13 8
4 13 8
4 13 8
4 13 8
4 13 8
4 13 8
4 13 8
4 13 8
4 13 8
4 13 8
4 13 8
6 13 12
6 13 12
4 14 0
4 14 0
4 14 0
4 14 0
4 14 0
4 14 0
5 14 2
5 14 2
5 14 2
7 14 6
4 14 9
0 0 0
0 0 0
0 0 0
0 0 0
0 0 0
0 0 0
0 0 0
0 0 0
0 0 0
0 0 0
0 0 0
0 0 0
0 0 0
0 0 0
0 0 0
0 0 0
0 0 0
0 0 0
13 15 3
4 14 8
4 14 0
4 14 0
6 13 12
4 13 8
4 13 8
4 13 8
4 13 8
4 13 8
4 13 8
4 13 0
4 13 0
4 13 0
4 13 0
4 13 0
4 13 0
4 13 0
4 13 0
4 13 0
4 13 0
4 13 0
4 13 0
4 13 0
4 13 0
4 13 0
4 13 0
4 13 0
4 13 0
4 13 0
4 13 0
4 13 0
4 13 0
4 13 0
4 13 0
4 13 0
4 13 0
4 13 8
4 13 8
4 13 8
4 13 8
4 13 8
4 13 8
4 13 8
4 13 8
4 13 8
4 13 8
4 13 8
4 13 8
4 13 8
6 13 12
6 13 12
6 13 12
6 13 12
4 14 0
4 14 0
4 14 0
4 14 0
5 14 2
5 14 2
6 14 4
5 14 11
0 0 0
0 0 0
7 14 15
14 15 4
0 0 0
0 0 0
0 0 0
0 0 0
0 0 0
0 0 0
0 0 0
0 0 0
0 0 0
0 0 0
12 15 1
5 14 11
6 14 13
7 14 14
7 14 15
7 14 14
4 14 0
6 13 12
4 13 8
4 13 8
4 13 8
4 13 8
4 13 8
4 13 8
4 13 0
4 13 0
4 13 0
4 13 0
4 13 0
4 13 0
4 13 0
4 13 0
4 13 0
4 13 0
4 13 0
4 13 0
4 13 0
4 13 0
4 13 0
4 13 0
4 13 0
4 13 0
4 13 0
4 13 0
4 13 0
4 13 0
4 13 0
4 13 0
4 13 0
4 13 0
4 13 0
4 13 8
4 13 8
4 13 8
4 13 8
4 13 8
4 13 8
4 13 8
4 13 8
4 13 8
4 13 8
4 13 8
4 13 8
4 13 8
4 13 8
6 13 12
6 13 12
6 13 12
6 13 12
6 13 12
4 14 0
4 14 0
4 14 0
5 14 2
6 14 4
6 14 12
0 0 0
5 14 11
4 14 9
0 0 0
12 15 1
0 0 0
0 0 0
0 0 0
0 0 0
0 0 0
0 0 0
5 15 3
0 0 0
6 14 12
0 0 0
7 14 6
7 14 6
7 14 6
7 14 14
6 14 4
4 14 0
6 13 12
4 13 8
4 13 8
4 13 8
4 13 8
4 13 8
4 13 8
4 13 0
4 13 0
4 13 0
4 13 0
4 13 0
4 13 0
4 13 0
4 13 0
4 13 0
4 13 0
4 13 0
4 13 0
4 13 0
4 13 0
4 13 0
4 13 0
4 13 0
4 13 0
4 13 0
4 13 0
4 13 0
4 13 0
4 13 0
4 13 0
4 13 0
4 13 0
4 13 0
4 13 0
4 13 8
4 13 8
4 13 8
4 13 8
4 13 8
4 13 8
4 13 8
4 13 8
4 13 8
4 13 8
4 13 8
4 13 8
4 13 8
4 13 8
6 13 12
6 13 12
6 13 12
6 13 12
6 13 12
6 13 12
4 14 0
4 14 0
5 14 2
6 14 4
7 14 6
7 14 6
7 14 6
7 14 6
4 14 8
4 14 9
6 14 13
0 0 0
0 0 0
0 0 0
0 0 0
6 14 12
4 14 9
4 14 8
7 14 6
5 14 2
5 14 2
5 14 2
12 15 0
4 14 0
6 13 12
6 13 12
4 13 8
4 13 8
4 13 8
4 13 8
4 13 8
4 13 0
4 13 0
4 13 0
4 13 0
4 13 0
4 13 0
4 13 0
4 13 0
4 13 0
4 13 0
4 13 0
4 13 0
4 13 0
4 13 0
4 13 0
4 13 0
4 13 0
4 13 0
4 13 0
4 13 0
4 13 0
4 13 0
4 13 0
4 13 0
4 13 0
4 13 0
4 13 0
4 13 0
4 13 0
4 13 0
4 13 8
4 13 8
4 13 8
4 13 8
4 13 8
4 13 8
4 13 8
4 13 8
4 13 8
4 13 8
4 13 8
4 13 8
4 13 8
4 13 8
4 13 8
6 13 12
6 13 12
6 13 12
6 13 12
6 13 12
6 13 12
4 14 0
4 14 0
5 14 2
5 14 2
5 14 2
6 14 4
6 14 4
4 14 8
13 15 2
0 0 0
0 0 0
0 0 0
0 0 0
0 0 0
7 14 6
6 14 4
5 14 2
5 14 2
4 14 0
4 14 0
4 14 0
6 13 12
6 13 12
4 13 8
4 13 8
4 13 8
4 13 8
4 13 8
4 13 0
4 13 0
4 13 0
4 13 0
4 13 0
4 13 0
4 13 0
4 13 0
4 13 0
4 13 0
4 13 0
4 13 0
4 13 0
4 13 0
4 13 0
4 13 0
4 13 0
4 13 0
4 13 0
4 13 0
4 13 0
4 13 0
4 13 0
4 13 0
4 13 0
4 13 0
4 13 0
4 13 0
4 13 0
4 13 0
4 13 0
4 13 8
4 13 8
4 13 8
4 13 8
4 13 8
4 13 8
4 13 8
4 13 8
4 13 8
4 13 8
4 13 8
4 13 8
4 13 8
4 13 8
4 13 8
4 13 8
6 13 12
6 13 12
6 13 12
6 13 12
6 13 12
6 13 12
6 13 12
4 14 0
4 14 0
5 14 2
5 14 2
6 14 4
7 14 6
6 14 13
0 0 0
0 0 0
0 0 0
0 0 0
12 15 0
7 14 6
5 14 2
4 14 0
4 14 0
4 14 0
4 14 0
6 13 12
6 13 12
4 13 8
4 13 8
4 13 8
4 13 8
4 13 8
4 13 8
4 13 0
4 13 0
4 13 0
4 13 0
4 13 0
4 13 0
4 13 0
4 13 0
4 13 0
4 13 0
4 13 0
4 13 0
4 13 0
4 13 0
4 13 0
4 13 0
4 13 0
4 13 0
4 13 0
4 13 0
4 13 0
4 13 0
4 13 0
4 13 0
4 13 0
4 13 0
4 13 0
4 13 0
4 13 0
4 13 0
4 13 0
4 13 0
4 13 8
4 13 8
4 13 8
4 13 8
4 13 8
4 13 8
4 13 8
4 13 8
4 13 8
4 13 8
4 13 8
4 13 8
4 13 8
4 13 8
4 13 8
4 13 8
6 13 12
6 13 12
6 13 12
6 13 12
6 13 12
6 13 12
6 13 12
4 14 0
4 14 0
4 14 0
5 14 2
5 14 10
0 0 0
7 14 14
5 15 3
0 0 0
12 15 0
7 14 15
6 14 4
4 14 0
4 14 0
4 14 0
6 13 12
6 13 12
6 13 12
6 13 12
4 13 8
4 13 8
4 13 8
4 13 8
4 13 8
4 13 0
4 13 0
4 13 0
4 13 0
4 13 0
4 13 0
4 13 0
4 13 0
4 13 0
4 13 0
4 13 0
4 13 0
4 13 0
4 13 0
4 13 0
4 13 0
4 13 0
4 13 0
4 13 0
4 13 0
4 13 0
4 13 0
4 13 0
4 13 0
4 13 0
4 13 0
4 13 0
4 13 0
4 13 0
4 13 0
4 13 0
4 13 0
4 13 0
4 13 0
4 13 8
4 13 8
4 13 8
4 13 8
4 13 8
4 13 8
4 13 8
4 13 8
4 13 8
4 13 8
4 13 8
4 13 8
4 13 8
4 13 8
4 13 8
4 13 8
6 13 12
6 13 12
6 13 12
6 13 12
6 13 12
6 13 12
6 13 12
4 14 0
4 14 0
4 14 0
5 14 2
7 14 6
4 14 8
0 0 0
13 15 3
5 14 10
7 14 6
5 14 2
4 14 0
4 14 0
6 13 12
6 13 12
6 13 12
6 13 12
4 13 8
4 13 8
4 13 8
4 13 8
4 13 8
4 13 0
4 13 0
4 13 0
4 13 0
4 13 0
4 13 0
4 13 0
4 13 0
4 13 0
4 13 0
4 13 0
4 13 0
4 13 0
4 13 0
4 13 0
4 13 0
4 13 0
4 13 0
4 13 0
4 13 0
4 13 0
4 13 0
4 13 0
4 13 0
4 13 0
4 13 0
4 13 0
4 13 0
4 13 0
4 13 0
4 13 0
4 13 0
4 13 0
4 13 0
4 13 0
4 13 0
4 13 8
4 13 8
4 13 8
4 13 8
4 13 8
4 13 8
4 13 8
4 13 8
4 13 8
4 13 8
4 13 8
4 13 8
4 13 8
4 13 8
4 13 8
4 13 8
6 13 12
6 13 12
6 13 12
6 13 12
6 13 12
6 13 12
6 13 12
4 14 0
4 14 0
4 14 0
6 14 4
7 14 6
4 14 9
5 15 3
4 14 9
6 14 4
5 14 2
4 14 0
6 13 12
6 13 12
6 13 12
6 13 12
4 13 8
4 13 8
4 13 8
4 13 8
4 13 8
4 13 0
4 13 0
4 13 0
4 13 0
4 13 0
4 13 0
4 13 0
4 13 0
4 13 0
4 13 0
4 13 0
4 13 0
4 13 0
4 13 0
4 13 0
4 13 0
4 13 0
4 13 0
4 13 0
4 13 0
4 13 0
4 13 0
4 13 0
4 13 0
4 13 0
4 13 0
4 13 0
4 13 0
4 13 0
4 13 0
4 13 0
4 13 0
4 13 0
4 13 0
4 13 0
4 13 0
4 13 0
4 13 0
4 13 0
4 13 8
4 13 8
4 13 8
4 13 8
4 13 8
4 13 8
4 13 8
4 13 8
4 13 8
4 13 8
4 13 8
4 13 8
4 13 8
4 13 8
4 13 8
4 13 8
6 13 12
6 13 12
6 13 12
6 13 12
6 13 12
6 13 12
4 14 0
4 14 0
5 14 2
6 14 4
5 14 10
4 14 8
5 14 10
0 0 0
4 14 0
6 13 12
6 13 12
6 13 12
6 13 12
4 13 8
4 13 8
4 13 8
4 13 8
4 13 0
4 13 0
4 13 0
4 13 0
4 13 0
4 13 0
4 13 0
4 13 0
4 13 0
4 13 0
4 13 0
4 13 0
4 13 0
4 13 0
4 13 0
4 13 0
4 13 0
4 13 0
4 13 0
4 13 0
4 13 0
4 13 0
4 13 0
4 13 0
4 13 0
4 13 0
4 13 0
4 13 0
4 13 0
4 13 0
4 13 0
4 13 0
4 13 0
4 13 0
4 13 0
4 13 0
4 13 0
4 13 0
4 13 0
4 13 0
4 13 0
4 13 0
4 13 8
4 13 8
4 13 8
4 13 8
4 13 8
4 13 8
4 13 8
4 13 8
4 13 8
4 13 8
4 13 8
4 13 8
4 13 8
4 13 8
4 13 8
4 13 8
6 13 12
6 13 12
6 13 12
6 13 12
6 13 12
6 13 12
4 14 0
5 14 2
7 14 6
5 14 11
5 14 2
5 14 2
4 14 0
6 13 12
6 13 12
6 13 12
6 13 12
4 13 8
4 13 8
4 13 8
4 13 8
4 13 0
4 13 0
4 13 0
4 13 0
4 13 0
4 13 0
4 13 0
4 13 0
4 13 0
4 13 0
4 13 0
4 13 0
4 13 0
4 13 0
4 13 0
4 13 0
4 13 0
4 13 0
4 13 0
4 13 0
4 13 0
4 13 0
4 13 0
4 13 0
4 13 0
4 13 0
4 13 0
4 13 0
4 13 0
4 13 0
4 13 0
4 13 0
4 13 0
4 13 0
4 13 0
4 13 0
4 13 0
4 13 0
4 13 0
4 13 0
4 13 0
4 13 0
4 13 0
4 13 0
4 13 0
4 13 8
4 13 8
4 13 8
4 13 8
4 13 8
4 13 8
4 13 8
4 13 8
4 13 8
4 13 8
4 13 8
4 13 8
4 13 8
4 13 8
4 13 8
4 13 8
6 13 12
6 13 12
6 13 12
6 13 12
6 13 12
4 14 0
4 15 1
7 14 6
4 14 0
4 14 0
6 13 12
6 13 12
6 13 12
4 13 8
4 13 8
4 13 8
4 13 8
4 13 0
4 13 0
4 13 0
4 13 0
4 13 0
4 13 0
4 13 0
4 13 0
4 13 0
4 13 0
4 13 0
4 13 0
4 13 0
4 13 0
4 13 0
4 13 0
4 13 0
4 13 0
4 13 0
4 13 0
4 13 0
4 13 0
4 13 0
4 13 0
4 13 0
4 13 0
4 13 0
4 13 0
4 13 0
4 13 0
4 13 0
4 13 0
4 13 0
4 13 0
4 13 0
4 13 0
4 13 0
4 13 0
4 13 0
4 13 0
4 13 0
4 13 0
4 13 0
4 13 0
4 13 0
4 13 0
4 13 0
4 13 0
4 13 8
4 13 8
4 13 8
4 13 8
4 13 8
4 13 8
4 13 8
4 13 8
4 13 8
4 13 8
4 13 8
4 13 8
4 13 8
4 13 8
4 13 8
4 13 8
4 13 8
4 13 8
6 13 12
6 13 12
6 13 12
6 13 12
4 14 0
6 13 12
6 13 12
6 13 12
4 13 8
4 13 8
4 13 8
4 13 8
4 13 8
4 13 0
4 13 0
4 13 0
4 13 0
4 13 0
4 13 0
4 13 0
4 13 0
4 13 0
4 13 0
4 13 0
4 13 0
4 13 0
4 13 0
4 13 0
4 13 0
4 13 0
4 13 0
4 13 0
4 13 0
4 13 0
4 13 0
4 13 0
4 13 0
4 13 0
4 13 0
4 13 0
4 13 0
4 13 0
4 13 0
4 13 0
4 13 0
4 13 0
4 13 0
4 13 0
4 13 0
4 13 0
4 13 0
4 13 0
4 13 0
4 13 0
4 13 0
4 13 0
4 13 0
4 13 0
4 13 0
4 13 0
4 13 0
4 13 0
4 13 0
4 13 0
4 13 0
4 13 8
4 13 8
4 13 8
4 13 8
4 13 8
4 13 8
4 13 8
4 13 8
4 13 8
4 13 8
4 13 8
4 13 8
4 13 8
4 13 8
4 13 8
4 13 8
4 13 8
4 13 8
4 13 8
4 13 8
4 13 8
4 13 8
4 13 8
4 13 8
4 13 8
4 13 0
4 13 0
4 13 0
4 13 0
4 13 0
4 13 0
4 13 0
4 13 0
4 13 0
4 13 0
4 13 0
4 13 0
4 13 0
4 13 0
4 13 0
4 13 0
4 13 0
4 13 0
4 13 0
4 13 0
4 13 0
4 13 0
4 13 0
4 13 0
4 13 0
4 13 0
4 13 0
4 13 0
4 13 0
4 13 0
4 13 0
4 13 0
4 13 0
4 13 0
4 13 0
4 13 0
4 13 0
4 13 0
4 13 0
4 13 0
4 13 0
4 13 0
4 13 0
4 13 0
4 13 0
4 13 0
4 13 0
4 13 0
4 13 0
4 13 0
4 13 0
4 13 0
4 13 0
4 13 0
4 13 0
4 13 0
4 13 0
4 13 0
4 13 8
4 13 8
4 13 8
4 13 8
4 13 8
4 13 8
4 13 8
4 13 8
4 13 8
4 13 8
4 13 8
4 13 8
4 13 8
4 13 8
4 13 8
4 13 8
4 13 8
4 13 8
4 13 8
4 13 0
4 13 0
4 13 0
4 13 0
4 13 0
4 13 0
4 13 0
4 13 0
4 13 0
4 13 0
4 13 0
4 13 0
4 13 0
4 13 0
4 13 0
4 13 0
4 13 0
4 13 0
4 13 0
4 13 0
4 13 0
4 13 0
4 13 0
4 13 0
4 13 0
4 13 0
4 13 0
4 13 0
4 13 0
4 13 0
4 13 0
4 13 0
4 13 0
4 13 0
4 13 0
4 13 0
4 13 0
4 13 0
4 13 0
4 13 0
4 13 0
4 13 0
4 13 0
4 13 0
4 13 0
4 13 0
4 13 0
4 13 0
4 13 0
4 13 0
4 13 0
4 13 0
4 13 0
4 13 0
4 13 0
4 13 0
4 13 0
4 13 0
4 13 0
4 13 0
4 13 0
4 13 0
4 13 0
4 13 0
4 13 0
4 13 8
4 13 8
4 13 8
4 13 8
4 13 8
4 13 8
4 13 8
4 13 8
4 13 8
4 13 8
4 13 8
4 13 0
4 13 0
4 13 0
4 13 0
4 13 0
4 13 0
4 13 0
4 13 0
4 13 0
4 13 0
4 13 0
4 13 0
4 13 0
4 13 0
4 13 0
4 13 0
4 13 0
4 13 0
4 13 0
4 13 0
4 13 0
4 13 0
4 13 0
4 13 0
4 13 0
4 13 0
4 13 0
4 13 0
4 13 0
4 13 0
4 13 0
4 13 0
4 13 0
4 13 0
4 13 0
4 13 0
4 13 0
4 13 0
4 13 0
4 13 0
4 13 0
4 13 0
4 13 0
4 13 0
4 13 0
4 13 0
4 13 0
4 13 0
4 13 0
4 13 0
4 13 0
4 13 0
4 13 0
4 13 0
4 13 0
4 13 0
4 13 0
4 13 0
4 13 0
4 13 0
4 13 0
4 13 0
4 13 0
4 13 0
4 13 0
4 13 0
4 13 0
4 13 0
4 13 0
4 13 0
4 13 0
4 13 0
4 13 0
4 13 0
4 13 0
4 13 0
4 13 0
4 13 0
4 13 0
4 13 0
4 13 0
4 13 0
4 13 0
4 13 0
4 13 0
4 13 0
4 13 0
4 13 0
4 13 0
4 13 0
4 13 0
4 13 0
4 13 0
4 13 0
4 13 0
4 13 0
4 13 0
4 13 0
4 13 0
4 13 0
4 13 0
4 13 0
4 13 0
4 13 0
4 13 0
4 13 0
4 13 0
4 13 0
4 13 0
4 13 0
4 13 0
4 13 0
4 13 0
4 13 0
4 13 0
4 13 0
4 13 0
4 13 0
4 13 0
4 13 0
4 13 0
4 13 0
4 13 0
4 13 0
4 13 0
4 13 0
4 13 0
4 13 0
4 13 0
4 13 0
4 13 0
4 13 0
4 13 0
4 13 0
4 13 0
4 13 0
4 13 0
4 13 0
4 13 0
4 13 0
4 13 0
4 13 0
4 13 0
4 13 0
4 13 0
4 13 0
4 13 0
4 13 0
4 13 0
4 13 0
4 13 0
4 13 0
4 13 0
4 13 0
4 13 0
4 13 0
4 13 0
4 13 0
4 13 0
4 13 0
4 13 0
4 13 0
4 13 0
4 13 0
4 13 0
4 13 0
4 13 0
4 13 0
4 13 0
4 13 0
4 13 0
4 13 0
4 13 0
4 13 0
4 13 0
4 13 0
4 13 0
4 13 0
4 13 0
4 13 0
4 13 0
4 13 0
4 13 0
4 13 0
4 13 0
4 13 0
4 13 0
4 13 0
4 13 0
4 13 0
4 13 0
4 13 0
4 13 0
4 13 0
4 13 0
4 13 0
4 13 0
4 13 0
4 13 0
4 13 0
4 13 0
4 13 0
4 13 0
4 13 0
4 13 0
4 13 0
4 13 0
4 13 0
4 13 0
4 13 0
4 13 0
4 13 0
4 13 0
4 13 0
4 13 0
4 13 0
4 13 0
4 13 0
4 13 0
4 13 0
4 13 0
4 13 0
4 13 0
4 13 0
4 13 0
4 13 0
4 13 0
4 13 0
4 13 0
4 13 0
4 13 0
4 13 0
4 13 0
4 13 0
4 13 0
4 13 0
4 13 0
4 13 0
4 13 0
4 13 0
4 13 0
4 13 0
4 13 0
4 13 0
4 13 0
4 13 0
4 13 0
4 13 0
4 13 0
4 13 0
4 13 0
4 13 0
4 13 0
4 13 0
4 13 0
4 13 0
4 13 0
4 13 0
4 13 0
4 13 0
4 13 0
4 13 0
4 13 0
4 13 0
4 13 0
4 13 0
4 13 0
4 13 0
4 13 0
4 13 0
4 13 0
4 13 0
4 13 0
4 13 0
